<svg width="30" height="30" viewBox="0 0 30 30" fill="none" xmlns="http://www.w3.org/2000/svg">
<circle cx="15" cy="15" r="15" fill="#EEEEF3"/>
<path d="M9.73305 16.4649C8.96075 16.4649 8.33333 15.8375 8.33333 15.0664C8.33333 14.2953 8.96075 13.6667 9.73305 13.6667C10.5053 13.6667 11.1328 14.2953 11.1328 15.0664C11.1328 15.8375 10.5053 16.4649 9.73305 16.4649" fill="#BB2434"/>
<path d="M14.9668 16.4649C14.1945 16.4649 13.567 15.8375 13.567 15.0664C13.567 14.2953 14.1945 13.6667 14.9668 13.6667C15.7391 13.6667 16.3665 14.2953 16.3665 15.0664C16.3665 15.8375 15.7391 16.4649 14.9668 16.4649" fill="#BB2434"/>
<path d="M20.1999 16.4649C19.4276 16.4649 18.8002 15.8375 18.8002 15.0664C18.8002 14.2953 19.4276 13.6667 20.1999 13.6667C20.9722 13.6667 21.5997 14.2953 21.5997 15.0664C21.5997 15.8375 20.9722 16.4649 20.1999 16.4649" fill="#BB2434"/>
</svg>
