<svg width="30" height="30" viewBox="0 0 30 30" fill="none" xmlns="http://www.w3.org/2000/svg">
<circle cx="15" cy="15" r="15" fill="#EEEEF3"/>
<path fill-rule="evenodd" clip-rule="evenodd" d="M17.7722 12.4886C17.7722 14.055 16.5234 15.3111 14.966 15.3111C13.4086 15.3111 12.1598 14.055 12.1598 12.4886C12.1598 10.9215 13.4086 9.66667 14.966 9.66667C16.5234 9.66667 17.7722 10.9215 17.7722 12.4886ZM14.966 20.3333C12.6786 20.3333 10.7254 19.9707 10.7254 18.5201C10.7254 17.0689 12.666 16.6931 14.966 16.6931C17.2535 16.6931 19.2067 17.0557 19.2067 18.5069C19.2067 19.9575 17.266 20.3333 14.966 20.3333ZM18.9714 12.5395C18.9714 13.338 18.7332 14.0819 18.3154 14.7003C18.2724 14.764 18.3106 14.8498 18.3864 14.863C18.4909 14.8811 18.5989 14.8913 18.7087 14.8943C19.8041 14.9231 20.7873 14.214 21.0589 13.1465C21.4612 11.5608 20.2799 10.1373 18.7756 10.1373C18.612 10.1373 18.4556 10.1547 18.3034 10.1859C18.2825 10.1907 18.2605 10.2003 18.2485 10.2189C18.2342 10.2417 18.2449 10.2724 18.2593 10.2922C18.7111 10.9292 18.9714 11.7061 18.9714 12.5395ZM20.7855 16.0084C21.5215 16.1531 22.0056 16.4485 22.2062 16.8778C22.3757 17.2302 22.3757 17.6391 22.2062 17.9909C21.8994 18.6568 20.9102 18.8705 20.5258 18.9257C20.4464 18.9378 20.3826 18.8687 20.3909 18.7889C20.5873 16.9438 19.0251 16.069 18.621 15.8679C18.6037 15.8589 18.6001 15.8451 18.6019 15.8367C18.6031 15.8307 18.6103 15.8211 18.6234 15.8193C19.4979 15.803 20.4381 15.9231 20.7855 16.0084ZM11.2914 14.8942C11.4012 14.8912 11.5087 14.8816 11.6138 14.863C11.6896 14.8498 11.7278 14.7639 11.6848 14.7003C11.2669 14.0819 11.0288 13.338 11.0288 12.5394C11.0288 11.7061 11.289 10.9291 11.7409 10.2921C11.7552 10.2723 11.7654 10.2417 11.7516 10.2189C11.7397 10.2008 11.717 10.1906 11.6967 10.1858C11.5439 10.1546 11.3875 10.1372 11.224 10.1372C9.71968 10.1372 8.53835 11.5608 8.94128 13.1464C9.21288 14.214 10.196 14.923 11.2914 14.8942ZM11.398 15.8363C11.3998 15.8453 11.3962 15.8585 11.3795 15.8681C10.9747 16.0693 9.41256 16.944 9.60895 18.7885C9.61731 18.8689 9.55403 18.9374 9.47464 18.926C9.09021 18.8707 8.10109 18.657 7.79427 17.9912C7.62414 17.6387 7.62414 17.2304 7.79427 16.878C7.99484 16.4487 8.47835 16.1533 9.21438 16.008C9.56239 15.9234 10.502 15.8033 11.3771 15.8195C11.3902 15.8213 11.3968 15.8309 11.398 15.8363Z" fill="#BB2434"/>
</svg>
