<svg width="2136" height="853" viewBox="0 0 2136 853" fill="none" xmlns="http://www.w3.org/2000/svg">
<g clip-path="url(#clip0_358_26725)">
<mask id="mask0_358_26725" style="mask-type:luminance" maskUnits="userSpaceOnUse" x="0" y="0" width="2136" height="853">
<path d="M2136 0H0V853H2136V0Z" fill="white"/>
</mask>
<g mask="url(#mask0_358_26725)">
<g filter="url(#filter0_f_358_26725)">
<path d="M1013.5 484C1127.55 484 1220 398.039 1220 292C1220 185.961 1127.55 100 1013.5 100C899.453 100 807 185.961 807 292C807 398.039 899.453 484 1013.5 484Z" fill="#852B34"/>
<path d="M395 715C498.277 715 582 637.321 582 541.5C582 445.679 498.277 368 395 368C291.723 368 208 445.679 208 541.5C208 637.321 291.723 715 395 715Z" fill="#852B34"/>
<path d="M419 381C517.307 381 597 306.903 597 215.5C597 124.097 517.307 50 419 50C320.693 50 241 124.097 241 215.5C241 306.903 320.693 381 419 381Z" fill="#413F48"/>
<path d="M699 746C845.908 746 965 635.191 965 498.5C965 361.81 845.908 251 699 251C552.092 251 433 361.81 433 498.5C433 635.191 552.092 746 699 746Z" fill="#544D51"/>
<path d="M1574.63 733.289C1697.59 733.289 1797.26 632.25 1797.26 507.613C1797.26 382.977 1697.59 281.938 1574.63 281.938C1451.68 281.938 1352 382.977 1352 507.613C1352 632.25 1451.68 733.289 1574.63 733.289Z" fill="#584848"/>
<path d="M1707.97 388.992C1781.52 388.992 1841.15 328.552 1841.15 253.996C1841.15 179.44 1781.52 119 1707.97 119C1634.42 119 1574.8 179.44 1574.8 253.996C1574.8 328.552 1634.42 388.992 1707.97 388.992Z" fill="#85292D"/>
</g>
</g>
</g>
<defs>
<filter id="filter0_f_358_26725" x="108.832" y="-49.1678" width="1831.48" height="894.336" filterUnits="userSpaceOnUse" color-interpolation-filters="sRGB">
<feFlood flood-opacity="0" result="BackgroundImageFix"/>
<feBlend mode="normal" in="SourceGraphic" in2="BackgroundImageFix" result="shape"/>
<feGaussianBlur stdDeviation="49.5839" result="effect1_foregroundBlur_358_26725"/>
</filter>
<clipPath id="clip0_358_26725">
<rect width="2136" height="853" fill="white"/>
</clipPath>
</defs>
</svg>
