<svg width="14" height="12" viewBox="0 0 14 12" fill="none" xmlns="http://www.w3.org/2000/svg">
<path fill-rule="evenodd" clip-rule="evenodd" d="M10.293 0C11.187 0 12.047 0.353333 12.6796 0.987333C13.313 1.62 13.667 2.47333 13.667 3.36667V8.63333C13.667 10.4933 12.1536 12 10.293 12H3.70695C1.84628 12 0.333618 10.4933 0.333618 8.63333V3.36667C0.333618 1.50667 1.83962 0 3.70695 0H10.293ZM11.3536 4.36L11.407 4.30667C11.5663 4.11333 11.5663 3.83333 11.3996 3.64C11.307 3.54067 11.1796 3.48 11.047 3.46667C10.907 3.45933 10.7736 3.50667 10.673 3.6L7.66695 6C7.28029 6.32067 6.72629 6.32067 6.33362 6L3.33362 3.6C3.12629 3.44667 2.83962 3.46667 2.66695 3.64667C2.48695 3.82667 2.46695 4.11333 2.61962 4.31333L2.70695 4.4L5.74029 6.76667C6.11362 7.06 6.56629 7.22 7.04029 7.22C7.51295 7.22 7.97362 7.06 8.34629 6.76667L11.3536 4.36Z" fill="#FEFEFF"/>
</svg>
