<svg width="14" height="14" viewBox="0 0 14 14" fill="none" xmlns="http://www.w3.org/2000/svg">
<path d="M11.1111 8.5863C10.6633 8.48997 10.309 8.69787 9.99535 8.87945C9.67412 9.06656 9.06329 9.56207 8.71316 9.43525C6.92058 8.69718 5.23461 7.12819 4.50478 5.32841C4.37615 4.97081 4.86935 4.3561 5.05508 4.03108C5.2353 3.71645 5.43891 3.35885 5.34605 2.90769C5.26213 2.50228 4.17667 1.12109 3.79284 0.743392C3.5397 0.493904 3.28038 0.356687 3.01417 0.33451C2.01332 0.291543 0.895535 1.62699 0.699493 1.94647C0.208354 2.62771 0.211106 3.53418 0.707747 4.63331C1.90464 7.58558 6.4315 12.041 9.39484 13.2829C9.9417 13.5386 10.4418 13.6668 10.891 13.6668C11.3305 13.6668 11.7219 13.5442 12.0583 13.3009C12.3121 13.1547 13.7023 11.9814 13.6658 10.9537C13.6438 10.6917 13.5069 10.4297 13.2607 10.1761C12.8858 9.78869 11.5135 8.67085 11.1111 8.5863" fill="#FEFEFF"/>
</svg>
