<svg xmlns="http://www.w3.org/2000/svg"  viewBox="0 0 24 24" width="24px" height="24px" baseProfile="basic"><path fill="#c4c4c4" d="M10.34,2.13C6.35,2.78,3.07,5.88,2.23,9.84c-0.51,2.41-0.14,4.7,0.84,6.64	c0.21,0.42,0.28,0.9,0.16,1.36l-0.68,2.49c-0.21,0.74,0.47,1.43,1.22,1.23l2.62-0.69c0.44-0.11,0.89-0.05,1.3,0.15	c1.73,0.83,3.74,1.18,5.85,0.86c4.49-0.68,8.01-4.44,8.42-8.96C22.54,6.43,16.91,1.08,10.34,2.13z M17.203,14.959	c0,0.514,0,1.096-1.029,1.611c-1.455,0.727-4.372,0.772-6.944-1.8S6.702,9.28,7.43,7.825c0.514-1.029,1.096-1.029,1.611-1.029h0.51	c0.683,0,1.02,0.506,1.02,1.02V9.22c-0.015,0.538-0.233,0.61-0.705,0.939c-0.893,0.625-0.324,2.241,0.705,3.27	c1.029,1.029,2.645,1.598,3.27,0.705c0.33-0.471,0.401-0.689,0.939-0.705h1.403c0.514,0,1.02,0.337,1.02,1.02V14.959z"/></svg>