<svg xmlns="http://www.w3.org/2000/svg" width="38.177" height="38.246" viewBox="0 0 38.177 38.246">
  <g id="phone-incoming" transform="translate(1.251 1.768)">
    <path id="Контур_6" data-name="Контур 6" d="M16,2V12.1H26.1" transform="translate(7.376 -0.317)" fill="none" stroke="#454545" stroke-linecap="round" stroke-linejoin="round" stroke-width="2.5"/>
    <line id="Линия_7" data-name="Линия 7" x1="11.782" y2="11.782" transform="translate(23.376 0)" fill="none" stroke="#454545" stroke-linecap="round" stroke-linejoin="round" stroke-width="2.5"/>
    <path id="Контур_7" data-name="Контур 7" d="M35.586,27.113v5.049a3.366,3.366,0,0,1-3.669,3.366,33.309,33.309,0,0,1-14.525-5.167,32.821,32.821,0,0,1-10.1-10.1A33.309,33.309,0,0,1,2.126,5.669,3.366,3.366,0,0,1,5.475,2h5.049a3.366,3.366,0,0,1,3.366,2.9,21.612,21.612,0,0,0,1.178,4.73,3.366,3.366,0,0,1-.757,3.551l-2.138,2.138a26.93,26.93,0,0,0,10.1,10.1l2.138-2.138a3.366,3.366,0,0,1,3.551-.757,21.611,21.611,0,0,0,4.73,1.178,3.366,3.366,0,0,1,2.895,3.417Z" transform="translate(-2.112 -0.317)" fill="none" stroke="#454545" stroke-linecap="round" stroke-linejoin="round" stroke-width="2.5"/>
  </g>
</svg>
