<svg width="1633" height="302" viewBox="0 0 1633 302" fill="none" xmlns="http://www.w3.org/2000/svg">
<path d="M143.27 126.61C142.06 135.61 135.55 141.61 125.81 142.35C121.27 142.68 114 142.61 109.47 142.49V106.16C116.47 106.28 125.89 105.72 131.97 107.31C140.33 109.5 144.45 117.79 143.27 126.61Z" fill="#C73A3C"/>
<path d="M812.21 228.06V199.13H792.63C792.27 197.06 792.57 194.19 792.57 190.5C792.57 162.5 792.57 134.41 792.67 106.37C792.67 99.99 792.697 93.6133 792.75 87.24C792.75 86.52 792.75 85.87 792.67 85.24V80.5H679.79V85.75C679.79 85.99 679.79 86.24 679.72 86.5C677.95 109.99 676.1 133.5 673.6 156.91C672.4 168.18 668.25 193.14 665.68 199.13H641V264.86H673.87V260.41C673.896 259.974 673.896 259.536 673.87 259.1C673.74 253.66 674.06 239.91 674.13 229.47H701.74C725.45 229.53 749.17 229.47 772.87 229.47H773.05H778.72V264.86H812.18V248.21C812.18 245.543 812.18 242.903 812.18 240.29C812.18 242.957 812.18 245.597 812.18 248.21L812.21 228.06ZM759.76 199.13H755.89C738 199 720.11 199 702.22 199C701.52 199 700.81 198.56 701.22 198.72C702.48 187.2 704.22 170.1 705.77 153.96C708.03 130.88 710.02 109.78 710.02 109.78H759.7C759.7 109.78 759.7 111.42 759.7 115.78C759.61 142 759.77 199.1 759.76 199.13Z" fill="#FEFEFF"/>
<path d="M1409.92 66.3C1400.03 66.3 1390.13 66.1 1380.25 66.39C1375.41 66.54 1373.88 64.68 1374.09 60.08C1374.33 54.58 1374.2 49.08 1373.93 43.57C1373.72 39.32 1375.12 37.22 1379.68 37.24C1400.02 37.3533 1420.35 37.3533 1440.68 37.24C1444.38 37.24 1445.75 38.77 1445.68 42.37C1445.54 48.63 1445.56 54.9 1445.68 61.16C1445.76 65.16 1443.94 66.41 1440.12 66.35C1430.04 66.18 1419.96 66.29 1409.88 66.29L1409.92 66.3Z" fill="#BA2D38"/>
<path d="M1114.21 154.66C1112.21 152.34 1112.06 150.32 1114.03 147.66C1126.69 130.4 1124.73 108.22 1108.72 93.66C1091.9 78.38 1071.52 75.32 1050 79.37C1024.47 84.17 1008.56 101.97 1006.42 126.71V126.78C1006.3 128.1 1006.22 129.44 1006.19 130.78H1032.45H1038C1038.46 125.78 1038.83 123.71 1039.31 122.32C1041.76 115.32 1047.59 110.92 1054.68 109.27C1063.98 107.1 1073.37 107.38 1081.79 112.45C1084.87 114.235 1087.32 116.938 1088.79 120.18C1091.79 128.11 1086.79 135.18 1077.79 136.72H1053.87V141C1053.8 141.52 1053.77 142.045 1053.79 142.57C1053.79 143.49 1053.84 144.41 1053.87 145.34V158C1053.87 158.74 1053.82 159.49 1053.77 160.23C1053.7 161.117 1053.73 162.011 1053.87 162.89V166.62H1058.65C1059.24 166.672 1059.83 166.692 1060.42 166.68C1067.24 166.63 1074.3 166.35 1080.82 167.95C1092.91 170.95 1096.13 185.7 1087.09 194.12C1071.2 208.93 1042.09 202.29 1034 182.5C1033.69 181.584 1033.43 180.648 1033.24 179.7C1033.14 179.2 1032.9 177.49 1032.9 177.49L1001.52 177.16V180.04C1001.75 182.515 1002.14 184.973 1002.68 187.4C1005.12 200.45 1011.56 211.93 1023.14 219.76C1045.58 234.94 1069.42 235.46 1093.85 225.99C1124.9 214 1135.37 178.91 1114.21 154.66Z" fill="#FEFEFF"/>
<path d="M1278.66 230.61H1310.66V80.5H1278.66V93.1C1277.57 92.96 1274.03 90.26 1272.87 89.61C1250.39 76.97 1226.3 74.72 1202.19 82.13C1175.31 90.39 1157.11 108.3 1149.62 136.33C1139.69 173.52 1159.76 216.56 1204.01 228.72C1228.07 235.33 1251.56 233.32 1273.5 220.48C1276.12 218.97 1277.72 218.27 1278.66 218.14V230.61ZM1271.81 178.09C1262.57 195.09 1247.3 202.21 1227.36 201.64C1207.43 202.7 1188.69 187.64 1183 172.13C1174.68 149.4 1184 124.67 1205.94 113.75C1228.42 102.54 1257.69 109.66 1270.25 129.87C1279.94 145.47 1278.66 164.12 1271.81 178.09V178.09Z" fill="#FEFEFF"/>
<path d="M1445.89 80.65C1430.27 99.79 1410.36 125.21 1394.52 144.16C1389.6 150.04 1384.66 155.903 1379.7 161.75C1377.89 163.75 1376.06 165.75 1374.27 167.75L1373.05 167.23C1372.99 166.23 1372.9 165.23 1372.86 164.16V80.65H1339.86V87.65L1339.78 230.28H1362.59L1365.73 226.47C1365.83 226.375 1365.92 226.275 1366.01 226.17C1378.3 211.543 1390.54 196.877 1402.74 182.17C1413.94 168.82 1425.28 155.28 1433.38 145.49C1434.32 144.552 1435.35 143.708 1436.46 142.97L1437.46 143.36C1437.46 143.71 1437.53 144.05 1437.58 144.36V230H1470.78V89.81C1470.78 89.2 1470.78 88.61 1470.78 88.03V80.65H1445.89Z" fill="#FEFEFF"/>
<path d="M1632.6 80.77H1598.85V136.3H1532.78V80.5H1500V229.85H1532.81V169.05H1598.88V229.82H1604.55C1604.85 229.82 1605.17 229.82 1605.55 229.82H1626.13C1626.61 229.85 1627.09 229.85 1627.57 229.82H1632.67L1632.6 80.77Z" fill="#FEFEFF"/>
<path d="M1445.72 37.24H1373.91V66.4H1445.72V37.24Z" fill="#BB2434"/>
<path d="M946.61 80.5C930.99 99.64 911.08 125.06 895.24 144.01C888.58 152.01 881.85 159.89 875.16 167.82L873.79 167.28C873.73 166.18 873.63 165.08 873.58 163.97V80.5H840.58V230.32H862.8L863.67 229.32C863.67 229.32 911.46 172.72 934.08 145.39C935.022 144.452 936.054 143.608 937.16 142.87L938.33 143.32V143.46V229.85H971.53V80.5H946.61Z" fill="#FEFEFF"/>
<path d="M0.120117 0.280029V301.83H584.68V0.280029H0.120117Z" fill="#BB2434"/>
<path d="M432.7 232.44C402.8 232.11 377.76 221.78 360.53 196.44C350.37 181.44 347.03 164.49 347.91 146.6C349.81 107.94 375.91 81.6 408.38 73.48C435.26 66.82 461.06 69.97 484.32 85.6C502.52 97.83 512.96 115.28 516.61 137.08C520.15 158.28 516.8 178.08 505.2 196C489.94 219.59 467.2 230.66 439.56 232.46C437.28 232.57 435 232.44 432.7 232.44ZM392.81 152.17C393 174.98 410.74 192.96 433.43 192.17C456.12 191.38 472.51 175.91 472.63 150.86C472.75 128.08 455.32 110.63 432.47 111.14C408.54 111.71 393.71 127.87 392.81 152.17V152.17Z" fill="#FBFDFC"/>
<path d="M274.26 140.22C268.93 140.92 257.01 140.86 254.43 140.83V108.83C260.7 108.77 269.34 108.6 275.32 109.38C282.22 110.28 287 114.78 287.92 122.12C289.16 132 284.14 138.93 274.26 140.22ZM309.76 169.53C309.6 168.61 310.06 167.81 311.62 166.68C315.76 163.46 321.36 158.04 324.19 153.68C335.35 136.44 335.86 118.01 327.19 99.92C317.86 80.55 300.95 71.08 279.94 70.21C270.66 69.82 261.37 69.74 252.07 69.77H207.91V224.47H252V214.22C252.09 203.63 252.17 193.04 252 182.45C251.95 178.45 253.67 177.34 257.46 177.11C262.84 176.77 266.46 178.46 268.97 183.38L288.04 224.47H340L309.76 169.53Z" fill="#FBFDFC"/>
<path d="M179.75 91.92C168.23 76.52 151.75 70.18 132.97 69.84C125.97 69.7133 118.97 69.6433 111.97 69.63C99.5401 69.58 87.1201 69.63 74.7001 69.63C67.4101 69.63 66.8501 69.63 66.8501 69.63C66.8501 92.82 66.9601 123.86 66.9601 147.05C66.9601 170.43 67.0801 193.81 66.8801 217.18V224.62H112V181.83H132.11C136.176 181.795 140.233 181.46 144.25 180.83C190.29 173 202.31 122.07 179.75 91.92ZM145.75 128.37C144.54 137.37 138.03 143.37 128.29 144.11C123.75 144.44 116.48 144.37 111.95 144.25V107.92C118.95 108.04 128.37 107.48 134.45 109.07C142.83 111.26 147 119.55 145.77 128.37H145.75Z" fill="#FBFDFC"/>
</svg>
