<svg width="69" height="69" viewBox="0 0 69 69" fill="none" xmlns="http://www.w3.org/2000/svg">
<path d="M34.5001 7.39258C31.8859 7.39258 29.3787 8.4311 27.5301 10.2797C25.6815 12.1282 24.643 14.6354 24.643 17.2497C24.643 19.864 25.6815 22.3712 27.5301 24.2198C29.3787 26.0683 31.8859 27.1069 34.5001 27.1069C37.1144 27.1069 39.6216 26.0683 41.4702 24.2198C43.3188 22.3712 44.3573 19.864 44.3573 17.2497C44.3573 14.6354 43.3188 12.1282 41.4702 10.2797C39.6216 8.4311 37.1144 7.39258 34.5001 7.39258ZM4.92871 23.4104C4.92871 22.2778 5.1518 21.1562 5.58525 20.1098C6.0187 19.0634 6.65401 18.1125 7.45491 17.3116C8.25582 16.5107 9.20663 15.8754 10.2531 15.442C11.2995 15.0085 12.4211 14.7854 13.5537 14.7854C14.6864 14.7854 15.8079 15.0085 16.8544 15.442C17.9008 15.8754 18.8516 16.5107 19.6525 17.3116C20.4534 18.1125 21.0887 19.0634 21.5222 20.1098C21.9556 21.1562 22.1787 22.2778 22.1787 23.4104C22.1787 25.6979 21.27 27.8917 19.6525 29.5092C18.035 31.1267 15.8412 32.0354 13.5537 32.0354C11.2662 32.0354 9.07242 31.1267 7.45491 29.5092C5.83741 27.8917 4.92871 25.6979 4.92871 23.4104ZM55.4466 14.7854C54.3139 14.7854 53.1924 15.0085 52.1459 15.442C51.0995 15.8754 50.1487 16.5107 49.3478 17.3116C48.5469 18.1125 47.9116 19.0634 47.4781 20.1098C47.0447 21.1562 46.8216 22.2778 46.8216 23.4104C46.8216 24.5431 47.0447 25.6646 47.4781 26.7111C47.9116 27.7575 48.5469 28.7083 49.3478 29.5092C50.1487 30.3101 51.0995 30.9454 52.1459 31.3789C53.1924 31.8123 54.3139 32.0354 55.4466 32.0354C57.7341 32.0354 59.9279 31.1267 61.5454 29.5092C63.1629 27.8917 64.0716 25.6979 64.0716 23.4104C64.0716 21.1229 63.1629 18.9291 61.5454 17.3116C59.9279 15.6941 57.7341 14.7854 55.4466 14.7854ZM26.4912 32.0354C25.3475 32.0354 24.2506 32.4898 23.4418 33.2985C22.6331 34.1073 22.1787 35.2042 22.1787 36.3479V49.2854C22.1787 52.5533 23.4769 55.6873 25.7876 57.998C28.0983 60.3087 31.2323 61.6069 34.5001 61.6069C37.768 61.6069 40.902 60.3087 43.2127 57.998C45.5234 55.6873 46.8216 52.5533 46.8216 49.2854V36.3479C46.8216 35.2042 46.3672 34.1073 45.5585 33.2985C44.7497 32.4898 43.6528 32.0354 42.5091 32.0354H26.4912ZM19.7144 36.3529L8.12489 39.4579C7.57777 39.6045 7.06491 39.8576 6.6156 40.2025C6.16629 40.5474 5.78933 40.9775 5.50625 41.4681C5.22318 41.9587 5.03953 42.5003 4.96581 43.062C4.89208 43.6236 4.92972 44.1942 5.07657 44.7413L7.14903 52.4767C7.62306 54.2473 8.48615 55.8898 9.67541 57.2846C10.8647 58.6794 12.3501 59.7913 14.0235 60.5392C15.697 61.2871 17.5162 61.6523 19.3486 61.6081C21.181 61.5638 22.9805 61.1113 24.6159 60.2835C23.0731 58.8968 21.8394 57.2008 20.9949 55.306C20.1505 53.4112 19.7142 51.3599 19.7144 49.2854V36.3529ZM44.3869 60.2811C45.1344 60.6589 45.9279 60.962 46.7674 61.1904C48.3304 61.6093 49.9607 61.7161 51.565 61.5049C53.1694 61.2937 54.7165 60.7685 56.1178 59.9593C57.5192 59.1502 58.7475 58.0729 59.7325 56.789C60.7175 55.5051 61.44 54.0398 61.8586 52.4767L63.9311 44.7388C64.2269 43.6343 64.072 42.4575 63.5004 41.4672C62.9287 40.4769 61.9872 39.7541 60.8828 39.4579L49.2859 36.3529V49.2854C49.2861 51.3593 48.85 53.41 48.006 55.3044C47.162 57.1987 45.9289 58.8943 44.3869 60.2811Z" fill="#A4A4A4"/>
</svg>
