<svg width="69" height="69" viewBox="0 0 69 69" fill="none" xmlns="http://www.w3.org/2000/svg">
<path d="M51.1168 48.3477C55.5242 43.9142 58 37.9025 58 31.6342C58 25.3659 55.5242 19.3542 51.1168 14.9207C48.9347 12.7266 46.3442 10.9861 43.4931 9.79863C40.6419 8.61118 37.5861 8 34.5 8C31.4139 8 28.3581 8.61118 25.5069 9.79863C22.6558 10.9861 20.0652 12.7266 17.8832 14.9207C13.4758 19.3542 11 25.3659 11 31.6342C11 37.9025 13.4758 43.9142 17.8832 48.3477L22.9891 53.407L29.8473 60.1066L30.2938 60.5048C32.8954 62.6244 36.7055 62.4894 39.1561 60.1066L47.3302 52.1076L51.1168 48.3477ZM34.5 41.7494C31.8291 41.7494 29.2675 40.6826 27.3789 38.7837C25.4902 36.8849 24.4292 34.3095 24.4292 31.6241C24.4292 28.9387 25.4902 26.3632 27.3789 24.4644C29.2675 22.5655 31.8291 21.4987 34.5 21.4987C37.1709 21.4987 39.7325 22.5655 41.6211 24.4644C43.5098 26.3632 44.5708 28.9387 44.5708 31.6241C44.5708 34.3095 43.5098 36.8849 41.6211 38.7837C39.7325 40.6826 37.1709 41.7494 34.5 41.7494Z" fill="#A4A4A4"/>
</svg>
