<svg width="69" height="69" viewBox="0 0 69 69" fill="none" xmlns="http://www.w3.org/2000/svg">
<path fill-rule="evenodd" clip-rule="evenodd" d="M34.5 52C40.4674 52 46.1903 49.6295 50.4099 45.4099C54.6295 41.1903 57 35.4674 57 29.5C57 23.5326 54.6295 17.8097 50.4099 13.5901C46.1903 9.37053 40.4674 7 34.5 7C28.5326 7 22.8097 9.37053 18.5901 13.5901C14.3705 17.8097 12 23.5326 12 29.5C12 35.4674 14.3705 41.1903 18.5901 45.4099C22.8097 49.6295 28.5326 52 34.5 52ZM34.5 19.8571C33.5871 19.8571 32.9764 20.95 31.755 23.1454L31.44 23.7111C31.0929 24.3346 30.9193 24.6432 30.6493 24.8489C30.3761 25.0546 30.0386 25.1318 29.3636 25.2829L28.7529 25.4243C26.3807 25.9611 25.1946 26.2279 24.9118 27.1343C24.6289 28.0407 25.4389 28.9889 27.0557 30.8789L27.4736 31.3675C27.9332 31.9043 28.1646 32.1711 28.2675 32.5054C28.3704 32.8396 28.335 33.1964 28.2675 33.9132L28.2032 34.5657C27.9589 37.0889 27.8368 38.3521 28.5729 38.9114C29.3121 39.4707 30.4243 38.9596 32.6454 37.9375L33.2175 37.6739C33.8507 37.3846 34.1657 37.24 34.5 37.24C34.8343 37.24 35.1493 37.3846 35.7825 37.6739L36.3546 37.9375C38.5757 38.9629 39.6879 39.4707 40.4271 38.9114C41.1664 38.3521 41.0411 37.0889 40.7968 34.5657L40.7325 33.9132C40.665 33.1964 40.6296 32.8396 40.7325 32.5054C40.8354 32.1711 41.0668 31.9043 41.5264 31.3675L41.9443 30.8789C43.5611 28.9889 44.3711 28.0439 44.0882 27.1343C43.8054 26.2279 42.6193 25.9611 40.2471 25.4243L39.6364 25.2829C38.9614 25.1318 38.6239 25.0579 38.3507 24.8489C38.0807 24.6432 37.9071 24.3346 37.56 23.7111L37.245 23.1454C36.0236 20.95 35.4129 19.8571 34.5 19.8571Z" fill="#A4A4A4"/>
<path d="M10.86 42.0031L6.12573 46.8587C4.42478 48.6074 3.57431 49.4786 3.27822 50.2186C2.60729 51.9048 3.18373 53.7721 4.64213 54.6589C5.28471 55.0462 6.43757 55.1679 8.75274 55.4084C10.0568 55.5458 10.712 55.6145 11.2569 55.8237C12.4822 56.2889 13.4303 57.2663 13.8871 58.5216C14.0887 59.0836 14.1548 59.7519 14.2871 61.0915C14.5234 63.4646 14.643 64.6512 15.021 65.3101C15.8841 66.8089 17.7079 67.3991 19.349 66.709C20.0672 66.4092 20.9176 65.5349 22.6217 63.7894L30.4398 55.7643C26.3208 55.1388 22.4059 53.5687 19.0068 51.1792C15.6076 48.7896 12.818 45.6496 10.86 42.0031ZM38.5634 55.7675L46.3814 63.7925C48.0824 65.5411 48.9328 66.4124 49.651 66.7152C51.2921 67.4022 53.1159 66.812 53.979 65.3132C54.3569 64.6575 54.4735 63.4709 54.7097 61.0977C54.8452 59.755 54.9113 59.0868 55.1129 58.5247C55.5665 57.2694 56.5178 56.2921 57.7431 55.8268C58.288 55.6176 58.94 55.552 60.2473 55.4146C62.5593 55.1711 63.7153 55.0493 64.3579 54.6621C65.8163 53.7753 66.3927 51.9048 65.7218 50.2218C65.4257 49.4817 64.5752 48.6074 62.8743 46.8619L58.14 42.0031C56.182 45.6496 53.3924 48.7927 49.9932 51.1823C46.5941 53.5718 42.6792 55.1419 38.5602 55.7675" fill="#A4A4A4"/>
</svg>
