<svg width="100" height="91" viewBox="0 0 100 91" fill="none" xmlns="http://www.w3.org/2000/svg">
<g clip-path="url(#clip0_401:3374)">
<path d="M86.1809 8.36772L2.38965 32.7251L4.60904 40.325L88.4003 15.9677L86.1809 8.36772Z" fill="#3F3D56"/>
<path d="M12.4004 67.6346L0.050245 25.3435C-0.0413157 25.0299 -0.00428203 24.6929 0.153193 24.4066C0.310669 24.1203 0.575687 23.9082 0.889953 23.8168L82.6499 0.0498715C82.9641 -0.0411726 83.3018 -0.00409859 83.5887 0.15296C83.8755 0.310018 84.0882 0.574228 84.1801 0.887592L95.1214 38.3545L94.7828 38.4529L83.8415 0.986026C83.7758 0.762287 83.6238 0.573673 83.4189 0.461506C83.2141 0.349338 82.973 0.322762 82.7485 0.387602L0.988591 24.1545C0.764115 24.2198 0.574817 24.3713 0.462334 24.5759C0.349852 24.7804 0.3234 25.0211 0.388797 25.245L12.739 67.5361L12.4004 67.6346Z" fill="#3F3D56"/>
<path d="M77.0243 38.5282C76.7763 38.528 76.535 38.4476 76.3365 38.2991C76.1381 38.1506 75.9932 37.9419 75.9235 37.7044L73.8521 30.6111C73.7674 30.32 73.802 30.0073 73.9481 29.7415C74.0943 29.4757 74.3402 29.2787 74.6318 29.1936L81.7413 27.1269C82.0332 27.0424 82.3467 27.0769 82.613 27.2227C82.8794 27.3686 83.0769 27.6139 83.1622 27.9049L85.2336 34.9982C85.3183 35.2893 85.2837 35.602 85.1376 35.8678C84.9914 36.1336 84.7455 36.3306 84.4539 36.4158L77.3443 38.4824C77.2404 38.5128 77.1326 38.5282 77.0243 38.5282Z" fill="#DE2126"/>
<path d="M12.2093 25.474C12.188 25.4011 12.1627 25.3295 12.1334 25.2594C11.9347 24.778 11.5646 24.3869 11.0943 24.1613C10.6241 23.9356 10.0868 23.8913 9.58582 24.0368C9.08481 24.1823 8.65538 24.5074 8.38004 24.9497C8.1047 25.3919 8.00287 25.9201 8.09414 26.4327C8.10696 26.5075 8.12403 26.5815 8.14527 26.6544C8.27403 27.0928 8.54167 27.4779 8.90814 27.7519C9.27462 28.0259 9.72019 28.174 10.1781 28.1742C10.3781 28.1747 10.577 28.1462 10.7688 28.0898C11.3071 27.9329 11.761 27.5694 12.031 27.079C12.3011 26.5886 12.3652 26.0114 12.2093 25.474ZM10.6701 27.752C10.2212 27.882 9.73892 27.8291 9.32908 27.6048C8.91924 27.3806 8.61526 27.0034 8.48379 26.5558C8.46315 26.4829 8.44665 26.4089 8.43437 26.3342C8.36824 25.9119 8.45856 25.4799 8.68844 25.1192C8.91831 24.7585 9.27201 24.4937 9.68339 24.3742C10.0948 24.2548 10.5357 24.289 10.9236 24.4703C11.3116 24.6517 11.6201 24.9678 11.7914 25.3597C11.8233 25.4284 11.8499 25.4996 11.8708 25.5725C12.0009 26.0204 11.9475 26.5015 11.7224 26.9101C11.4973 27.3188 11.1188 27.6216 10.6701 27.752V27.752Z" fill="#DE2126"/>
<path d="M7.0194 26.9817C6.90657 26.595 6.91741 26.183 7.05041 25.8028C7.18341 25.4226 7.43194 25.0933 7.76139 24.8607C7.45274 24.8457 7.14495 24.9045 6.86368 25.0322C6.58241 25.1599 6.3358 25.3528 6.14439 25.5948C5.95298 25.8369 5.82231 26.1211 5.76327 26.4237C5.70422 26.7263 5.71852 27.0387 5.80497 27.3347C5.89141 27.6307 6.04749 27.9018 6.26022 28.1254C6.47295 28.3491 6.73616 28.5188 7.02792 28.6204C7.31969 28.7219 7.63156 28.7525 7.93756 28.7095C8.24356 28.6665 8.53483 28.5511 8.78711 28.3731C8.384 28.3534 7.99706 28.2088 7.68021 27.9594C7.36336 27.71 7.13236 27.3682 7.0194 26.9817Z" fill="#DE2126"/>
<path d="M61.8294 35.6995C61.7919 35.5649 61.7281 35.439 61.6418 35.329C61.5554 35.219 61.4482 35.127 61.3262 35.0584C61.2042 34.9898 61.0699 34.9458 60.9308 34.9291C60.7918 34.9123 60.6508 34.9231 60.5159 34.9607L48.8104 38.2273L47.5498 38.5792H55.4663L56.7269 38.2273L61.0907 37.01C61.3627 36.9338 61.5933 36.753 61.7318 36.5073C61.8703 36.2616 61.9054 35.971 61.8294 35.6995Z" fill="#CCCCCC"/>
<path d="M53.5478 33.2598C53.4715 32.9883 53.2903 32.7581 53.044 32.6199C52.7977 32.4817 52.5064 32.4468 52.2342 32.5228L34.6699 37.4236C34.4245 37.493 34.212 37.6476 34.0707 37.8595C33.9294 38.0714 33.8687 38.3267 33.8994 38.5793H38.4465L39.7089 38.2275L52.8091 34.5721C53.0813 34.4956 53.312 34.3145 53.4505 34.0684C53.589 33.8224 53.624 33.5316 53.5478 33.2598Z" fill="#CCCCCC"/>
<path d="M98.766 38.2271H13.6063C13.2791 38.2274 12.9653 38.3573 12.734 38.5881C12.5026 38.819 12.3724 39.132 12.3721 39.4584V89.7687C12.3724 90.0952 12.5026 90.4082 12.7339 90.6391C12.9653 90.8699 13.279 90.9998 13.6063 91.0001H98.766C99.0932 90.9997 99.4069 90.8699 99.6383 90.639C99.8696 90.4082 99.9998 90.0952 100 89.7687V39.4584C99.9998 39.132 99.8696 38.819 99.6383 38.5881C99.4069 38.3573 99.0932 38.2274 98.766 38.2271ZM99.6475 89.7687C99.6474 90.002 99.5545 90.2256 99.3892 90.3906C99.2239 90.5555 98.9997 90.6482 98.766 90.6483H13.6063C13.3725 90.6482 13.1483 90.5555 12.983 90.3906C12.8177 90.2256 12.7248 90.002 12.7247 89.7687V39.4584C12.7248 39.2252 12.8177 39.0015 12.983 38.8366C13.1483 38.6717 13.3725 38.579 13.6063 38.5789H98.766C98.9997 38.579 99.2239 38.6717 99.3892 38.8366C99.5545 39.0015 99.6474 39.2252 99.6475 39.4584V89.7687Z" fill="#3F3D56"/>
<path d="M21.8921 45.0881C21.4737 45.0881 21.0646 44.9643 20.7167 44.7323C20.3687 44.5004 20.0976 44.1707 19.9374 43.785C19.7773 43.3992 19.7354 42.9748 19.817 42.5653C19.8987 42.1558 20.1002 41.7797 20.3961 41.4845C20.692 41.1893 21.069 40.9882 21.4794 40.9068C21.8898 40.8253 22.3152 40.8671 22.7018 41.0269C23.0884 41.1867 23.4188 41.4572 23.6513 41.8044C23.8838 42.1515 24.0079 42.5596 24.0079 42.9771C24.0073 43.5368 23.7841 44.0733 23.3875 44.4691C22.9908 44.8648 22.4531 45.0874 21.8921 45.0881ZM21.8921 41.218C21.5434 41.218 21.2025 41.3212 20.9126 41.5145C20.6226 41.7078 20.3967 41.9825 20.2632 42.304C20.1298 42.6254 20.0948 42.9791 20.1629 43.3203C20.2309 43.6616 20.3988 43.975 20.6454 44.221C20.892 44.467 21.2061 44.6346 21.5482 44.7024C21.8902 44.7703 22.2447 44.7355 22.5669 44.6023C22.889 44.4692 23.1644 44.2437 23.3581 43.9544C23.5519 43.6652 23.6553 43.325 23.6553 42.9771C23.6547 42.5108 23.4688 42.0636 23.1383 41.7338C22.8077 41.4041 22.3596 41.2186 21.8921 41.218Z" fill="#DE2126"/>
<path d="M18.6038 42.977C18.6039 42.5743 18.7298 42.1817 18.9641 41.8538C19.1984 41.526 19.5293 41.2791 19.9108 41.1478C19.6187 41.0472 19.3067 41.0178 19.0009 41.0619C18.695 41.106 18.4042 41.2224 18.1525 41.4013C17.9009 41.5803 17.6958 41.8167 17.5542 42.0908C17.4127 42.3648 17.3389 42.6687 17.3389 42.977C17.3389 43.2853 17.4127 43.5892 17.5542 43.8633C17.6958 44.1373 17.9009 44.3737 18.1525 44.5527C18.4042 44.7316 18.695 44.848 19.0009 44.8921C19.3067 44.9362 19.6187 44.9068 19.9108 44.8062C19.5293 44.6749 19.1984 44.428 18.9641 44.1002C18.7298 43.7723 18.6039 43.3797 18.6038 42.977Z" fill="#DE2126"/>
<path d="M30.4687 67.9174C30.048 67.917 29.6446 67.75 29.3471 67.4532C29.0497 67.1564 28.8823 66.754 28.8818 66.3342V61.5847C28.8818 61.1648 29.049 60.7621 29.3466 60.4652C29.6442 60.1683 30.0478 60.0015 30.4687 60.0015C30.8895 60.0015 31.2931 60.1683 31.5907 60.4652C31.8883 60.7621 32.0555 61.1648 32.0555 61.5847V66.3342C32.055 66.754 31.8877 67.1564 31.5902 67.4532C31.2927 67.75 30.8894 67.917 30.4687 67.9174Z" fill="#DE2126"/>
<path d="M34.7001 67.9174C34.2794 67.917 33.8761 67.75 33.5786 67.4532C33.2811 67.1564 33.1138 66.754 33.1133 66.3342V61.5847C33.1133 61.1648 33.2805 60.7621 33.578 60.4652C33.8756 60.1683 34.2792 60.0015 34.7001 60.0015C35.121 60.0015 35.5246 60.1683 35.8222 60.4652C36.1197 60.7621 36.2869 61.1648 36.2869 61.5847V66.3342C36.2864 66.754 36.1191 67.1564 35.8216 67.4532C35.5241 67.75 35.1208 67.917 34.7001 67.9174Z" fill="#DE2126"/>
<path d="M38.9325 67.9174C38.5118 67.917 38.1085 67.75 37.811 67.4532C37.5135 67.1564 37.3462 66.754 37.3457 66.3342V61.5847C37.3457 61.1648 37.5129 60.7621 37.8105 60.4652C38.1081 60.1683 38.5117 60.0015 38.9325 60.0015C39.3534 60.0015 39.757 60.1683 40.0546 60.4652C40.3522 60.7621 40.5193 61.1648 40.5193 61.5847V66.3342C40.5189 66.754 40.3515 67.1564 40.054 67.4532C39.7566 67.75 39.3532 67.917 38.9325 67.9174Z" fill="#DE2126"/>
<path d="M45.456 67.9174C45.0353 67.917 44.6319 67.75 44.3344 67.4532C44.037 67.1564 43.8696 66.754 43.8691 66.3342V61.5847C43.8691 61.1648 44.0363 60.7621 44.3339 60.4652C44.6315 60.1683 45.0351 60.0015 45.456 60.0015C45.8768 60.0015 46.2804 60.1683 46.578 60.4652C46.8756 60.7621 47.0428 61.1648 47.0428 61.5847V66.3342C47.0423 66.754 46.875 67.1564 46.5775 67.4532C46.28 67.75 45.8767 67.917 45.456 67.9174Z" fill="#DE2126"/>
<path d="M49.6864 67.9174C49.2657 67.917 48.8624 67.75 48.5649 67.4532C48.2674 67.1564 48.1001 66.754 48.0996 66.3342V61.5847C48.0996 61.1648 48.2668 60.7621 48.5644 60.4652C48.862 60.1683 49.2656 60.0015 49.6864 60.0015C50.1073 60.0015 50.5109 60.1683 50.8085 60.4652C51.1061 60.7621 51.2733 61.1648 51.2733 61.5847V66.3342C51.2728 66.754 51.1054 67.1564 50.808 67.4532C50.5105 67.75 50.1071 67.917 49.6864 67.9174Z" fill="#DE2126"/>
<path d="M53.9189 67.9174C53.4981 67.917 53.0948 67.75 52.7973 67.4532C52.4999 67.1564 52.3325 66.754 52.332 66.3342V61.5847C52.332 61.1648 52.4992 60.7621 52.7968 60.4652C53.0944 60.1683 53.498 60.0015 53.9189 60.0015C54.3397 60.0015 54.7433 60.1683 55.0409 60.4652C55.3385 60.7621 55.5057 61.1648 55.5057 61.5847V66.3342C55.5052 66.754 55.3379 67.1564 55.0404 67.4532C54.7429 67.75 54.3396 67.917 53.9189 67.9174Z" fill="#DE2126"/>
<path d="M60.4423 67.9174C60.0216 67.917 59.6183 67.75 59.3208 67.4532C59.0233 67.1564 58.8559 66.754 58.8555 66.3342V61.5847C58.8555 61.1648 59.0227 60.7621 59.3202 60.4652C59.6178 60.1683 60.0214 60.0015 60.4423 60.0015C60.8631 60.0015 61.2668 60.1683 61.5643 60.4652C61.8619 60.7621 62.0291 61.1648 62.0291 61.5847V66.3342C62.0286 66.754 61.8613 67.1564 61.5638 67.4532C61.2663 67.75 60.863 67.917 60.4423 67.9174Z" fill="#DE2126"/>
<path d="M64.6737 67.9174C64.253 67.917 63.8497 67.75 63.5522 67.4532C63.2547 67.1564 63.0874 66.754 63.0869 66.3342V61.5847C63.0869 61.1648 63.2541 60.7621 63.5517 60.4652C63.8493 60.1683 64.2529 60.0015 64.6737 60.0015C65.0946 60.0015 65.4982 60.1683 65.7958 60.4652C66.0934 60.7621 66.2606 61.1648 66.2606 61.5847V66.3342C66.2601 66.754 66.0927 67.1564 65.7953 67.4532C65.4978 67.75 65.0944 67.917 64.6737 67.9174Z" fill="#DE2126"/>
<path d="M68.9052 67.9174C68.4845 67.917 68.0812 67.75 67.7837 67.4532C67.4862 67.1564 67.3188 66.754 67.3184 66.3342V61.5847C67.3184 61.1648 67.4855 60.7621 67.7831 60.4652C68.0807 60.1683 68.4843 60.0015 68.9052 60.0015C69.326 60.0015 69.7296 60.1683 70.0272 60.4652C70.3248 60.7621 70.492 61.1648 70.492 61.5847V66.3342C70.4915 66.754 70.3242 67.1564 70.0267 67.4532C69.7292 67.75 69.3259 67.917 68.9052 67.9174Z" fill="#DE2126"/>
<path d="M75.4286 67.9174C75.0079 67.917 74.6046 67.75 74.3071 67.4532C74.0096 67.1564 73.8423 66.754 73.8418 66.3342V61.5847C73.8418 61.1648 74.009 60.7621 74.3066 60.4652C74.6042 60.1683 75.0078 60.0015 75.4286 60.0015C75.8495 60.0015 76.2531 60.1683 76.5507 60.4652C76.8483 60.7621 77.0154 61.1648 77.0154 61.5847V66.3342C77.015 66.754 76.8476 67.1564 76.5501 67.4532C76.2527 67.75 75.8493 67.917 75.4286 67.9174Z" fill="#DE2126"/>
<path d="M79.6601 67.9174C79.2394 67.917 78.836 67.75 78.5386 67.4532C78.2411 67.1564 78.0737 66.754 78.0732 66.3342V61.5847C78.0732 61.1648 78.2404 60.7621 78.538 60.4652C78.8356 60.1683 79.2392 60.0015 79.6601 60.0015C80.0809 60.0015 80.4845 60.1683 80.7821 60.4652C81.0797 60.7621 81.2469 61.1648 81.2469 61.5847V66.3342C81.2464 66.754 81.0791 67.1564 80.7816 67.4532C80.4841 67.75 80.0808 67.917 79.6601 67.9174Z" fill="#DE2126"/>
<path d="M83.8915 67.9174C83.4708 67.917 83.0675 67.75 82.77 67.4532C82.4725 67.1564 82.3052 66.754 82.3047 66.3342V61.5847C82.3047 61.1648 82.4719 60.7621 82.7695 60.4652C83.067 60.1683 83.4707 60.0015 83.8915 60.0015C84.3124 60.0015 84.716 60.1683 85.0136 60.4652C85.3112 60.7621 85.4783 61.1648 85.4783 61.5847V66.3342C85.4779 66.754 85.3105 67.1564 85.013 67.4532C84.7156 67.75 84.3122 67.917 83.8915 67.9174Z" fill="#DE2126"/>
<path d="M41.2272 85.5377H18.4051C18.1223 85.5377 17.8511 85.4257 17.6512 85.2262C17.4512 85.0267 17.3389 84.7561 17.3389 84.4739C17.3389 84.1918 17.4512 83.9212 17.6512 83.7217C17.8511 83.5222 18.1223 83.4102 18.4051 83.4102H41.2272C41.51 83.4102 41.7812 83.5222 41.9812 83.7217C42.1811 83.9212 42.2935 84.1918 42.2935 84.4739C42.2935 84.7561 42.1811 85.0267 41.9812 85.2262C41.7812 85.4257 41.51 85.5377 41.2272 85.5377Z" fill="#E6E6E6"/>
<path d="M33.9096 80.964H25.7215C25.4387 80.964 25.1675 80.8519 24.9676 80.6524C24.7676 80.4529 24.6553 80.1824 24.6553 79.9002C24.6553 79.6181 24.7676 79.3475 24.9676 79.148C25.1675 78.9485 25.4387 78.8364 25.7215 78.8364H33.9096C34.1924 78.8364 34.4636 78.9485 34.6635 79.148C34.8635 79.3475 34.9758 79.6181 34.9758 79.9002C34.9758 80.1824 34.8635 80.4529 34.6635 80.6524C34.4636 80.8519 34.1924 80.964 33.9096 80.964Z" fill="#E6E6E6"/>
<path d="M99.5839 48.7432H12.6611V49.095H99.5839V48.7432Z" fill="#3F3D56"/>
</g>
<defs>
<clipPath id="clip0_401:3374">
<rect width="100" height="91" fill="white"/>
</clipPath>
</defs>
</svg>
