<svg width="111" height="89" viewBox="0 0 111 89" fill="none" xmlns="http://www.w3.org/2000/svg">
<path d="M63.2346 78.7361C62.467 77.6673 61.428 76.8852 60.1218 76.5925C58.9827 76.3373 57.8115 76.3808 56.6536 76.3897L42.0131 76.502C40.7593 76.5116 39.5571 77.5919 39.6153 78.8865C39.6731 80.1702 40.6691 81.2814 42.0131 81.2711C46.3018 81.2382 50.5904 81.2053 54.8791 81.1724C55.8901 81.1647 56.9018 81.1465 57.9129 81.1498C58.14 81.1506 58.3661 81.1625 58.5929 81.165C58.6479 81.1656 58.6875 81.1652 58.7156 81.164C58.7226 81.1661 58.7285 81.168 58.7377 81.1705C58.856 81.2029 58.9774 81.2251 59.0964 81.2558C59.0547 81.257 59.1736 81.3308 59.2333 81.3558C59.2415 81.3719 59.259 81.4004 59.2882 81.4445C59.329 81.5205 59.4497 81.7513 59.4546 81.7441C59.6359 82.1999 59.7855 82.6677 59.9022 83.1439C60.1809 84.1942 60.2421 84.4137 60.2822 85.3991C60.333 86.6439 61.3488 87.843 62.6801 87.7837C63.9357 87.7277 65.1322 86.7341 65.0779 85.3991C64.9863 83.1496 64.5892 80.6226 63.2346 78.7361Z" fill="#E6E6E6"/>
<path d="M42.8737 84.1172C42.5987 82.46 42.329 80.8017 42.0487 79.1455C41.7642 77.4652 41.1833 75.9266 39.8685 74.8238C39.5172 74.5292 39.1529 74.2541 38.7871 73.9799C38.6585 73.8835 38.53 73.787 38.4029 73.6884C38.3953 73.6825 38.3905 73.6788 38.3839 73.6737C38.3699 73.6618 38.3532 73.6476 38.3306 73.6286C37.7826 73.1674 37.2531 72.6856 36.7487 72.1736C36.3008 71.7188 35.8725 71.2446 35.4637 70.751C35.3615 70.6278 35.2607 70.5034 35.1612 70.3779C35.1441 70.3563 35.0519 70.2378 34.9911 70.1605C34.9346 70.0831 34.8314 69.9433 34.814 69.9189C34.6978 69.7554 34.5836 69.5904 34.4714 69.4238C33.7077 68.2859 33.0464 67.0833 32.4952 65.8298C32.4405 65.7055 32.3872 65.5804 32.3351 65.4547C32.3211 65.4163 32.303 65.367 32.279 65.3013C32.168 64.9976 32.0571 64.6941 31.9555 64.3868C31.7397 63.7339 31.5542 63.0714 31.399 62.3992C31.3222 62.0673 31.2531 61.7337 31.1916 61.3984C31.16 61.226 31.1303 61.0533 31.1027 60.8801C31.0982 60.8514 31.0713 60.6646 31.0554 60.5591C31.0437 60.453 31.0219 60.2652 31.019 60.2362C31.0014 60.0617 30.9858 59.887 30.9722 59.7122C30.9415 59.3187 30.9208 58.9246 30.91 58.5298C30.8916 57.8282 30.9042 57.1267 30.9479 56.4252C30.9728 56.031 31.0082 55.6379 31.0518 55.2455C31.0545 55.2214 31.0565 55.2022 31.0584 55.1849C31.061 55.1674 31.0641 55.1475 31.0678 55.1227C31.1 54.9059 31.134 54.6894 31.172 54.4735C31.3158 53.6539 31.5028 52.8423 31.7323 52.0422C31.841 51.6638 31.959 51.2885 32.0864 50.9162C32.1432 50.7509 32.2018 50.5863 32.2622 50.4223C32.2583 50.4329 32.4394 49.9729 32.4418 49.9574C33.1604 48.269 34.3357 46.7298 34.3373 44.8118C34.3384 43.5132 33.2337 42.2692 31.9395 42.3292C31.2943 42.3534 30.6836 42.6257 30.2363 43.0888C29.789 43.5519 29.54 44.1696 29.5417 44.8118C29.5417 44.8409 29.5415 44.8658 29.5415 44.89C29.5294 44.9304 29.5193 44.9641 29.5102 44.9939C29.3701 45.2968 29.1984 45.5846 29.0446 45.8799C28.6234 46.6882 28.2639 47.523 27.9224 48.37C27.3633 49.7494 26.9354 51.1779 26.6442 52.6366C26.0112 55.8329 25.9621 59.1163 26.4991 62.3299C27.4288 67.9653 30.4947 73.3598 34.757 76.9859C35.127 77.3006 35.5059 77.6046 35.8883 77.9026C36.0466 78.0259 36.2062 78.1469 36.3666 78.2671C36.4424 78.3239 36.7565 78.5702 36.6183 78.4509C36.9154 78.703 37.0405 78.8299 37.1168 79.0157C37.1279 79.0585 37.1429 79.1166 37.1633 79.1961C37.2171 79.4056 37.2682 79.6145 37.3107 79.8269C37.6817 81.6826 37.9395 83.5694 38.2494 85.4371C38.4624 86.7204 40.0511 87.5556 41.199 87.171C42.5352 86.7233 43.102 85.4923 42.8737 84.1172Z" fill="#E6E6E6"/>
<path d="M63.4777 88.9303C62.4706 88.9329 61.5037 88.5382 60.789 87.8327C60.0742 87.1272 59.6701 86.1686 59.6651 85.1672V82.4471C56.8014 82.7659 46.9952 82.692 44.1843 82.2429V85.0584C44.1768 86.059 43.7718 87.0161 43.0576 87.7211C42.3434 88.426 41.378 88.8216 40.3718 88.8216C39.3655 88.8216 38.4001 88.426 37.6859 87.7211C36.9718 87.0161 36.5668 86.059 36.5592 85.0584V79.5304C32.752 77.4271 29.5782 74.3515 27.3653 70.6212C25.1524 66.8908 23.9805 62.6407 23.9707 58.3096C23.9707 50.8832 27.3551 43.9554 33.256 39.3026C37.0928 36.2672 41.7544 34.4417 46.6422 34.0606C47.3056 34.0088 47.9731 33.9826 48.6262 33.9826C50.9269 33.9826 61.3074 34.3361 63.9119 35.0812L69.8507 29.2209C69.938 29.1336 70.0495 29.0741 70.1709 29.05C70.2924 29.026 70.4183 29.0384 70.5326 29.0858C70.6477 29.1314 70.7464 29.2105 70.8155 29.3128C70.8846 29.4151 70.921 29.5358 70.9199 29.6591V30.5908L72.0763 29.4519C72.1634 29.3645 72.2748 29.3049 72.3962 29.2808C72.5175 29.2567 72.6434 29.2691 72.7576 29.3165C72.8729 29.3621 72.9716 29.4412 73.0408 29.5436C73.11 29.6459 73.1465 29.7667 73.1454 29.8901V40.3023C76.1254 42.974 78.3966 46.3355 79.7579 50.0888C81.1191 53.8421 81.5284 57.8715 80.9493 61.8197C80.3702 65.7679 78.8207 69.5131 76.4381 72.7234C74.0555 75.9337 70.9134 78.5099 67.2902 80.2238V85.1672C67.2852 86.1686 66.8811 87.1272 66.1663 87.8327C65.4516 88.5382 64.4847 88.9329 63.4777 88.9303ZM59.9649 82.1091V85.1672C59.9724 86.0888 60.3459 86.97 61.0038 87.619C61.6618 88.268 62.5509 88.6322 63.4776 88.6322C64.4044 88.6322 65.2935 88.268 65.9515 87.619C66.6095 86.97 66.9829 86.0888 66.9904 85.1672V80.0355L67.076 79.9951C71.1414 78.0766 74.5927 75.0752 77.0465 71.324C80.1734 66.5373 81.4738 60.7954 80.7124 55.1377C79.9509 49.48 77.178 44.2803 72.8954 40.4798L72.8456 40.4353V29.89C72.8467 29.826 72.828 29.7631 72.7921 29.7099C72.7561 29.6568 72.7046 29.6158 72.6446 29.5926C72.5849 29.5672 72.5188 29.5604 72.4551 29.573C72.3915 29.5856 72.3331 29.617 72.2877 29.6631L70.6201 31.3056V29.6591C70.6212 29.595 70.6025 29.5321 70.5666 29.479C70.5306 29.4258 70.4791 29.3848 70.4191 29.3617C70.3592 29.3363 70.2931 29.3295 70.2293 29.3422C70.1655 29.3549 70.1071 29.3864 70.0616 29.4327L63.9957 35.4185L63.9095 35.3916C61.4883 34.638 50.9444 34.2807 48.6262 34.2807C47.9809 34.2807 47.3213 34.3066 46.6657 34.3577C41.8374 34.7342 37.2324 36.5375 33.4423 39.5361C27.6134 44.1321 24.2704 50.9747 24.2704 58.3096C24.2804 62.6024 25.446 66.8142 27.6461 70.5076C29.8462 74.201 33.0006 77.2412 36.7816 79.3123L36.8589 79.3549V85.0584C36.8667 85.9799 37.2402 86.861 37.8981 87.5099C38.5561 88.1587 39.4451 88.5228 40.3718 88.5228C41.2984 88.5228 42.1875 88.1587 42.8454 87.5099C43.5033 86.861 43.8769 85.9799 43.8846 85.0584V81.8861L44.0621 81.9193C46.5882 82.3919 57.2249 82.4664 59.7955 82.1311L59.9649 82.1091Z" fill="#3F3D56"/>
<path d="M43.1603 17.7526L26.5644 22.7125C26.0366 22.8709 25.5935 23.2312 25.3326 23.7142C25.0717 24.1973 25.0143 24.7635 25.173 25.2887C25.3317 25.8138 25.6934 26.2548 26.1789 26.5148C26.6643 26.7748 27.2337 26.8326 27.7619 26.6753L42.2851 22.334L42.5893 22.243C42.6509 20.6839 43.0762 19.1604 43.8317 17.7929C43.7369 17.7504 43.6356 17.7242 43.532 17.7154C43.4068 17.7033 43.2805 17.716 43.1603 17.7526Z" fill="#DE2126"/>
<path d="M27.4745 27.7328C27.2542 27.7322 27.0396 27.6629 26.8611 27.5345C26.6826 27.4061 26.5492 27.2251 26.4797 27.0172L25.4419 23.903C25.3986 23.7729 25.3814 23.6357 25.3914 23.499C25.4014 23.3624 25.4384 23.229 25.5003 23.1066C25.5621 22.9841 25.6476 22.875 25.7518 22.7854C25.8561 22.6959 25.977 22.6276 26.1078 22.5845L39.6152 18.1328C39.7459 18.0897 39.884 18.0726 40.0214 18.0826C40.1588 18.0925 40.2928 18.1293 40.4159 18.1907C40.5391 18.2522 40.6488 18.3372 40.7389 18.4409C40.829 18.5445 40.8976 18.6648 40.941 18.7948L41.9787 21.9091C42.0651 22.1652 42.0478 22.4447 41.9305 22.6884C41.8132 22.932 41.6051 23.1207 41.3503 23.2145C41.3379 23.2192 41.3253 23.2235 41.3126 23.2277L27.8055 27.6792C27.6988 27.7146 27.587 27.7327 27.4745 27.7328Z" fill="#2F2E41"/>
<path d="M52.7707 12.2219C50.0445 12.223 47.4257 13.2789 45.4686 15.1662C43.5115 17.0536 42.3696 19.6242 42.2847 22.3339C42.2817 22.4398 42.2803 22.5471 42.2803 22.6544C42.2803 24.7177 42.8955 26.7347 44.0482 28.4503C45.2009 30.1659 46.8393 31.5031 48.7562 32.2927C50.6731 33.0823 52.7824 33.2889 54.8173 32.8864C56.8522 32.4838 58.7215 31.4902 60.1886 30.0312C61.6557 28.5722 62.6548 26.7133 63.0596 24.6896C63.4643 22.6659 63.2566 20.5683 62.4626 18.662C61.6686 16.7558 60.324 15.1264 58.5989 13.9801C56.8737 12.8338 54.8455 12.2219 52.7707 12.2219ZM52.7707 32.7887C50.0688 32.7859 47.4784 31.7173 45.5679 29.8174C43.6574 27.9174 42.5828 25.3413 42.58 22.6544C42.58 22.5158 42.583 22.3787 42.589 22.243C42.6701 20.2579 43.3363 18.3402 44.5046 16.7285C45.6729 15.1168 47.2918 13.8822 49.16 13.1782C51.0282 12.4741 53.0634 12.3318 55.0123 12.7687C56.9612 13.2057 58.738 14.2028 60.1217 15.6359C61.5054 17.0691 62.4349 18.8751 62.7948 20.8294C63.1546 22.7838 62.9288 24.8002 62.1455 26.6279C61.3622 28.4557 60.056 30.0141 58.3892 31.1095C56.7224 32.2048 54.7686 32.7888 52.7707 32.7887Z" fill="#3F3D56"/>
<path d="M61.6126 22.6544C61.6126 24.9864 60.681 27.223 59.0228 28.872C57.3647 30.521 55.1157 31.4474 52.7706 31.4474C50.4256 31.4474 48.1766 30.521 46.5185 28.872C44.8603 27.223 43.9287 24.9864 43.9287 22.6544C43.9287 22.3757 43.9422 22.1014 43.9676 21.8302C44.1807 19.5795 45.2573 17.4969 46.9738 16.0148C48.6902 14.5327 50.9148 13.765 53.1855 13.871C55.4562 13.9771 57.5986 14.9488 59.1678 16.5844C60.7371 18.2199 61.6126 20.3937 61.6126 22.6544Z" fill="#E6E6E6"/>
<path d="M55.404 23.2385C55.1897 22.9583 54.9078 22.7363 54.5843 22.5932C54.1854 22.426 53.7734 22.2914 53.3524 22.1908V19.7973C53.9995 19.8943 54.6063 20.1695 55.1043 20.5916L55.5929 19.5558C55.3119 19.3069 54.9893 19.1087 54.6397 18.9701C54.2522 18.8141 53.8455 18.7103 53.4304 18.6616V17.4485H52.2989V18.6736C51.862 18.7224 51.4405 18.8631 51.0625 19.0864C50.7211 19.2874 50.4336 19.5676 50.2248 19.9031C50.0254 20.2305 49.9222 20.6068 49.9266 20.9896C49.9071 21.4043 50.0279 21.8136 50.2698 22.152C50.4923 22.4451 50.7863 22.6769 51.1239 22.8257C51.5293 22.9978 51.9483 23.1359 52.3768 23.2385V25.5322C51.6133 25.4749 50.8857 25.1862 50.2922 24.705L49.8037 25.7423C50.1356 26.0151 50.5129 26.228 50.9187 26.3712C51.3633 26.5294 51.8278 26.6257 52.2989 26.6574V27.8601H53.4304V26.635C54.0588 26.5667 54.6482 26.298 55.1103 25.869C55.3138 25.6749 55.4746 25.4408 55.5824 25.1817C55.6903 24.9226 55.7428 24.6441 55.7368 24.3637C55.7556 23.9622 55.6384 23.566 55.404 23.2385ZM52.3768 21.9374C52.1012 21.8543 51.845 21.7175 51.623 21.535C51.5351 21.4572 51.4655 21.361 51.4194 21.2533C51.3733 21.1456 51.3517 21.029 51.3563 20.9121C51.3481 20.6466 51.4462 20.3888 51.629 20.1952C51.8317 19.9921 52.0932 19.8571 52.3768 19.8092V21.9374ZM54.0628 25.1089C53.8716 25.3039 53.6227 25.4329 53.3524 25.477V23.5038C53.6107 23.5727 53.8524 23.6928 54.0628 23.857C54.1426 23.9247 54.206 24.0095 54.2482 24.105C54.2905 24.2004 54.3106 24.3042 54.3071 24.4084C54.3175 24.6642 54.2302 24.9144 54.0628 25.1089Z" fill="#DE2126"/>
<path d="M27.9567 40.3545C27.725 40.3541 27.4999 40.2777 27.3164 40.1372C27.1328 39.9967 27.001 39.7998 26.9414 39.5772L26.3763 37.4504C26.3056 37.1831 26.3444 36.8988 26.4842 36.6599C26.6239 36.421 26.8533 36.247 27.1219 36.176L44.9468 31.4919C45.2158 31.4221 45.5016 31.4611 45.7417 31.6003C45.9819 31.7395 46.1568 31.9677 46.2283 32.2349L46.7069 34.0367L46.6172 34.0436C42.0457 34.3971 37.6717 36.0454 34.0126 38.7935L33.9866 38.806L28.2228 40.3202C28.136 40.343 28.0465 40.3545 27.9567 40.3545Z" fill="#2F2E41"/>
<path d="M25.0045 50.8595C22.9135 50.5523 20.9138 49.8003 19.1415 48.6549C18.2635 48.0879 17.4506 47.4268 16.7176 46.6835C15.9941 45.9496 15.3019 45.1154 14.9436 44.1381C14.5988 43.2338 14.6165 42.2324 14.9932 41.3408C15.3647 40.4546 16.0744 39.7512 16.9667 39.3846C17.8643 39.0286 18.9488 38.9905 19.8224 39.3804C20.2387 39.5619 20.5989 39.8502 20.8661 40.2159C20.9903 40.3844 21.0823 40.5743 21.1374 40.776C21.1886 40.9587 21.1932 41.1512 21.151 41.3362C21.0997 41.5209 21.0094 41.6925 20.886 41.8396C20.7626 41.9867 20.609 42.1059 20.4355 42.1891C20.0537 42.3839 19.64 42.5094 19.2138 42.5597C18.7852 42.6178 18.1695 42.6707 17.8249 42.3285C17.754 42.2608 17.6982 42.179 17.6611 42.0884C17.6352 42.0191 17.6264 41.9446 17.6353 41.8711C17.6303 41.9035 17.6561 41.8007 17.6546 41.8048C17.6492 41.82 17.6256 41.8571 17.6591 41.8002C17.6696 41.7814 17.6813 41.7634 17.6941 41.7461C17.6827 41.7607 17.6577 41.7852 17.7023 41.7432C17.7392 41.7031 17.7867 41.6739 17.8393 41.6591C17.8601 41.6531 17.8811 41.6483 17.9019 41.6427C17.9548 41.6283 17.8492 41.6435 17.9033 41.6417C17.9242 41.6411 17.9453 41.6416 17.9661 41.6406C18.0192 41.6383 17.9138 41.6263 17.9646 41.639C17.9844 41.6439 18.0039 41.6487 18.0234 41.6548C18.0656 41.6681 17.9934 41.624 18.0221 41.657C18.0556 41.6956 17.9868 41.6194 18.025 41.6568C18.044 41.6753 18.0619 41.695 18.0786 41.7156C18.1448 41.7805 18.234 41.817 18.327 41.817C18.42 41.817 18.5092 41.7805 18.5754 41.7156C18.6393 41.649 18.675 41.5606 18.675 41.4685C18.675 41.3765 18.6393 41.288 18.5754 41.2215C18.229 40.7945 17.5448 40.9 17.1944 41.2609C16.7475 41.7212 16.9244 42.4507 17.3591 42.8523C17.8512 43.307 18.5482 43.3386 19.1812 43.2623C19.7162 43.2114 20.2375 43.0648 20.7202 42.8298C21.1998 42.5955 21.5749 42.1925 21.7728 41.6989C21.8622 41.4355 21.8943 41.1562 21.867 40.8795C21.8397 40.6029 21.7537 40.3351 21.6145 40.094C21.0556 39.0491 19.8984 38.5133 18.7545 38.4206C18.1655 38.3747 17.5733 38.4454 17.012 38.6286C16.4508 38.8119 15.9316 39.104 15.4846 39.4881C14.6231 40.2594 14.0925 41.3305 14.0028 42.4799C13.9029 43.6716 14.3678 44.8289 15.0457 45.7907C15.7553 46.7678 16.6021 47.6387 17.5603 48.3769C19.4335 49.8641 21.6308 50.8947 23.9762 51.386C24.2552 51.4433 24.5357 51.4924 24.8177 51.5332C24.9074 51.5548 25.0021 51.5416 25.0823 51.4963C25.1626 51.451 25.2225 51.3769 25.2498 51.2892C25.2739 51.1999 25.2617 51.1047 25.2157 51.0243C25.1698 50.9439 25.0939 50.8847 25.0045 50.8595L25.0045 50.8595Z" fill="#3F3D56"/>
<path d="M58.4813 35.6763C55.4178 35.6333 52.3639 35.7106 49.3197 35.9083C48.2792 35.9758 47.3789 36.3416 47.3789 36.9563C47.3789 37.4702 48.272 38.0723 49.3197 38.0043C52.3624 37.8067 55.4163 37.7294 58.4813 37.7723C60.9801 37.8074 60.9787 35.7114 58.4813 35.6763Z" fill="#CCCCCC"/>
<path d="M53.9532 37.6686C53.6221 37.6686 45.8447 37.6563 45.8447 36.5879C45.8447 35.5196 53.6221 35.5073 53.9532 35.5073C54.2843 35.5073 62.0616 35.5196 62.0616 36.5879C62.0616 37.6563 54.2843 37.6686 53.9532 37.6686ZM46.1488 36.5879C46.3617 36.9118 49.2205 37.3705 53.9532 37.3705C58.6859 37.3705 61.5447 36.9118 61.7575 36.5879C61.5447 36.2641 58.6859 35.8054 53.9532 35.8054C49.2205 35.8054 46.3617 36.2641 46.1488 36.5879V36.5879Z" fill="#3F3D56"/>
<path d="M78.6296 65.7543C80.3513 65.7067 82.494 65.6473 84.1447 64.4481C84.6362 64.0764 85.0401 63.6023 85.328 63.059C85.6159 62.5157 85.7808 61.9163 85.8113 61.303C85.8449 60.3559 85.5009 59.5292 84.8424 58.9759C83.9802 58.2514 82.7212 58.0815 81.3645 58.478L82.7702 48.2619L81.7383 48.1213L80.0857 60.1316L80.9474 59.7384C81.9465 59.2827 83.3179 59.0508 84.1701 59.7669C84.3793 59.9542 84.5424 60.1869 84.6465 60.447C84.7506 60.7071 84.793 60.9875 84.7704 61.2665C84.7451 61.7231 84.6213 62.1688 84.4073 62.5734C84.1933 62.9781 83.8942 63.3322 83.5303 63.6116C82.2457 64.5447 80.5377 64.6651 78.6006 64.7189L78.6296 65.7543Z" fill="#3F3D56"/>
<path d="M75.7757 49.1431H70.166V50.1789H75.7757V49.1431Z" fill="#3F3D56"/>
<path d="M30.495 45.1185C30.2453 45.1177 30.0041 45.0285 29.8145 44.8669C29.6249 44.7053 29.4994 44.4818 29.4604 44.2365L29.118 42.0634C29.0752 41.7901 29.1432 41.511 29.3071 41.2875C29.4709 41.064 29.7172 40.9143 29.992 40.8712L48.2051 38.0332C48.4799 37.9907 48.7605 38.0583 48.9852 38.2212C49.2099 38.3842 49.3605 38.6291 49.4038 38.9023L49.7462 41.0756C49.789 41.3489 49.721 41.6279 49.5572 41.8514C49.3933 42.0749 49.147 42.2247 48.8722 42.2678L30.6592 45.1057C30.6049 45.1142 30.55 45.1184 30.495 45.1185Z" fill="#2F2E41"/>
<path d="M22.9575 19.651C27.1786 19.651 30.6005 16.248 30.6005 12.0502C30.6005 7.85245 27.1786 4.44946 22.9575 4.44946C18.7364 4.44946 15.3145 7.85245 15.3145 12.0502C15.3145 16.248 18.7364 19.651 22.9575 19.651Z" fill="#DE2126"/>
<path d="M27.2853 14.0168C27.5296 13.9318 27.7527 13.7958 27.9398 13.6179C28.0635 13.4911 28.1579 13.3389 28.2162 13.172C28.2746 13.0051 28.2956 12.8276 28.2777 12.6518C28.2673 12.5264 28.2279 12.4052 28.1626 12.2976C28.0973 12.1899 28.0078 12.0987 27.9012 12.0312C27.6246 11.862 27.2591 11.8684 26.8901 12.0385L26.8475 9.07153L26.5478 9.07577L26.5979 12.5638L26.826 12.415C27.0906 12.2427 27.4707 12.1178 27.7442 12.2851C27.8118 12.3294 27.8683 12.3886 27.9091 12.4581C27.95 12.5276 27.9742 12.6056 27.9799 12.6859C27.9925 12.8169 27.9766 12.949 27.9332 13.0733C27.8899 13.1976 27.8201 13.3112 27.7287 13.4063C27.4038 13.7269 26.9229 13.8343 26.374 13.9325L26.4271 14.2259C26.7189 14.1818 27.0061 14.1118 27.2853 14.0168Z" fill="#2F2E41"/>
<path d="M29.933 8.86338L28.3369 9.10376L28.3818 9.39844L29.9779 9.15805L29.933 8.86338Z" fill="#2F2E41"/>
<path d="M24.8949 9.62193L23.2988 9.8623L23.3437 10.157L24.9398 9.9166L24.8949 9.62193Z" fill="#2F2E41"/>
<path d="M28.0086 44.9855C27.7338 44.9849 27.4656 44.9011 27.2398 44.7452C27.014 44.5893 26.8413 44.3688 26.7446 44.1129L21.475 30.0784C20.8309 28.3572 20.8997 26.4521 21.6662 24.7813C22.4328 23.1104 23.8345 21.8101 25.5639 21.1658L29.8487 19.5746C30.0144 19.5127 30.1908 19.484 30.3677 19.4901C30.5446 19.4962 30.7185 19.537 30.8795 19.6102C31.04 19.6816 31.1847 19.784 31.305 19.9116C31.4253 20.0392 31.5189 20.1894 31.5801 20.3533L41.3417 38.6822C41.4051 38.8475 41.435 39.0236 41.4296 39.2004C41.4243 39.3772 41.3839 39.5512 41.3107 39.7124C41.2374 39.8736 41.1329 40.0188 41.003 40.1397C40.8732 40.2606 40.7205 40.3547 40.5539 40.4167L28.48 44.9003C28.3293 44.9565 28.1696 44.9853 28.0086 44.9855Z" fill="#2F2E41"/>
<path d="M28.5488 20.0575L38.2343 32.938L31.6806 20.1927C31.6265 20.044 31.5434 19.9073 31.4362 19.7905C31.3289 19.6738 31.1996 19.5791 31.0556 19.5121C30.9115 19.445 30.7556 19.4068 30.5968 19.3997C30.4379 19.3925 30.2792 19.4166 30.1296 19.4705L28.5488 20.0575Z" fill="#E6E6E6"/>
<path d="M43.8844 29.8395L26.5909 28.7317C26.3183 28.7142 26.0518 28.6435 25.8067 28.5236C25.5616 28.4038 25.3426 28.2371 25.1623 28.033C24.9819 27.829 24.8438 27.5917 24.7557 27.3345C24.6676 27.0774 24.6313 26.8055 24.6488 26.5344C24.6664 26.2634 24.7375 25.9984 24.858 25.7546C24.9785 25.5108 25.1462 25.2931 25.3513 25.1137C25.5565 24.9344 25.7952 24.797 26.0537 24.7094C26.3123 24.6218 26.5857 24.5857 26.8582 24.6032L44.1518 25.7109C44.2794 25.719 44.4042 25.7521 44.519 25.8083C44.6338 25.8644 44.7364 25.9425 44.8208 26.038C44.9053 26.1336 44.97 26.2447 45.0112 26.3651C45.0525 26.4856 45.0695 26.6129 45.0613 26.7398L44.9191 28.935C44.9025 29.1914 44.7841 29.4307 44.5901 29.6003C44.396 29.7699 44.1422 29.856 43.8844 29.8395Z" fill="#DE2126"/>
<path d="M39.2635 30.5497C39.2407 30.5497 39.2178 30.549 39.1948 30.5475H39.1948L24.9943 29.6379C24.8568 29.6291 24.7225 29.5934 24.5988 29.533C24.4752 29.4725 24.3648 29.3885 24.2738 29.2856C24.1828 29.1827 24.1132 29.063 24.0687 28.9333C24.0243 28.8036 24.006 28.6665 24.0149 28.5298L24.2577 24.7803C24.2666 24.6436 24.3024 24.51 24.3632 24.387C24.424 24.2641 24.5086 24.1543 24.612 24.0638C24.7155 23.9734 24.8359 23.9041 24.9663 23.8599C25.0967 23.8157 25.2346 23.7975 25.3721 23.8064L39.5725 24.7159C39.85 24.734 40.109 24.8608 40.2926 25.0686C40.4762 25.2763 40.5695 25.548 40.5519 25.824L40.3091 29.5735C40.2957 29.7744 40.2243 29.9672 40.1035 30.1288C39.9826 30.2903 39.8175 30.4138 39.6278 30.4843C39.5113 30.5276 39.3879 30.5498 39.2635 30.5497Z" fill="#2F2E41"/>
<path d="M22.8693 6.99577C23.8748 6.1358 25.2556 6.9051 26.4086 6.77043C27.5118 6.64159 28.3829 5.65751 28.6054 4.61205C28.865 3.39235 28.2284 2.17038 27.2901 1.40992C26.2624 0.577028 24.8995 0.337924 23.6079 0.492016C22.1276 0.668622 20.7738 1.35483 19.5591 2.18484C18.3865 2.96118 17.3082 3.86983 16.3457 4.89268C15.4839 5.8393 14.7536 6.96765 14.5204 8.24146C14.3085 9.39909 14.4703 10.6819 15.1585 11.6626C15.5234 12.1652 16.0124 12.5659 16.5783 12.8258C17.1684 13.114 17.7978 13.32 18.3695 13.6458C19.2339 14.1384 20.074 15.1598 19.8032 16.2227C19.7452 16.4549 19.6306 16.6694 19.4696 16.8472C19.2762 17.0607 18.9273 16.7786 19.1212 16.5645C19.4619 16.1884 19.4484 15.687 19.2669 15.238C19.0511 14.7321 18.6688 14.3142 18.1829 14.0526C17.5845 13.7123 16.9238 13.5023 16.3105 13.1924C15.7234 12.9093 15.2139 12.4893 14.8251 11.9682C14.0911 10.9538 13.8715 9.63348 14.038 8.41211C14.2181 7.09041 14.901 5.88937 15.757 4.8829C16.6886 3.78757 17.8329 2.86041 19.0019 2.02748C20.2563 1.13374 21.6421 0.378145 23.1756 0.104858C24.5049 -0.132039 25.9458 0.0138097 27.1082 0.734223C28.1933 1.40668 29.0253 2.56344 29.1081 3.85601C29.1378 4.44413 29.0094 5.0295 28.7361 5.55187C28.4628 6.07424 28.0544 6.51476 27.5531 6.82808C27.0386 7.13423 26.4405 7.27202 25.8431 7.22203C25.2045 7.18137 24.5652 6.98688 23.9225 7.04088C23.6316 7.05844 23.3544 7.1698 23.133 7.3581C22.9133 7.54599 22.6515 7.18213 22.8693 6.99578V6.99577Z" fill="#2F2E41"/>
</svg>
