<svg width="149" height="98" viewBox="0 0 149 98" fill="none" xmlns="http://www.w3.org/2000/svg">
<g clip-path="url(#clip0_500_3657)">
<path d="M6.57855 90.2728C7.2071 90.4944 7.88196 90.5499 8.53811 90.434C9.19426 90.3181 9.80958 90.0346 10.3248 89.611C11.6369 88.5063 12.0484 86.6871 12.383 85.0021L13.3731 80.0181L11.3003 81.4495C9.80957 82.479 8.28534 83.5415 7.25326 85.0326C6.22118 86.5236 5.77092 88.5592 6.59992 90.1727" fill="#E6E6E6"/>
<path d="M6.89901 96.6537C6.63811 94.7473 6.36969 92.8163 6.55313 90.8895C6.71569 89.1783 7.23624 87.5072 8.296 86.1365C8.85851 85.4104 9.54299 84.7883 10.3187 84.2981C10.5209 84.1701 10.707 84.4915 10.5057 84.619C9.16353 85.4697 8.12541 86.7259 7.54099 88.2065C6.89555 89.8529 6.79191 91.6478 6.90309 93.3968C6.97029 94.4545 7.11309 95.5052 7.2565 96.5547C7.26783 96.6022 7.26076 96.6522 7.23673 96.6946C7.21269 96.737 7.17349 96.7687 7.12705 96.7833C7.07967 96.7961 7.02917 96.7896 6.9865 96.7653C6.94383 96.741 6.91244 96.7008 6.89914 96.6535L6.89901 96.6537Z" fill="#F2F2F2"/>
<path d="M8.77686 93.595C9.04639 94.006 9.41692 94.3405 9.85276 94.5662C10.2886 94.7919 10.775 94.9012 11.2652 94.8835C12.5252 94.8236 13.5752 93.9419 14.5203 93.1047L17.3164 90.6286L15.4659 90.5398C14.1352 90.4759 12.77 90.4159 11.5025 90.828C10.235 91.24 9.06604 92.2302 8.8343 93.5461" fill="#E6E6E6"/>
<path d="M6.16109 97.7496C7.41713 95.5206 8.87391 93.0433 11.4772 92.2515C12.2009 92.0321 12.9598 91.9535 13.713 92.0199C13.9504 92.0405 13.8912 92.4075 13.6542 92.387C12.3917 92.2819 11.1315 92.6163 10.086 93.3339C9.07984 94.0207 8.29641 94.9757 7.63344 95.9883C7.22727 96.6086 6.86348 97.2552 6.49969 97.901C6.38344 98.1074 6.04349 97.9583 6.16109 97.7496Z" fill="#F2F2F2"/>
<path d="M93.822 50.6924H38.708V97.7743H93.822V50.6924Z" fill="white"/>
<path d="M93.9823 97.935H38.5479V50.5317H93.9823V97.935ZM38.8683 97.6136H93.6618V50.8531H38.8683V97.6136Z" fill="#3F3D56"/>
<path d="M73.1545 59.8516H59.376V97.7742H73.1545V59.8516Z" fill="#DE2126"/>
<path d="M73.1545 59.8516H59.376V97.7742H73.1545V59.8516Z" fill="#DE2126"/>
<path opacity="0.2" d="M38.8687 54.147V61.7858L93.8224 65.3149L93.6605 55.8892L38.8687 54.147Z" fill="black"/>
<path d="M97.0265 46.3535H35.5039V59.8514H97.0265V46.3535Z" fill="white"/>
<path d="M97.1868 60.0121H35.3438V46.1929H97.1868V60.0121ZM35.6642 59.6908H96.8663V46.5142H35.6642V59.6908Z" fill="#3F3D56"/>
<path d="M73.1545 45.0684H59.376V59.691H73.1545V45.0684Z" fill="#DE2126"/>
<path d="M64.7902 32.3184C68.4273 37.7258 65.0004 46.4229 65.0004 46.4229C65.0004 46.4229 55.6767 46.3528 52.0396 40.9454C48.4025 35.5379 51.8293 26.8408 51.8293 26.8408C51.8293 26.8408 61.1531 26.9109 64.7902 32.3184Z" fill="#DE2126"/>
<path d="M66.4585 32.3184C62.8214 37.7258 66.2482 46.4229 66.2482 46.4229C66.2482 46.4229 75.572 46.3528 79.2091 40.9454C82.8462 35.5379 79.4194 26.8408 79.4194 26.8408C79.4194 26.8408 70.0956 26.9109 66.4585 32.3184Z" fill="#DE2126"/>
<path d="M56.6524 36.3909C57.4488 36.3909 58.0943 35.7434 58.0943 34.9447C58.0943 34.146 57.4488 33.4985 56.6524 33.4985C55.856 33.4985 55.2104 34.146 55.2104 34.9447C55.2104 35.7434 55.856 36.3909 56.6524 36.3909Z" fill="#3F3D56"/>
<path d="M65.3038 51.0135C66.1001 51.0135 66.7457 50.366 66.7457 49.5673C66.7457 48.7686 66.1001 48.1211 65.3038 48.1211C64.5074 48.1211 63.8618 48.7686 63.8618 49.5673C63.8618 50.366 64.5074 51.0135 65.3038 51.0135Z" fill="#3F3D56"/>
<path d="M65.3038 82.6693C66.1001 82.6693 66.7457 82.0218 66.7457 81.2231C66.7457 80.4243 66.1001 79.7769 65.3038 79.7769C64.5074 79.7769 63.8618 80.4243 63.8618 81.2231C63.8618 82.0218 64.5074 82.6693 65.3038 82.6693Z" fill="#3F3D56"/>
<path d="M60.4974 41.2115C61.0283 41.2115 61.4587 40.7798 61.4587 40.2473C61.4587 39.7149 61.0283 39.2832 60.4974 39.2832C59.9665 39.2832 59.5361 39.7149 59.5361 40.2473C59.5361 40.7798 59.9665 41.2115 60.4974 41.2115Z" fill="#3F3D56"/>
<path d="M74.9169 33.0167C75.4478 33.0167 75.8782 32.585 75.8782 32.0525C75.8782 31.52 75.4478 31.0884 74.9169 31.0884C74.386 31.0884 73.9556 31.52 73.9556 32.0525C73.9556 32.585 74.386 33.0167 74.9169 33.0167Z" fill="#3F3D56"/>
<path d="M68.6683 55.6739C69.1992 55.6739 69.6296 55.2422 69.6296 54.7097C69.6296 54.1773 69.1992 53.7456 68.6683 53.7456C68.1374 53.7456 67.707 54.1773 67.707 54.7097C67.707 55.2422 68.1374 55.6739 68.6683 55.6739Z" fill="#3F3D56"/>
<path d="M62.9007 68.2076C63.4316 68.2076 63.862 67.7759 63.862 67.2434C63.862 66.711 63.4316 66.2793 62.9007 66.2793C62.3698 66.2793 61.9395 66.711 61.9395 67.2434C61.9395 67.7759 62.3698 68.2076 62.9007 68.2076Z" fill="#3F3D56"/>
<path d="M67.8675 72.5459C68.3984 72.5459 68.8288 72.1143 68.8288 71.5818C68.8288 71.0493 68.3984 70.6177 67.8675 70.6177C67.3366 70.6177 66.9062 71.0493 66.9062 71.5818C66.9062 72.1143 67.3366 72.5459 67.8675 72.5459Z" fill="#3F3D56"/>
<path d="M66.746 90.7037C67.2769 90.7037 67.7072 90.272 67.7072 89.7395C67.7072 89.207 67.2769 88.7754 66.746 88.7754C66.2151 88.7754 65.7847 89.207 65.7847 89.7395C65.7847 90.272 66.2151 90.7037 66.746 90.7037Z" fill="#3F3D56"/>
<path d="M126.031 95.9993L124.273 95.9991L123.436 89.1978L126.031 89.1979L126.031 95.9993Z" fill="#FFB7B7"/>
<path d="M126.479 97.7084L120.81 97.7082V97.6363C120.81 97.0494 121.043 96.4865 121.456 96.0715C121.87 95.6565 122.431 95.4234 123.017 95.4233H123.017L126.479 95.4235L126.479 97.7084Z" fill="#2F2E41"/>
<path d="M130.325 95.9993L132.083 95.9991L132.92 89.1978L130.325 89.1979L130.325 95.9993Z" fill="#FFB7B7"/>
<path d="M129.876 95.4235L133.338 95.4233H133.338C133.924 95.4234 134.485 95.6565 134.899 96.0715C135.312 96.4865 135.545 97.0494 135.545 97.6363V97.7082L129.876 97.7084L129.876 95.4235Z" fill="#2F2E41"/>
<path d="M125.64 42.8488C126.395 41.3244 125.775 39.4748 124.256 38.7174C122.736 37.9601 120.891 38.5818 120.136 40.1062C119.381 41.6305 120.001 43.4802 121.521 44.2375C123.041 44.9949 124.885 44.3731 125.64 42.8488Z" fill="#FFB7B7"/>
<path d="M120.625 62.6794C120.625 62.6794 119.655 66.7346 120.14 68.6811C120.625 70.6276 122.081 83.9287 122.081 83.9287L123.051 94.4722L126.933 94.7966L126.448 82.4688L126.933 71.7631L129.682 82.1444V94.509L133.799 94.6712L133.887 78.5758C133.887 78.5758 134.211 65.9236 132.108 64.3015C130.006 62.6794 129.682 62.355 129.682 62.355L120.625 62.6794Z" fill="#2F2E41"/>
<path d="M126.485 44.8364L130.168 46.7829L130.653 63.6526C130.653 63.6526 128.551 62.3549 125.316 63.977C122.081 65.5991 119.979 64.4636 119.979 64.4636L121.92 57.1642L121.111 47.4317L122.268 46.3789L126.485 44.8364Z" fill="#CBCBCB"/>
<path d="M122.268 46.072L121.596 46.6209C121.596 46.6209 117.391 48.7296 117.229 50.1894L120.14 58.1376C120.14 58.1376 120.949 59.9219 120.302 60.5708C119.655 61.2196 119.008 62.8417 119.17 63.6527C119.331 64.4638 118.199 67.8701 119.493 67.8701C120.787 67.8701 123.86 60.0841 123.698 57.0022C123.536 53.9202 123.425 45.8475 122.268 46.072Z" fill="#2F2E41"/>
<path d="M125.095 45.0192L126.576 44.772C126.576 44.772 132.075 46.2318 132.884 48.665L130.62 54.3423C130.62 54.3423 132.237 64.7236 131.752 64.7236H131.266C131.266 64.7236 132.56 65.6968 131.752 66.0213C130.943 66.3457 129.002 68.941 128.517 67.8055C128.032 66.6701 125.121 53.2068 125.444 50.287C125.768 47.3673 124.808 45.3251 125.095 45.0192Z" fill="#2F2E41"/>
<path d="M125.737 38.4598L125.881 38.1693L125.157 37.8084C125.157 37.8084 124.358 36.5047 122.913 36.8711C121.467 37.2375 120.817 37.4567 120.817 37.4567L120.094 37.8213L120.457 38.1831L119.806 38.4023L120.241 38.6189L119.735 38.9103L120.008 40.4044C120.008 40.4044 120.46 39.2712 121.329 39.7042C122.198 40.1373 123.787 39.4804 123.787 39.4804L125.168 42.1609C125.168 42.1609 125.453 41.2213 125.961 41.4718C125.961 41.4718 127.259 39.399 125.737 38.4598Z" fill="#2F2E41"/>
<path d="M130.236 66.9235C130.156 66.7278 130.12 66.517 130.13 66.3058C130.14 66.0946 130.196 65.8882 130.295 65.7011C130.393 65.5141 130.531 65.3509 130.699 65.2231C130.867 65.0953 131.061 65.006 131.267 64.9614L131.889 59.8599L133.918 61.5902L133.016 66.1695C133.067 66.5217 132.988 66.8806 132.794 67.1783C132.599 67.476 132.302 67.6918 131.96 67.7848C131.617 67.8777 131.252 67.8414 130.935 67.6826C130.617 67.5239 130.368 67.2538 130.236 66.9235Z" fill="#FFB7B7"/>
<path d="M121.559 66.5721C121.618 66.3691 121.632 66.1556 121.599 65.9466C121.567 65.7377 121.489 65.5384 121.372 65.3629C121.254 65.1873 121.1 65.0397 120.919 64.9305C120.739 64.8213 120.537 64.7531 120.327 64.7307L119.169 59.7241L117.334 61.6604L118.716 66.1179C118.702 66.4736 118.818 66.8222 119.043 67.0975C119.268 67.3729 119.586 67.5559 119.936 67.6118C120.287 67.6678 120.646 67.5929 120.945 67.4013C121.244 67.2097 121.463 66.9146 121.559 66.5721H121.559Z" fill="#FFB7B7"/>
<path d="M130.314 47.3431C130.314 47.3431 132.417 46.5321 133.064 48.9652C133.711 51.3984 134.519 56.2646 134.519 56.2646C134.559 58.9706 134.416 58.9706 134.519 61.6175L134.034 64.0506L131.285 63.7262L131.404 57.5323L129.991 51.2361L130.314 47.3431Z" fill="#2F2E41"/>
<path d="M118.685 49.2163L117.688 49.3233C117.688 49.3233 116.744 50.0273 116.744 51.6494C116.744 53.2715 116.582 58.1378 116.582 58.1378C116.582 58.1378 116.491 58.2516 117.229 62.3552C117.589 64.3553 118.211 65.2992 118.211 65.2992L120.219 63.4294L119.979 58.6244L120.626 56.0291L118.685 49.2163Z" fill="#2F2E41"/>
<path d="M148.84 97.9347H0.160215C0.117723 97.9347 0.0769719 97.9177 0.0469258 97.8876C0.0168796 97.8575 0 97.8166 0 97.774C0 97.7314 0.0168796 97.6905 0.0469258 97.6603C0.0769719 97.6302 0.117723 97.6133 0.160215 97.6133H148.84C148.882 97.6133 148.923 97.6302 148.953 97.6603C148.983 97.6905 149 97.7314 149 97.774C149 97.8166 148.983 97.8575 148.953 97.8876C148.923 97.9177 148.882 97.9347 148.84 97.9347Z" fill="#3F3D56"/>
<path d="M36.9535 50.1725C38.9026 50.1725 40.4827 48.5878 40.4827 46.6329C40.4827 44.678 38.9026 43.0933 36.9535 43.0933C35.0044 43.0933 33.4243 44.678 33.4243 46.6329C33.4243 48.5878 35.0044 50.1725 36.9535 50.1725Z" fill="#FFB8B8"/>
<path d="M35.6795 67.5772C35.635 67.5772 35.5904 67.5752 35.5455 67.5713C35.3236 67.5527 35.108 67.4873 34.913 67.3793C34.718 67.2714 34.548 67.1233 34.414 66.9448C34.28 66.7664 34.1852 66.5615 34.1356 66.3437C34.0861 66.1259 34.083 65.9001 34.1266 65.681C34.1369 65.6301 34.1498 65.5798 34.1654 65.5303L28.9566 59.3517C28.7869 59.1487 28.6869 58.8964 28.6715 58.632C28.6561 58.3676 28.7261 58.1052 28.8712 57.8839L28.8806 57.8724L33.5692 53.2356C33.8251 52.9825 34.1708 52.8417 34.5303 52.8443C34.8897 52.8468 35.2334 52.9925 35.4858 53.2492C35.7382 53.5059 35.8785 53.8526 35.876 54.2131C35.8734 54.5736 35.7282 54.9184 35.4723 55.1715C35.4664 55.1773 35.4605 55.1831 35.4545 55.1888L32.0587 58.4266L35.7762 64.4107C35.8466 64.4144 35.9167 64.4231 35.9859 64.4366C36.3704 64.5136 36.7127 64.7311 36.9463 65.047C37.1799 65.3629 37.2881 65.7546 37.2499 66.146C37.2117 66.5374 37.0299 66.9006 36.7396 67.1651C36.4494 67.4296 36.0716 67.5765 35.6795 67.5772H35.6795Z" fill="#FFB8B8"/>
<path d="M42.7659 95.8954H44.5277L45.3656 89.0806L42.7656 89.0807L42.7659 95.8954Z" fill="#FFB8B8"/>
<path d="M42.3164 95.3185L45.7856 95.3184H45.7858C46.3721 95.3183 46.9345 95.5519 47.3491 95.9678C47.7637 96.3836 47.9966 96.9476 47.9967 97.5357V97.6078L42.3165 97.608L42.3164 95.3185Z" fill="#2F2E41"/>
<path d="M25.2563 93.4528L26.7701 94.3567L30.9664 88.9312L28.7325 87.5972L25.2563 93.4528Z" fill="#FFB8B8"/>
<path d="M25.1644 92.7266L28.1453 94.5066L28.1454 94.5067C28.6492 94.8076 29.0132 95.2968 29.1573 95.8669C29.3015 96.4369 29.2139 97.041 28.9139 97.5463L28.9139 97.5464L28.8771 97.6083L23.9966 94.6938L25.1644 92.7266Z" fill="#2F2E41"/>
<path d="M44.943 93.4884H42.9704C42.8107 93.4886 42.6565 93.4294 42.5378 93.3223C42.419 93.2152 42.3441 93.0677 42.3275 92.9084L40.3388 74.1595C40.3338 74.1123 40.3134 74.068 40.2808 74.0336C40.2483 73.9992 40.2053 73.9764 40.1586 73.9689C40.1119 73.9614 40.064 73.9695 40.0223 73.992C39.9806 74.0145 39.9475 74.0501 39.928 74.0933L36.3404 82.0609L29.9887 92.4487C29.9065 92.5819 29.7792 92.6809 29.6301 92.7276C29.4811 92.7744 29.3202 92.7657 29.177 92.7032L26.6396 91.5835C26.5557 91.5464 26.4806 91.4919 26.4193 91.4235C26.358 91.3552 26.3119 91.2745 26.284 91.1869C26.2562 91.0993 26.2472 91.0068 26.2577 90.9155C26.2682 90.8241 26.2979 90.7361 26.3449 90.6571L32.1839 80.8514L33.9746 72.5895C33.4114 69.0066 35.8259 63.6799 35.8504 63.6264L35.8624 63.6004L42.5132 60.9932L42.5465 61.0341C45.1694 69.667 46.7677 78.9573 45.5876 92.8942C45.573 93.0558 45.4989 93.2063 45.3798 93.3162C45.2606 93.426 45.1049 93.4874 44.943 93.4884Z" fill="#2F2E41"/>
<path d="M35.5946 64.4735L35.5637 64.4082C35.5489 64.377 34.07 61.2487 32.93 57.9052C32.7109 57.2586 32.6281 56.5735 32.6868 55.8931C32.7454 55.2128 32.9444 54.5521 33.2709 53.9529C33.6017 53.3474 34.0543 52.8175 34.6 52.3967C35.1456 51.9759 35.7725 51.6733 36.4408 51.5081C37.6011 51.2292 38.8226 51.3776 39.8829 51.9263C40.9432 52.475 41.7717 53.3875 42.2174 54.4975C43.1217 56.7655 42.8335 59.1863 42.5623 61.09L42.5569 61.1282L42.5223 61.1448L35.5946 64.4735Z" fill="#DE2126"/>
<path d="M41.2323 44.6334H35.6284V42.1835C36.8584 41.6934 38.062 41.2766 38.7896 42.1835C39.4375 42.1835 40.0588 42.4416 40.5169 42.9011C40.975 43.3605 41.2323 43.9837 41.2323 44.6334H41.2323Z" fill="#2F2E41"/>
<path d="M35.3181 41.751C31.968 41.751 31.0303 45.9627 31.0303 48.3387C31.0303 49.6638 31.6278 50.1377 32.5667 50.2981L32.8982 48.5244L33.6749 50.3744C33.9386 50.3757 34.2157 50.3706 34.5029 50.3652L34.7662 49.8214L35.3534 50.3555C37.7051 50.359 39.6059 50.7028 39.6059 48.3387C39.6059 45.9627 38.7835 41.751 35.3181 41.751Z" fill="#2F2E41"/>
<path d="M50.2097 46.4648C50.231 46.504 50.2506 46.5442 50.2687 46.5856C50.3589 46.7898 50.405 47.0109 50.404 47.2343C50.403 47.4577 50.355 47.6783 50.2631 47.8818C50.1712 48.0853 50.0374 48.267 49.8706 48.415C49.7038 48.563 49.5076 48.674 49.2951 48.7407C49.2456 48.7561 49.1954 48.7688 49.1446 48.7788L46.2356 56.3257C46.1394 56.5724 45.9665 56.7814 45.7426 56.9217C45.5186 57.062 45.2555 57.1262 44.9923 57.1046L44.9777 57.1019L38.6727 55.1982C38.3289 55.094 38.0403 54.8571 37.8705 54.5396C37.7007 54.2221 37.6635 53.85 37.767 53.5051C37.8706 53.1601 38.1065 52.8704 38.4229 52.6998C38.7393 52.5292 39.1102 52.4915 39.4543 52.595C39.4622 52.5974 39.47 52.5999 39.4778 52.6024L43.9389 54.0389L47.3927 47.8978C47.3621 47.834 47.3361 47.7682 47.3148 47.7008C47.1978 47.3255 47.2241 46.9199 47.3885 46.5629C47.5529 46.2058 47.8437 45.9228 48.2045 45.7688C48.5653 45.6147 48.9703 45.6007 49.3408 45.7293C49.7114 45.8579 50.021 46.1201 50.2097 46.4648L50.2097 46.4648Z" fill="#FFB8B8"/>
<path d="M106.257 27.2957C103.901 24.1322 99.5867 23.3687 97.4431 24.9753C95.2995 26.5818 94.807 30.9474 97.164 34.1109C99.3457 37.0391 103.298 37.8377 105.475 36.7407C105.468 36.7749 105.468 36.8102 105.474 36.8446L105.597 37.4532C105.606 37.4996 105.627 37.5429 105.658 37.5788C105.689 37.6148 105.728 37.6422 105.772 37.6587C105.817 37.6751 105.864 37.6798 105.911 37.6726C105.957 37.6653 106.002 37.6461 106.039 37.617L107.078 36.8026C107.115 36.7735 107.144 36.7353 107.163 36.6916C107.181 36.648 107.188 36.6004 107.183 36.5534C107.178 36.5063 107.161 36.4614 107.133 36.4228C107.106 36.3842 107.069 36.3533 107.027 36.333L106.467 36.0663C106.448 36.0574 106.427 36.0509 106.406 36.0469C108.084 34.2675 108.444 30.2303 106.257 27.2957Z" fill="#CCCCCC"/>
<path d="M101.102 26.1014C102.255 26.2851 103.294 26.9057 104.004 27.8352C104.714 28.7647 105.041 29.932 104.917 31.0964C104.892 31.3631 105.308 31.3613 105.333 31.0964C105.452 29.8414 105.093 28.5878 104.329 27.587C103.565 26.5861 102.452 25.9119 101.213 25.6997C100.951 25.6552 100.839 26.0565 101.102 26.1014Z" fill="white"/>
<path d="M27.5887 31.2637C29.6493 27.8985 28.7635 23.5958 26.4832 22.1913C24.2029 20.7867 19.9761 21.9401 17.9154 25.3053C16.0081 28.4203 16.728 32.3992 18.5486 34.0232C18.5142 34.0293 18.4814 34.0419 18.4518 34.0604L17.9332 34.3996C17.8937 34.4254 17.8614 34.461 17.8394 34.5029C17.8174 34.5448 17.8065 34.5916 17.8077 34.6389C17.8088 34.6863 17.822 34.7325 17.846 34.7733C17.8699 34.814 17.9039 34.848 17.9446 34.8719L19.0831 35.5398C19.1239 35.5637 19.17 35.5768 19.2172 35.5778C19.2644 35.5788 19.3111 35.5676 19.3527 35.5455C19.3944 35.5233 19.4298 35.4908 19.4554 35.451C19.4811 35.4113 19.4961 35.3656 19.4992 35.3184L19.5398 34.6988C19.5408 34.6772 19.5392 34.6555 19.5351 34.6343C21.8035 35.5412 25.6772 34.3854 27.5887 31.2637Z" fill="#CCCCCC"/>
<path d="M26.791 26.0173C27.0466 27.1598 26.8552 28.357 26.2562 29.362C25.6572 30.367 24.6963 31.1029 23.572 31.418C23.3155 31.4929 23.4706 31.8795 23.7254 31.8051C24.932 31.4523 25.9611 30.6551 26.6062 29.5733C27.2514 28.4914 27.4649 27.205 27.2039 25.9719C27.1487 25.7117 26.7353 25.7553 26.791 26.0173Z" fill="white"/>
<path d="M130.617 6.89791C130.445 2.95251 127.308 -0.114187 124.635 0.00326384C121.962 0.120715 119.104 3.45075 119.276 7.39614C119.436 11.0481 122.254 13.9399 124.67 14.2624C124.645 14.2868 124.624 14.3157 124.61 14.3476L124.37 14.9199C124.352 14.9636 124.345 15.0112 124.35 15.0582C124.355 15.1053 124.372 15.1502 124.4 15.1887C124.427 15.2273 124.464 15.2582 124.506 15.2785C124.549 15.2988 124.596 15.3079 124.643 15.3048L125.959 15.2185C126.007 15.2155 126.052 15.2003 126.092 15.1747C126.131 15.149 126.164 15.1135 126.186 15.0717C126.208 15.0299 126.219 14.9831 126.218 14.9358C126.217 14.8885 126.204 14.8422 126.18 14.8013L125.868 14.2652C125.857 14.2468 125.843 14.2297 125.828 14.2145C128.214 13.6914 130.777 10.5578 130.617 6.89791Z" fill="#DE2126"/>
<path d="M127.027 3.00007C127.877 3.80286 128.387 4.90225 128.452 6.07129C128.517 7.24033 128.132 8.38979 127.376 9.2824C127.206 9.48852 127.55 9.72167 127.72 9.5169C128.522 8.54683 128.93 7.30829 128.86 6.04965C128.79 4.79102 128.248 3.60535 127.344 2.73044C127.153 2.54599 126.835 2.81426 127.027 3.00007Z" fill="white"/>
<path d="M106.026 18.2879C104.995 18.2228 103.995 17.9136 103.107 17.3859C102.218 16.8581 101.467 16.1266 100.915 15.2515C100.76 15.0034 100.558 14.7308 100.665 14.4255C100.703 14.3084 100.779 14.2074 100.88 14.1392C100.982 14.0709 101.104 14.0393 101.227 14.0496C101.542 14.0882 101.746 14.398 101.785 14.6949C101.829 15.0317 101.592 15.2961 101.3 15.4212C100.585 15.727 99.864 15.2544 99.2818 14.8773C97.9552 14.018 96.4962 13.2408 94.8888 13.1429C93.4015 13.0523 91.8067 13.6371 90.9795 14.9307C90.8348 15.157 91.1941 15.3661 91.3381 15.1409C92.1585 13.8581 93.817 13.3973 95.259 13.5956C96.1184 13.7316 96.9482 14.0142 97.7124 14.431C98.1088 14.6373 98.4932 14.866 98.8699 15.1064C99.2283 15.3572 99.6081 15.5757 100.005 15.7591C100.667 16.0318 101.543 16.0105 102.006 15.3826C102.437 14.7968 102.104 13.8216 101.382 13.6569C101.224 13.6256 101.06 13.6342 100.906 13.6819C100.752 13.7296 100.612 13.8149 100.499 13.9302C100.386 14.0455 100.303 14.1871 100.258 14.3425C100.213 14.4978 100.207 14.6619 100.24 14.8201C100.312 15.1651 100.571 15.5027 100.772 15.7846C101.374 16.6345 102.159 17.3379 103.068 17.8433C103.977 18.3486 104.988 18.6429 106.026 18.7044C106.293 18.7177 106.292 18.3011 106.026 18.2879H106.026Z" fill="#CCCCCC"/>
</g>
<defs>
<clipPath id="clip0_500_3657">
<rect width="149" height="98" fill="white"/>
</clipPath>
</defs>
</svg>
