<svg id="Layer_1" data-name="Layer 1" xmlns="http://www.w3.org/2000/svg" viewBox="0 0 1807.07 1692.43"><defs><style>.cls-1{fill:#303031;}.cls-2{fill:#e28b6d;}.cls-3{fill:#f9b384;}.cls-4{fill:#fc8879;}.cls-5{fill:#d3d3d3;}.cls-6{fill:#931f30;}.cls-7{fill:#111;}.cls-8{fill:#0a0a0a;}.cls-9{fill:#acbfee;}.cls-10{fill:#bb2635;}.cls-11{fill:#161616;}.cls-12{fill:#f7f6f8;}.cls-13{fill:#102048;opacity:0.15;}.cls-14{fill:#dbdbdb;}.cls-15{fill:#595959;}</style></defs><path class="cls-1" d="M490.52,625.35c21.67,13.5,44.67-4,47.19-18.8,3.75-22.08-16.35-47.5-47.19-28.64,0,0-26.72-31.25-52.68-.31,0,0-44.29,22.29-19.71,61s55.43-14,55.43-14Z"/><path class="cls-2" d="M506.26,635c11.88,15.94,17.1,22.22,15.43,27.2s-13.55,5.39-13.55,5.39Z"/><polygon class="cls-3" points="487.83 684.27 481.03 701.27 454.73 767.05 412.3 716.82 452.35 657.6 476.25 675.57 487.83 684.27"/><path class="cls-1" d="M487.83,684.27l-6.8,17a211,211,0,0,1-22-26.45l17.2.75Z"/><path class="cls-3" d="M512.45,675.75c-.37,9-2.15,15.92-6.52,19-12.58,8.9-58.75-29-58.75-29L444,612.3,509,616.92c.13,8.58,1.05,18.23,1.93,27.75C511.88,655.8,512.85,666.77,512.45,675.75Z"/><path class="cls-1" d="M450.06,638.53c15.88,3,20-14.58,20-14.58,17-10.42,31.08,13.65,46.38,4.68l2.35-30.72-67.3-3.44L427.19,610.1l6.88,18.75Z"/><path class="cls-3" d="M460,638.87c-8.55-9.71-22.36-5.55-23.68,4.87s7.29,28,21.27,17.8Z"/><path class="cls-4" d="M512.45,675.75a15.15,15.15,0,0,1-4.3.6,16,16,0,1,1,0-31.93,14.44,14.44,0,0,1,2.73.25C511.88,655.8,512.85,666.77,512.45,675.75Z"/><path class="cls-1" d="M454.17,645.79A7.57,7.57,0,0,0,451.8,643a9.39,9.39,0,0,0-3.28-1.68,4.86,4.86,0,0,0-3.35.1,6.42,6.42,0,0,0-2.64,2.46l-.68-.28a5.84,5.84,0,0,1,2.57-3.64,6,6,0,0,1,4.61-.43,9.4,9.4,0,0,1,3.82,2.28,6.39,6.39,0,0,1,2,3.89Z"/><path class="cls-3" d="M516.4,807.06c14-16.3,15.42-39.58,20.73-44.36,9.9-8.89,5.38,18.29,5.38,18.29s6.43-18.31,21.9-22.45c10.13-2.72,11.94,6.71,11.06,14.59-1.45,13.09-5.76,28.07-16.34,36.77-4.51,3.7-10.26,6.52-13.51,11.52a33.94,33.94,0,0,0-4.33,9.34Z"/><polygon class="cls-5" points="514.17 807.6 520.69 798.82 547.2 822.39 539.79 833.09 514.17 807.6"/><path class="cls-6" d="M430.35,894.06l84.36-94L546,830.76c-22.4,50.93-52.07,83.61-99.64,108.61Z"/><path class="cls-2" d="M550.39,780.23a9.68,9.68,0,0,1,4.77.52,21.65,21.65,0,0,1,4.23,1.94,23.69,23.69,0,0,1,3.76,2.67,10.12,10.12,0,0,1,3,3.78l-.92.34a29.56,29.56,0,0,0-3.43-2.36c-1.23-.78-2.46-1.55-3.71-2.29s-2.51-1.45-3.77-2.13a16.38,16.38,0,0,0-3.91-1.49Z"/><path class="cls-2" d="M542.32,785.94a10,10,0,0,1,4.61,3.29,8.13,8.13,0,0,1,1.43,5.77,11.65,11.65,0,0,1-2.15,5.35,8.61,8.61,0,0,1-4.49,3.53l-.31-.93a12,12,0,0,0,3-3.77,13.32,13.32,0,0,0,1.52-4.47,7.27,7.27,0,0,0-.73-4.35,13.38,13.38,0,0,0-3.29-3.56Z"/><path class="cls-6" d="M250,894.06l-89.84-24.49h0a12.49,12.49,0,0,1,15.34-8.77l65.73,17.91A12.5,12.5,0,0,1,250,894.06Z"/><path class="cls-7" d="M215.31,1385.09s18.37,39.09,71.22,26.53l-25.48-33.82Z"/><polygon class="cls-3" points="233.25 1380.28 214.43 1422.6 234.97 1454.97 260.36 1434.31 271.59 1387.74 233.25 1380.28"/><path class="cls-1" d="M214.43,1422.6l45.93,11.71,26.06,64.47a7.12,7.12,0,0,1-9.7,9.07l-81.49-39.4a12.06,12.06,0,0,1-5.73-15.85l.72-1.58a67.94,67.94,0,0,1,24.21-28.42Z"/><path class="cls-8" d="M214.43,1422.6l45.93,11.71,26.06,64.47a7.12,7.12,0,0,1-9.7,9.07l-81.49-39.4a12.06,12.06,0,0,1-5.73-15.85l.72-1.58a67.94,67.94,0,0,1,24.21-28.42Z"/><rect class="cls-9" x="257.09" y="1458.36" width="13.05" height="2.5" transform="translate(-679.88 315.15) rotate(-29.26)"/><rect class="cls-9" x="262.77" y="1472.63" width="13.05" height="2.5" transform="translate(-687.26 320.69) rotate(-29.32)"/><path class="cls-1" d="M276.48,948.8c-8.89,20.92-21,53.07-.74,91.7a74.1,74.1,0,0,1,7,51l-67.45,293.58,71.22,26.53L432.27,986.48Z"/><path class="cls-5" d="M467,737.39c14.39,41.31,14.8,111.85-12.55,186.28l-42.17,12,16.95-137.86Z"/><path class="cls-5" d="M420.72,701.91l11.55-25.56s32.73,22.81,49.92,50l-20.05,37.72Z"/><path class="cls-10" d="M429.23,918.22c-112-3.6-170.7,59.2-170.28,56.75,18-61.15,35-106.87,50.2-141,27.55-61.92,49.2-85.82,60.45-94.82,5.5-4.43,8.53-5.28,8.53-5.28l51-42.72a55.61,55.61,0,0,1,12.43,9.1c14.37,13.5,22.6,32.15,24.55,51.75C473.78,828.72,429.23,918.22,429.23,918.22Z"/><path class="cls-6" d="M396.88,741.55c-16.35,8.68-44.76,54-87.73,92.42,27.55-61.92,49.2-85.82,60.45-94.82Z"/><path class="cls-3" d="M212.65,836.73l-18,25.61s-2.23,10.47-7.06,14.63c0,0,2.16,10.73,10.6,14.5,9.63,4.3,21.51,4.06,29.22-6.93s8.7-43.61,8.7-43.61Z"/><path class="cls-5" d="M200.21,842c0,1.67-3.33,10.83-3.33,10.83l39.2,5.42V840.93Z"/><path class="cls-10" d="M429.16,691.14S354.52,680,293.89,711.36a98.73,98.73,0,0,0-23.27,16.89c-29.28,28.37-55.43,56.3-75.21,115.6L242,851.47,289,782a28.49,28.49,0,0,1,17.2-11.73c24.89-5.68,84.54-19.64,93.9-25.09Z"/><path class="cls-7" d="M494.58,1137.56s28.07,37.4,74.56,18.61l-31-33Z"/><polygon class="cls-3" points="511.76 1127.74 492.94 1170.06 513.48 1202.43 538.88 1181.77 550.11 1135.2 511.76 1127.74"/><path class="cls-8" d="M492.94,1170.05l45.94,11.72,26,64.47a7.11,7.11,0,0,1-9.69,9.07l-81.49-39.4a12.06,12.06,0,0,1-5.73-15.86l.72-1.58a68,68,0,0,1,24.2-28.42Z"/><rect class="cls-9" x="535.42" y="1204.66" width="13.05" height="2.5" transform="translate(-520.34 418.83) rotate(-29.26)"/><rect class="cls-9" x="541.11" y="1218.94" width="13.05" height="2.5" transform="translate(-527.36 424.49) rotate(-29.32)"/><path class="cls-1" d="M276.48,948.8c15.31-10.59,113-36.2,175-34.33,68.91,2.08,124.22,9.91,146.7,60.37s-29,181.33-29,181.33l-74.56-18.61,18-121.33s-94.42,11.91-139.42,12.41Z"/><path class="cls-11" d="M432.26,1025.42c-7.68,0-15.05,2-22.65,3.52a109.22,109.22,0,0,1-23.18,2.08,205.29,205.29,0,0,1-23.13-1.9c-3.82-.55-7.62-1.22-11.43-1.83-3.78-.78-7.57-1.51-11.33-2.34l.18-1c3.82.48,7.62,1,11.42,1.57s7.62,1,11.43,1.39c7.63.83,15.26,1.46,22.9,1.6a119,119,0,0,0,22.77-1.69c3.77-.61,7.55-1.39,11.4-1.93a71.9,71.9,0,0,1,11.64-.49Z"/><path class="cls-10" d="M289.88,952.85l-23.68,86.87-2.77,10.13a20.13,20.13,0,0,1-24.7,14.1L83.65,1021.67A20.11,20.11,0,0,1,69.53,997l15.6-57.17L96,900a20.09,20.09,0,0,1,24.67-14.13l155.1,42.28A20.13,20.13,0,0,1,289.88,952.85Z"/><path class="cls-6" d="M146.35,920.24l13.76-50.47A12.51,12.51,0,0,1,175.46,861h0l-17.05,62.54Z"/><path class="cls-6" d="M225,938.28l16.24-59.57h0A12.5,12.5,0,0,1,250,894.06l-12.95,47.51Z"/><circle class="cls-12" cx="151.5" cy="925.14" r="10.76"/><circle class="cls-12" cx="230.3" cy="942.6" r="10.76"/><path class="cls-13" d="M266.2,1039.72l-2.77,10.13a20.13,20.13,0,0,1-24.7,14.1L83.65,1021.67A20.11,20.11,0,0,1,69.53,997l20.7-75.9C85,992.86,196.88,1039.47,266.2,1039.72Z"/><polygon class="cls-14" points="1617.17 1061.64 1617.17 1167.8 452.52 1611.36 178.97 1611.36 178.97 1509.26 450.07 1509.26 450.37 1453.01 450.69 1396.61 723.02 1396.61 723.02 1283.99 994.12 1283.99 994.12 1174.19 1265.24 1174.19 1265.24 1061.54 1617.17 1061.64"/><path class="cls-15" d="M991.18,1286.91H723.8a5.46,5.46,0,0,1-5.44-5.45h0a5.46,5.46,0,0,1,5.44-5.44H991.18a5.46,5.46,0,0,1,5.45,5.44h0A5.46,5.46,0,0,1,991.18,1286.91Z"/><path class="cls-15" d="M1262.85,1178.57H995.47a5.46,5.46,0,0,1-5.44-5.44h0a5.46,5.46,0,0,1,5.44-5.44h267.38a5.46,5.46,0,0,1,5.44,5.44h0A5.46,5.46,0,0,1,1262.85,1178.57Z"/><path class="cls-15" d="M1617.34,1064.48h-352.6a5.46,5.46,0,0,1-5.44-5.44h0a5.46,5.46,0,0,1,5.44-5.45h352.6a5.46,5.46,0,0,1,5.44,5.45h0A5.46,5.46,0,0,1,1617.34,1064.48Z"/><path class="cls-15" d="M719.86,1398.9H452.48a5.46,5.46,0,0,1-5.45-5.45h0a5.46,5.46,0,0,1,5.45-5.44H719.86a5.46,5.46,0,0,1,5.44,5.44h0A5.46,5.46,0,0,1,719.86,1398.9Z"/><path class="cls-15" d="M447.48,1511.53H180.1a5.46,5.46,0,0,1-5.44-5.44h0a5.45,5.45,0,0,1,5.44-5.44H447.48a5.45,5.45,0,0,1,5.44,5.44h0A5.46,5.46,0,0,1,447.48,1511.53Z"/><path class="cls-1" d="M729.26,1002.45l-1.49-16.81,26.8-2.37a343.6,343.6,0,0,0,298.25-239.6L1087.1,634.9l16.09,5.08L1068.9,748.74a360.4,360.4,0,0,1-312.84,251.34Z"/><polygon class="cls-1" points="1095.59 738.08 1088.26 658.01 1033.84 721.07 1021.07 710.05 1101.44 616.92 1112.38 736.54 1095.59 738.08"/><path class="cls-10" d="M1402.61,644.55c0,101.9-46.52,149.16-95.26,149.16-67.2,0-96.73-73.11-96.73-145.47,0-78.28,34.7-149.17,97.47-149.17C1379.72,499.07,1402.61,578.09,1402.61,644.55Zm-127,1.47c-.74,62,8.86,96,31.75,96s30.28-35.45,30.28-95.26c0-56.12-6.65-96.73-30.28-96.73C1285.94,550,1275.6,585.47,1275.6,646Zm9.6,344.85,258.45-491.8h50.21l-257.71,491.8Zm384-150.64c0,101.9-46.52,149.16-95.25,149.16-67.2,0-96.74-73.84-96.74-145.47,0-77.53,34.71-148.42,97.47-148.42C1646.29,695.5,1669.18,774.51,1669.18,840.23Zm-127,1.48c-.73,62,9.6,96,31.76,96s30.27-35.44,30.27-95.25c0-56.13-6.64-96-30.27-96C1552.51,746.45,1542.17,781.16,1542.17,841.71Z"/></svg>