<svg width="115" height="100" viewBox="0 0 115 100" fill="none" xmlns="http://www.w3.org/2000/svg">
<g clip-path="url(#clip0_500_3067)">
<path d="M79.0484 30.9102C79.0444 33.1697 78.373 35.3772 77.1192 37.2537C75.8653 39.1301 74.0853 40.5912 72.0042 41.4522C69.923 42.3131 67.6343 42.5353 65.4274 42.0906C63.2205 41.6458 61.1946 40.5542 59.6058 38.9537C58.0169 37.3531 56.9366 35.3156 56.5014 33.0988C56.0662 30.882 56.2956 28.5854 57.1607 26.4994C58.0258 24.4135 59.4876 22.6319 61.3614 21.3799C63.2352 20.1279 65.4368 19.4618 67.6877 19.4658C69.1834 19.4646 70.6645 19.7601 72.046 20.3353C73.4276 20.9105 74.6823 21.754 75.738 22.8175C76.7937 23.881 77.6296 25.1434 78.1977 26.5322C78.7658 27.9211 79.0549 29.4089 79.0484 30.9102Z" fill="#F2F2F2"/>
<path d="M97.9903 37.5693L99.5905 34.5022C98.1555 32.7628 93.4475 30.6532 93.4475 30.6532L87.0754 24.8313C87.0075 24.5715 86.8727 24.3343 86.6845 24.1435C86.4963 23.9527 86.2613 23.815 86.0032 23.7443C85.7451 23.6736 85.473 23.6725 85.2143 23.7409C84.9557 23.8093 84.7195 23.9449 84.5296 24.1341C84.3398 24.3233 84.2029 24.5593 84.1328 24.8185C84.0627 25.0776 84.0619 25.3507 84.1303 25.6103C84.1988 25.8699 84.3342 26.1068 84.5229 26.2971C84.7115 26.4875 84.9469 26.6246 85.2051 26.6947L92.0891 34.9823L97.9903 37.5693Z" fill="#9E616A"/>
<path d="M97.2148 37.3578L99.4744 38.08C101.117 38.6052 102.888 38.5656 104.506 37.9676C104.996 37.7846 105.425 37.4679 105.744 37.0532C106.064 36.6385 106.261 36.1423 106.315 35.6207C106.382 34.9132 106.18 34.2064 105.748 33.643C105.317 33.0796 104.688 32.7019 103.989 32.586C101.87 32.2365 99.14 32.0641 98.1659 33.2276L98.1561 33.2394L97.2148 37.3578Z" fill="#3F3D56"/>
<path d="M80.9624 46.7476C87.2479 46.7476 92.3434 41.6329 92.3434 35.3235C92.3434 29.0142 87.2479 23.8994 80.9624 23.8994C74.6769 23.8994 69.5815 29.0142 69.5815 35.3235C69.5815 41.6329 74.6769 46.7476 80.9624 46.7476Z" fill="white"/>
<path d="M76.3175 30.8547C76.1613 31.6972 75.9052 32.5178 75.5546 33.299C73.547 37.5622 79.2643 36.1726 81.3075 36.1726C83.5414 36.1726 85.6787 37.3518 85.3523 32.1124C85.2128 29.8744 83.5413 28.0522 81.3075 28.0522C79.3993 28.0522 76.7165 28.9036 76.3175 30.8547Z" fill="#2F2E41"/>
<path d="M80.9729 36.172C82.7882 36.172 84.2598 34.6948 84.2598 32.8726C84.2598 31.0504 82.7882 29.5732 80.9729 29.5732C79.1576 29.5732 77.686 31.0504 77.686 32.8726C77.686 34.6948 79.1576 36.172 80.9729 36.172Z" fill="#FFB6B6"/>
<path d="M78.7405 29.5094C79.3164 29.157 79.9762 28.9663 80.6507 28.9574C81.3252 28.9484 81.9897 29.1216 82.5747 29.4587C83.1597 29.7958 83.6438 30.2844 83.9762 30.8736C84.3087 31.4628 84.4774 32.1308 84.4647 32.8078C82.7898 33.2299 81.0303 33.5529 79.2442 32.9087L78.8224 31.8725L78.5737 32.9095C78.0298 33.1326 77.4844 33.3215 76.9391 32.9073C76.9169 32.2322 77.0715 31.5631 77.3876 30.9668C77.7037 30.3705 78.1702 29.868 78.7405 29.5094Z" fill="#2F2E41"/>
<path d="M89.8118 42.9196C87.8401 45.1716 85.0652 46.555 82.0862 46.7711C79.1072 46.9872 76.163 46.0187 73.8892 44.0747L74.8653 41.3405C75.0859 40.8549 75.434 40.4387 75.8724 40.1366C76.3107 39.8344 76.8227 39.6578 77.3534 39.6255L77.9744 39.5872L79.4552 38.3052C79.4552 38.3052 83.4451 38.1622 83.386 38.0938L85.8028 39.553L85.8008 39.5429L86.7509 39.6013C87.2816 39.6335 87.7937 39.8101 88.232 40.1122C88.6703 40.4144 89.0184 40.8306 89.2389 41.3164L89.8118 42.9196Z" fill="#BB2434"/>
<path d="M79.9642 89.9938L79.6815 86.0456C77.829 85.1161 75.7785 84.6545 73.708 84.7009C76.6209 86.9611 76.3876 91.4783 78.4049 94.5697C79.0415 95.5291 79.8849 96.3323 80.8728 96.92C81.8607 97.5077 82.9676 97.8647 84.1116 97.9645L86.5358 99.3645C86.8132 97.5247 86.6898 95.6464 86.1743 93.859C85.6588 92.0716 84.7635 90.4177 83.5499 89.0111C82.8612 88.2288 82.0772 87.5366 81.2163 86.951C80.6864 88.4781 79.9642 89.9938 79.9642 89.9938Z" fill="#F2F2F2"/>
<path d="M6.25623 20.0133L5.97344 16.0651C4.12099 15.1356 2.07049 14.674 0 14.7205C2.9129 16.9806 2.67958 21.4978 4.69692 24.5892C5.33347 25.5486 6.17693 26.3519 7.16479 26.9395C8.15266 27.5272 9.2596 27.8842 10.4036 27.984L12.8278 29.384C13.1051 27.5442 12.9818 25.6659 12.4663 23.8785C11.9508 22.0911 11.0554 20.4372 9.84185 19.0306C9.15324 18.2483 8.36923 17.5562 7.50831 16.9705C6.97842 18.4976 6.25623 20.0133 6.25623 20.0133Z" fill="#F2F2F2"/>
<path d="M90.569 98.0295L88.6779 98.0293L87.7783 90.708H90.5692L90.569 98.0295Z" fill="#9E616A"/>
<path d="M91.0514 99.8695L84.9541 99.8693V99.7919C84.9541 99.1601 85.2042 98.5542 85.6493 98.1075C86.0943 97.6607 86.6979 97.4097 87.3273 97.4097H87.3275L88.4412 96.5615L90.5192 97.4098L91.0515 97.4098L91.0514 99.8695Z" fill="#2F2E41"/>
<path d="M107.235 98.0295L105.344 98.0293L104.444 90.708H107.235L107.235 98.0295Z" fill="#9E616A"/>
<path d="M107.717 99.8695L101.62 99.8693V99.7919C101.62 99.1601 101.87 98.5542 102.315 98.1074C102.76 97.6607 103.363 97.4097 103.993 97.4097H103.993L105.107 96.5615L107.185 97.4098L107.717 97.4098L107.717 99.8695Z" fill="#2F2E41"/>
<path d="M104.359 58.8444L105.949 74.0113C105.949 74.0113 108.066 89.1976 107.669 91.293C107.271 93.3885 107.768 93.6878 107.768 93.6878L104.14 93.4284C104.14 93.4284 104.24 92.1313 103.643 91.5326C103.047 90.9339 103.345 89.1378 103.345 89.1378L96.3069 64.4322L92.0326 77.4039C92.0326 77.4039 91.3367 91.6727 91.2373 91.8722C91.1379 92.0718 90.8397 94.7659 90.8397 94.7659H87.1617C87.1617 94.7659 87.6587 93.1694 86.9629 92.6705C86.2671 92.1716 85.6706 92.5707 86.2671 91.6727C86.8635 90.7746 87.0623 89.677 86.8635 89.1781C86.6647 88.6792 86.6647 86.6836 86.6647 86.6836C86.6647 86.6836 86.9629 59.7425 88.6528 58.8444C90.3427 57.9464 104.359 58.8444 104.359 58.8444Z" fill="#2F2E41"/>
<path d="M96.8269 28.1357C98.9874 28.1357 100.739 26.3776 100.739 24.209C100.739 22.0403 98.9874 20.2822 96.8269 20.2822C94.6665 20.2822 92.915 22.0403 92.915 24.209C92.915 26.3776 94.6665 28.1357 96.8269 28.1357Z" fill="#9E616A"/>
<path d="M105.711 60.4977C98.1348 62.0682 88.0952 59.3682 88.0952 59.3682L90.7734 47.7148L89.8212 35.5194C89.705 34.028 90.5512 32.63 91.8676 32.1347L93.6854 31.4512L95.1879 29.292L99.4797 29.4333L101.195 31.7002L102.549 32.4213L105.485 33.9839L105.497 33.9904V33.9969L104.576 42.9658L104.021 48.3736C104.021 48.3736 105.708 54.4558 105.362 55.2624C105.016 56.0677 105.317 55.6787 105.401 56.1092C105.485 56.5398 105.742 56.567 105.78 57.4151C105.82 58.262 105.711 60.4977 105.711 60.4977Z" fill="#3F3D56"/>
<path d="M114.869 100H56.3484C56.3137 99.9999 56.2805 99.9859 56.256 99.9613C56.2315 99.9366 56.2178 99.9032 56.2178 99.8684C56.2178 99.8336 56.2315 99.8002 56.256 99.7755C56.2805 99.7508 56.3137 99.7369 56.3484 99.7368H114.869C114.903 99.7368 114.937 99.7507 114.961 99.7754C114.986 99.8 115 99.8335 115 99.8684C115 99.9033 114.986 99.9368 114.961 99.9614C114.937 99.9861 114.903 100 114.869 100Z" fill="#CCCCCC"/>
<path d="M96.6364 27.9471C97.3225 27.9401 98.0068 27.8742 98.6817 27.7503C99.3499 27.5958 100.824 26.4515 101.226 25.7754C101.524 25.2732 101.704 24.4963 101.801 23.933C101.933 23.1876 101.908 22.4227 101.727 21.6877C101.545 20.9528 101.212 20.2643 100.749 19.6667C100.571 19.4164 100.328 19.2192 100.047 19.0959C100.022 19.0869 99.9967 19.079 99.9709 19.0723C99.5635 18.9759 99.1941 18.7595 98.9102 18.4509C98.855 18.3884 98.7955 18.33 98.732 18.2761C98.4134 18.02 98.039 17.8433 97.6394 17.7604C96.9938 17.6047 96.0702 17.7998 94.8945 18.3405C94.3038 18.6122 93.6482 18.5364 93.1429 18.44C93.1145 18.4353 93.0855 18.4381 93.0585 18.4481C93.0316 18.4582 93.0078 18.4751 92.9894 18.4973C92.7808 18.7043 92.5019 18.8244 92.2087 18.8334C92.0292 18.846 91.8472 19.1005 91.6278 19.4319C91.578 19.5072 91.52 19.595 91.4778 19.6486L91.4694 19.5479L91.3707 19.663C91.2155 19.8438 91.1085 20.0612 91.0595 20.2947C91.0105 20.5282 91.0212 20.7704 91.0906 20.9987C91.16 21.227 91.2858 21.4339 91.4563 21.6003C91.6268 21.7666 91.8365 21.8869 92.0658 21.95C92.2477 21.9936 92.4336 22.0184 92.6206 22.024C92.7339 22.0313 92.8511 22.0388 92.9637 22.0555C93.3253 22.1201 93.6641 22.2777 93.9469 22.513C94.2297 22.7483 94.4469 23.0531 94.5773 23.3978C94.6081 23.4775 94.6567 23.549 94.7194 23.6068C94.7821 23.6646 94.8572 23.7072 94.9388 23.7312C95.0205 23.7553 95.1066 23.7602 95.1905 23.7455C95.2743 23.7309 95.3537 23.6971 95.4225 23.6468C95.5369 23.5525 95.6723 23.4874 95.8172 23.457C95.9621 23.4266 96.1122 23.4318 96.2547 23.4723C96.3785 23.5373 96.4764 23.643 96.5318 23.7719C96.5988 23.9152 96.7068 24.0353 96.8421 24.1168C97.3033 24.3406 97.3615 25.3834 97.2204 26.2576C97.0844 27.1003 96.7885 27.715 96.5009 27.7524C96.2794 27.7813 96.2544 27.7978 96.2394 27.8376L96.2259 27.8732L96.2517 27.9056C96.3755 27.9471 96.5067 27.9612 96.6364 27.9471Z" fill="#2F2E41"/>
<path d="M80.9624 46.8908C78.6833 46.8908 76.4554 46.2124 74.5603 44.9413C72.6653 43.6703 71.1883 41.8638 70.3161 39.7501C69.444 37.6365 69.2158 35.3107 69.6604 33.0669C70.105 30.8231 71.2025 28.762 72.8141 27.1443C74.4257 25.5266 76.479 24.4249 78.7143 23.9786C80.9496 23.5323 83.2666 23.7614 85.3722 24.6369C87.4779 25.5123 89.2776 26.9949 90.5438 28.8972C91.81 30.7994 92.4859 33.0358 92.4859 35.3236C92.4824 38.3903 91.2672 41.3304 89.1069 43.499C86.9466 45.6675 84.0176 46.8873 80.9624 46.8908ZM80.9624 24.0426C78.7397 24.0426 76.5669 24.7042 74.7187 25.9438C72.8706 27.1833 71.4302 28.9452 70.5796 31.0065C69.729 33.0678 69.5064 35.3361 69.9401 37.5244C70.3737 39.7127 71.444 41.7227 73.0157 43.3004C74.5874 44.8781 76.5899 45.9525 78.7699 46.3878C80.9499 46.8231 83.2096 46.5997 85.2631 45.7458C87.3167 44.892 89.0718 43.4461 90.3067 41.5909C91.5416 39.7358 92.2007 37.5547 92.2007 35.3236C92.1973 32.3327 91.0122 29.4653 88.9054 27.3504C86.7985 25.2356 83.942 24.046 80.9624 24.0426Z" fill="#3F3D56"/>
<path d="M41.1861 22.9913C47.4716 22.9913 52.567 17.8765 52.567 11.5672C52.567 5.25781 47.4716 0.143066 41.1861 0.143066C34.9006 0.143066 29.8052 5.25781 29.8052 11.5672C29.8052 17.8765 34.9006 22.9913 41.1861 22.9913Z" fill="white"/>
<path d="M41.7126 12.7326C43.7622 12.7326 45.4237 11.0648 45.4237 9.00743C45.4237 6.95005 43.7622 5.28223 41.7126 5.28223C39.663 5.28223 38.0015 6.95005 38.0015 9.00743C38.0015 11.0648 39.663 12.7326 41.7126 12.7326Z" fill="#FFB8B8"/>
<path d="M44.9801 6.54632C44.9801 6.54632 45.9464 4.69214 43.8206 4.52358C43.8206 4.52358 42.0084 2.87341 40.1612 4.2219C40.1612 4.2219 39.1537 4.2219 38.6027 5.36639C38.6027 5.36639 37.8103 5.06471 37.6361 5.87207C37.6361 5.87207 37.0563 7.55769 37.6361 9.07475C38.216 10.5918 38.4086 10.7604 38.4086 10.7604C38.4086 10.7604 38.0017 8.87778 40.3209 8.70922C42.6402 8.54066 44.7678 7.08225 44.9611 8.93643C45.1544 10.7906 45.3668 9.953 45.3668 9.953C45.3668 9.953 47.2026 7.30485 44.9801 6.54632Z" fill="#2F2E41"/>
<path d="M49.7449 19.1637C47.7732 21.4157 44.9983 22.7991 42.0193 23.0152C39.0403 23.2314 36.0961 22.2629 33.8223 20.3188L34.7984 17.5847C35.019 17.099 35.3672 16.6828 35.8055 16.3807C36.2438 16.0786 36.7558 15.9019 37.2865 15.8696L37.9075 15.8314L39.3883 14.5494C39.3883 14.5494 43.3783 14.4064 43.3191 14.3379L45.7359 15.7971L45.7339 15.7871L46.684 15.8455C47.2147 15.8776 47.7268 16.0542 48.1651 16.3564C48.6035 16.6585 48.9516 17.0748 49.172 17.5605L49.7449 19.1637Z" fill="#BB2434"/>
<path d="M41.1861 23.1344C38.9069 23.1344 36.679 22.456 34.784 21.185C32.8889 19.914 31.412 18.1074 30.5398 15.9938C29.6676 13.8802 29.4394 11.5544 29.884 9.31056C30.3287 7.06674 31.4262 5.00566 33.0377 3.38796C34.6493 1.77026 36.7026 0.668589 38.9379 0.222266C41.1733 -0.224057 43.4903 0.00501113 45.5959 0.880505C47.7015 1.756 49.5012 3.2386 50.7675 5.14081C52.0337 7.04303 52.7095 9.27943 52.7095 11.5672C52.706 14.634 51.4909 17.5741 49.3305 19.7426C47.1702 21.9111 44.2412 23.1309 41.1861 23.1344ZM41.1861 0.286224C38.9633 0.286223 36.7905 0.947841 34.9424 2.18741C33.0943 3.42698 31.6538 5.18883 30.8032 7.25016C29.9526 9.31149 29.73 11.5797 30.1637 13.768C30.5973 15.9563 31.6677 17.9664 33.2394 19.5441C34.8111 21.1217 36.8135 22.1961 38.9936 22.6314C41.1736 23.0667 43.4332 22.8433 45.4868 21.9895C47.5403 21.1356 49.2955 19.6897 50.5304 17.8346C51.7653 15.9794 52.4244 13.7984 52.4244 11.5672C52.421 8.57635 51.2359 5.70895 49.129 3.59409C47.0222 1.47923 44.1656 0.289617 41.1861 0.286224Z" fill="#3F3D56"/>
<path d="M14.6221 41.023C20.9076 41.023 26.003 35.9083 26.003 29.5989C26.003 23.2896 20.9076 18.1748 14.6221 18.1748C8.33661 18.1748 3.24121 23.2896 3.24121 29.5989C3.24121 35.9083 8.33661 41.023 14.6221 41.023Z" fill="white"/>
<path d="M9.34707 25.8829C9.81767 24.3774 10.8878 22.9966 12.3678 22.4877C13.8479 21.9788 16.0151 22.754 17.1278 23.8672C19.1631 25.9033 19.6598 32.8982 18.2615 35.1087C17.9833 35.0939 17.0236 35.083 16.7421 35.0724L16.3438 33.7401V35.0593C15.8954 35.0453 15.4434 35.0357 14.9879 35.0304C13.4607 35.0114 12.0003 34.3988 10.9138 33.3214C9.82722 32.2439 9.19915 30.7856 9.16158 29.2529C9.12514 27.7867 9.16162 26.4761 9.34707 25.8829Z" fill="#2F2E41"/>
<path d="M14.4534 30.8724C16.2448 30.8724 17.6969 29.4148 17.6969 27.6166C17.6969 25.8185 16.2448 24.3608 14.4534 24.3608C12.6621 24.3608 11.21 25.8185 11.21 27.6166C11.21 29.4148 12.6621 30.8724 14.4534 30.8724Z" fill="#9E616A"/>
<path d="M11.6543 24.757L15.3888 22.8799C16.1524 23.2252 16.8099 23.7693 17.2933 24.4558C17.7768 25.1422 18.0684 25.9459 18.1381 26.7837L18.2312 27.9029L16.6673 27.5033L16.496 26.0721L16.2304 27.3917L15.5087 27.2073L15.5156 24.9855L14.7934 27.2057L12.2158 26.6113L11.6543 24.757Z" fill="#2F2E41"/>
<path d="M23.0676 37.1588C21.0959 39.4109 18.3211 40.7942 15.342 41.0104C12.363 41.2265 9.41883 40.258 7.14502 38.3139L8.12118 35.5798C8.34178 35.0941 8.6899 34.678 9.12822 34.3758C9.56653 34.0737 10.0785 33.897 10.6092 33.8647L11.2303 33.8265L12.7111 32.5445C12.7111 32.5445 16.701 32.4015 16.6418 32.333L19.0586 33.7922L19.0566 33.7822L20.0067 33.8406C20.5375 33.8727 21.0495 34.0493 21.4879 34.3515C21.9262 34.6536 22.2743 35.0699 22.4948 35.5556L23.0676 37.1588Z" fill="#BB2434"/>
<path d="M14.6226 41.1661C12.3435 41.1661 10.1155 40.4877 8.22049 39.2167C6.32547 37.9457 4.84848 36.1391 3.9763 34.0255C3.10411 31.9119 2.87591 29.5861 3.32055 27.3423C3.76518 25.0985 4.86268 23.0374 6.47426 21.4197C8.08585 19.802 10.1391 18.7003 12.3745 18.254C14.6098 17.8077 16.9268 18.0368 19.0324 18.9122C21.138 19.7877 22.9378 21.2703 24.204 23.1726C25.4702 25.0748 26.146 27.3112 26.146 29.5989C26.1426 32.6657 24.9274 35.6058 22.7671 37.7743C20.6067 39.9429 17.6777 41.1627 14.6226 41.1661ZM14.6226 18.318C12.3998 18.318 10.227 18.9796 8.3789 20.2191C6.53077 21.4587 5.09033 23.2206 4.23973 25.2819C3.38913 27.3432 3.16657 29.6115 3.6002 31.7998C4.03384 33.988 5.10418 35.9981 6.67589 37.5758C8.24759 39.1535 10.2501 40.2279 12.4301 40.6632C14.6101 41.0984 16.8698 40.875 18.9233 40.0212C20.9768 39.1674 22.732 37.7215 23.9669 35.8663C25.2018 34.0112 25.8609 31.8301 25.8609 29.5989C25.8575 26.6081 24.6724 23.7407 22.5655 21.6258C20.4587 19.511 17.6021 18.3214 14.6226 18.318V18.318Z" fill="#3F3D56"/>
<path d="M91.4739 41.2498L89.7509 38.2505C87.5189 38.5351 83.2223 41.3957 83.2223 41.3957L74.9114 43.6784C74.6566 43.5967 74.3848 43.5839 74.1234 43.6413C73.8621 43.6986 73.6204 43.824 73.4227 44.0049C73.225 44.1858 73.0783 44.4158 72.9973 44.6717C72.9163 44.9277 72.9039 45.2005 72.9613 45.4628C73.0187 45.725 73.144 45.9675 73.3244 46.1657C73.5049 46.364 73.7341 46.511 73.9892 46.592C74.2442 46.673 74.5161 46.6851 74.7773 46.6272C75.0385 46.5692 75.2799 46.4432 75.4771 46.2618L86.1365 44.8661L91.4739 41.2498Z" fill="#9E616A"/>
<path d="M90.8807 41.7937L94.7382 38.5504L95.2994 35.9398C95.4077 35.4269 95.3709 34.8938 95.1933 34.4007C95.0156 33.9077 94.7041 33.4744 94.2939 33.1497C93.735 32.7134 93.0319 32.5064 92.3267 32.5705C91.6215 32.6347 90.9669 32.9653 90.4953 33.4954C89.0662 35.1042 87.4586 37.3262 87.9157 38.7751L87.9203 38.7898L90.8807 41.7937Z" fill="#3F3D56"/>
<path d="M31.7567 53.0606H17.2625C16.874 53.0601 16.5016 52.9051 16.227 52.6293C15.9523 52.3536 15.7978 51.9798 15.7974 51.5899V42.6289C15.7978 42.239 15.9523 41.8652 16.227 41.5894C16.5016 41.3137 16.874 41.1586 17.2625 41.1582H31.7567C32.1451 41.1586 32.5175 41.3137 32.7922 41.5894C33.0669 41.8652 33.2214 42.239 33.2218 42.6289V51.5899C33.2214 51.9798 33.0669 52.3536 32.7922 52.6293C32.5175 52.9051 32.1451 53.0601 31.7567 53.0606Z" fill="#E6E6E6"/>
<path d="M25.998 51.9064H18.2814C17.9176 51.906 17.5688 51.7608 17.3116 51.5026C17.0543 51.2443 16.9096 50.8942 16.9092 50.5291V43.6899C16.9096 43.3247 17.0543 42.9746 17.3116 42.7164C17.5688 42.4581 17.9176 42.3129 18.2814 42.3125H30.7379C31.1017 42.3129 31.4505 42.4581 31.7078 42.7164C31.965 42.9746 32.1097 43.3247 32.1101 43.6899V45.7712C32.1083 47.3978 31.4637 48.9572 30.3179 50.1074C29.172 51.2576 27.6184 51.9046 25.998 51.9064Z" fill="white"/>
<path d="M29.4952 46.0577H19.5239C19.4377 46.0577 19.355 46.0233 19.294 45.962C19.233 45.9008 19.1987 45.8178 19.1987 45.7312C19.1987 45.6446 19.233 45.5616 19.294 45.5004C19.355 45.4392 19.4377 45.4048 19.5239 45.4048H29.4952C29.5815 45.4048 29.6642 45.4392 29.7252 45.5004C29.7862 45.5616 29.8204 45.6446 29.8204 45.7312C29.8204 45.8178 29.7862 45.9008 29.7252 45.962C29.6642 46.0233 29.5815 46.0577 29.4952 46.0577Z" fill="#BB2434"/>
<path d="M21.0837 47.3472H19.5239C19.4377 47.3472 19.355 47.3128 19.294 47.2516C19.233 47.1904 19.1987 47.1074 19.1987 47.0208C19.1987 46.9342 19.233 46.8512 19.294 46.7899C19.355 46.7287 19.4377 46.6943 19.5239 46.6943H21.0837C21.17 46.6943 21.2527 46.7287 21.3137 46.7899C21.3747 46.8512 21.4089 46.9342 21.4089 47.0208C21.4089 47.1074 21.3747 47.1904 21.3137 47.2516C21.2527 47.3128 21.17 47.3472 21.0837 47.3472Z" fill="#BB2434"/>
<path d="M23.8461 48.6373H19.5238C19.4376 48.6371 19.3551 48.6026 19.2942 48.5414C19.2334 48.4802 19.1992 48.3973 19.1992 48.3108C19.1992 48.2244 19.2334 48.1414 19.2942 48.0802C19.3551 48.019 19.4376 47.9846 19.5238 47.9844H23.8461C23.9322 47.9846 24.0147 48.019 24.0756 48.0802C24.1364 48.1414 24.1706 48.2244 24.1706 48.3108C24.1706 48.3973 24.1364 48.4802 24.0756 48.5414C24.0147 48.6026 23.9322 48.6371 23.8461 48.6373Z" fill="#BB2434"/>
<path d="M15.2912 44.0573C16.9845 44.0573 18.3573 42.6794 18.3573 40.9796C18.3573 39.2798 16.9845 37.9019 15.2912 37.9019C13.5978 37.9019 12.2251 39.2798 12.2251 40.9796C12.2251 42.6794 13.5978 44.0573 15.2912 44.0573Z" fill="#3F3D56"/>
<path d="M69.3944 12.4175H54.9002C54.5117 12.4171 54.1393 12.262 53.8647 11.9863C53.59 11.7105 53.4355 11.3367 53.4351 10.9468V1.98584C53.4355 1.59592 53.59 1.2221 53.8647 0.946386C54.1393 0.670671 54.5117 0.515579 54.9002 0.515137H69.3944C69.7828 0.515577 70.1552 0.670668 70.4299 0.946383C70.7046 1.2221 70.8591 1.59592 70.8595 1.98584V10.9468C70.8591 11.3367 70.7046 11.7105 70.4299 11.9863C70.1552 12.262 69.7828 12.4171 69.3944 12.4175Z" fill="#E6E6E6"/>
<path d="M63.6357 11.2634H55.9191C55.5553 11.2629 55.2065 11.1177 54.9493 10.8595C54.692 10.6013 54.5473 10.2512 54.5469 9.88599V3.04679C54.5473 2.68161 54.692 2.33151 54.9493 2.07329C55.2065 1.81508 55.5553 1.66984 55.9191 1.66943H68.3756C68.7394 1.66984 69.0882 1.81508 69.3454 2.0733C69.6027 2.33152 69.7474 2.68162 69.7478 3.04679V5.1281C69.7459 6.75472 69.1014 8.31418 67.9555 9.46436C66.8097 10.6145 65.2561 11.2615 63.6357 11.2634Z" fill="white"/>
<path d="M67.1334 5.41458H57.1621C57.0759 5.41458 56.9931 5.38019 56.9322 5.31897C56.8712 5.25776 56.8369 5.17473 56.8369 5.08815C56.8369 5.00157 56.8712 4.91854 56.9322 4.85733C56.9931 4.79611 57.0759 4.76172 57.1621 4.76172H67.1334C67.2197 4.76172 67.3024 4.79611 67.3634 4.85733C67.4243 4.91854 67.4586 5.00157 67.4586 5.08815C67.4586 5.17473 67.4243 5.25776 67.3634 5.31897C67.3024 5.38019 67.2197 5.41458 67.1334 5.41458Z" fill="#BB2434"/>
<path d="M58.7219 6.70416H57.1621C57.0759 6.70416 56.9932 6.66977 56.9322 6.60855C56.8712 6.54733 56.8369 6.46429 56.8369 6.37772C56.8369 6.29114 56.8712 6.2081 56.9322 6.14688C56.9932 6.08566 57.0759 6.05127 57.1621 6.05127H58.7219C58.8081 6.05127 58.8909 6.08566 58.9519 6.14688C59.0128 6.2081 59.0471 6.29114 59.0471 6.37772C59.0471 6.46429 59.0128 6.54733 58.9519 6.60855C58.8909 6.66977 58.8081 6.70416 58.7219 6.70416Z" fill="#BB2434"/>
<path d="M61.4843 7.99421H57.1619C57.0758 7.99402 56.9932 7.95955 56.9324 7.89835C56.8716 7.83715 56.8374 7.75422 56.8374 7.66776C56.8374 7.58129 56.8716 7.49836 56.9324 7.43716C56.9932 7.37596 57.0758 7.34149 57.1619 7.34131H61.4843C61.5705 7.34131 61.6532 7.3757 61.7142 7.43692C61.7752 7.49814 61.8095 7.58118 61.8095 7.66776C61.8095 7.75434 61.7752 7.83737 61.7142 7.89859C61.6532 7.95981 61.5705 7.99421 61.4843 7.99421Z" fill="#BB2434"/>
<path d="M52.9299 14.1477C54.6232 14.1477 55.996 12.7697 55.996 11.0699C55.996 9.37014 54.6232 7.99219 52.9299 7.99219C51.2365 7.99219 49.8638 9.37014 49.8638 11.0699C49.8638 12.7697 51.2365 14.1477 52.9299 14.1477Z" fill="#3F3D56"/>
</g>
<defs>
<clipPath id="clip0_500_3067">
<rect width="115" height="100" fill="white"/>
</clipPath>
</defs>
</svg>
