<svg width="131" height="101" viewBox="0 0 131 101" fill="none" xmlns="http://www.w3.org/2000/svg">
<g clip-path="url(#clip0_401:3784)">
<path d="M75.9892 100.707C75.9702 100.675 75.5153 99.9124 75.3577 98.3289C75.2131 96.8763 75.306 94.4276 76.5702 91.0119C78.9649 84.5412 76.0183 79.3203 75.9882 79.2683L76.1336 79.1836C76.7008 80.2744 77.1106 81.4408 77.3507 82.6476C77.9443 85.4577 77.7282 88.3796 76.7278 91.0709C74.3372 97.5306 76.1145 100.589 76.1326 100.619L75.9892 100.707Z" fill="#F2F2F2"/>
<path d="M75.0531 78.8882C75.6563 78.8882 76.1453 78.397 76.1453 77.791C76.1453 77.1851 75.6563 76.6938 75.0531 76.6938C74.4499 76.6938 73.9609 77.1851 73.9609 77.791C73.9609 78.397 74.4499 78.8882 75.0531 78.8882Z" fill="#F2F2F2"/>
<path d="M78.4974 82.939C79.1006 82.939 79.5896 82.4478 79.5896 81.8418C79.5896 81.2359 79.1006 80.7446 78.4974 80.7446C77.8942 80.7446 77.4053 81.2359 77.4053 81.8418C77.4053 82.4478 77.8942 82.939 78.4974 82.939Z" fill="#F2F2F2"/>
<path d="M76.1449 85.6397C76.7481 85.6397 77.2371 85.1485 77.2371 84.5425C77.2371 83.9365 76.7481 83.4453 76.1449 83.4453C75.5417 83.4453 75.0527 83.9365 75.0527 84.5425C75.0527 85.1485 75.5417 85.6397 76.1449 85.6397Z" fill="#F2F2F2"/>
<path d="M79.0013 87.9185C79.6045 87.9185 80.0935 87.4273 80.0935 86.8213C80.0935 86.2154 79.6045 85.7241 79.0013 85.7241C78.3981 85.7241 77.9092 86.2154 77.9092 86.8213C77.9092 87.4273 78.3981 87.9185 79.0013 87.9185Z" fill="#F2F2F2"/>
<path d="M75.3041 91.4634C75.9073 91.4634 76.3962 90.9722 76.3962 90.3662C76.3962 89.7603 75.9073 89.269 75.3041 89.269C74.7009 89.269 74.2119 89.7603 74.2119 90.3662C74.2119 90.9722 74.7009 91.4634 75.3041 91.4634Z" fill="#F2F2F2"/>
<path d="M76.6484 100.746C76.6484 100.746 75.5562 98.0456 78.8326 96.02L76.6484 100.746Z" fill="#F2F2F2"/>
<path d="M75.3059 100.698C75.3059 100.698 74.8088 97.8257 70.9619 97.8503L75.3059 100.698Z" fill="#F2F2F2"/>
<path d="M18.7043 20.8887C17.8311 20.8887 16.9774 20.6286 16.2513 20.1412C15.5253 19.6538 14.9593 18.9611 14.6252 18.1506C14.291 17.3401 14.2035 16.4482 14.3739 15.5878C14.5443 14.7274 14.9648 13.9371 15.5823 13.3167C16.1997 12.6964 16.9865 12.274 17.8429 12.1028C18.6994 11.9317 19.5872 12.0195 20.394 12.3552C21.2008 12.6909 21.8903 13.2595 22.3755 13.9889C22.8606 14.7183 23.1196 15.5759 23.1196 16.4532C23.1196 17.6295 22.6544 18.7578 21.8264 19.5896C20.9984 20.4214 19.8753 20.8887 18.7043 20.8887ZM18.7043 12.1707C17.8612 12.1707 17.037 12.4218 16.3359 12.8924C15.6348 13.363 15.0884 14.0319 14.7658 14.8144C14.4431 15.597 14.3587 16.4581 14.5232 17.2888C14.6877 18.1196 15.0937 18.8827 15.6899 19.4816C16.2861 20.0806 17.0457 20.4885 17.8726 20.6537C18.6996 20.819 19.5568 20.7341 20.3357 20.41C21.1147 20.0859 21.7805 19.5369 22.2489 18.8327C22.7174 18.1284 22.9674 17.3004 22.9674 16.4533C22.9674 15.8909 22.8571 15.334 22.6429 14.8144C22.4286 14.2948 22.1146 13.8227 21.7188 13.425C21.3229 13.0273 20.8529 12.7119 20.3357 12.4967C19.8185 12.2814 19.2642 12.1707 18.7043 12.1707Z" fill="#3F3D56"/>
<path d="M63.4621 20.8887C62.5889 20.8887 61.7352 20.6286 61.0091 20.1412C60.2831 19.6538 59.7171 18.9611 59.383 18.1506C59.0488 17.3401 58.9614 16.4482 59.1317 15.5878C59.3021 14.7274 59.7226 13.9371 60.3401 13.3167C60.9576 12.6964 61.7443 12.274 62.6007 12.1028C63.4572 11.9317 64.345 12.0195 65.1518 12.3552C65.9585 12.6909 66.6481 13.2595 67.1333 13.9889C67.6184 14.7183 67.8774 15.5759 67.8774 16.4532C67.8774 17.6295 67.4122 18.7578 66.5842 19.5896C65.7561 20.4214 64.6331 20.8887 63.4621 20.8887ZM63.4621 12.1707C62.619 12.1707 61.7948 12.4218 61.0937 12.8924C60.3927 13.363 59.8462 14.0319 59.5236 14.8144C59.2009 15.597 59.1165 16.4581 59.281 17.2888C59.4455 18.1196 59.8515 18.8827 60.4477 19.4816C61.0439 20.0806 61.8035 20.4885 62.6304 20.6537C63.4574 20.819 64.3145 20.7341 65.0935 20.41C65.8725 20.0859 66.5383 19.5369 67.0067 18.8327C67.4751 18.1284 67.7252 17.3004 67.7252 16.4533C67.7252 15.8909 67.6149 15.334 67.4006 14.8144C67.1864 14.2948 66.8724 13.8227 66.4765 13.425C66.0807 13.0273 65.6107 12.7119 65.0935 12.4967C64.5763 12.2814 64.0219 12.1707 63.4621 12.1707Z" fill="#3F3D56"/>
<path d="M79.6279 10.5944H2.71277C1.21545 10.597 0.00204995 12.1029 0 13.9615V50.8C0.00204995 52.6585 1.21545 54.1637 2.71277 54.1671H79.6279C81.1252 54.1646 82.3386 52.6586 82.3407 50.8V13.9613C82.3386 12.1029 81.1252 10.5977 79.6279 10.5942V10.5944ZM82.0219 50.8C82.0202 52.44 80.9496 53.769 79.6282 53.7709H2.71277C1.3914 53.7688 0.321159 52.44 0.319109 50.8V13.9613C0.320646 12.3214 1.3914 10.9924 2.71277 10.9905H79.6279C80.9492 10.9926 82.0195 12.3214 82.0215 13.9613L82.0219 50.8Z" fill="#3F3D56"/>
<path d="M19.3041 25.4106H5.6377V35.0211H19.3041V25.4106Z" fill="#F2F2F2"/>
<path d="M38.4369 25.4106H24.7705V35.0211H38.4369V25.4106Z" fill="#F2F2F2"/>
<path d="M57.5697 25.4106H43.9033V35.0211H57.5697V25.4106Z" fill="#F2F2F2"/>
<path d="M76.7025 25.4106H63.0361V35.0211H76.7025V25.4106Z" fill="#F2F2F2"/>
<path d="M19.3041 39.4834H5.6377V49.0939H19.3041V39.4834Z" fill="#F2F2F2"/>
<path d="M38.4369 39.4834H24.7705V49.0939H38.4369V39.4834Z" fill="#F2F2F2"/>
<path d="M57.5697 39.4834H43.9033V49.0939H57.5697V39.4834Z" fill="#F2F2F2"/>
<path d="M76.7025 39.4834H63.0361V49.0939H76.7025V39.4834Z" fill="#F2F2F2"/>
<path d="M29.3228 49.038L26.0967 44.5621L26.9754 43.923L29.4449 47.349L38.8947 37.5957L39.672 38.356L29.3228 49.038Z" fill="#BB2434"/>
<path d="M48.6265 34.9653L45.4004 30.4893L46.2791 29.8502L48.7486 33.2762L58.1984 23.5229L58.9757 24.2832L48.6265 34.9653Z" fill="#BB2434"/>
<path d="M18.7638 0H18.5303V16.4734H18.7638V0Z" fill="#2F2E41"/>
<path d="M63.6915 0H63.458V16.4734H63.6915V0Z" fill="#2F2E41"/>
<path d="M130.75 101H65.9623C65.9302 101.002 65.898 100.997 65.8678 100.987C65.8375 100.976 65.8098 100.959 65.7863 100.937C65.7628 100.915 65.7441 100.888 65.7313 100.858C65.7185 100.829 65.7119 100.797 65.7119 100.764C65.7119 100.732 65.7185 100.7 65.7313 100.67C65.7441 100.641 65.7628 100.614 65.7863 100.592C65.8098 100.57 65.8375 100.553 65.8678 100.542C65.898 100.531 65.9302 100.527 65.9623 100.529H130.75C130.782 100.527 130.814 100.531 130.844 100.542C130.874 100.553 130.902 100.57 130.926 100.592C130.949 100.614 130.968 100.641 130.981 100.67C130.993 100.7 131 100.732 131 100.764C131 100.797 130.993 100.829 130.981 100.858C130.968 100.888 130.949 100.915 130.926 100.937C130.902 100.959 130.874 100.976 130.844 100.987C130.814 100.997 130.782 101.002 130.75 101Z" fill="#3F3D56"/>
<path d="M10.3609 34.9653L7.13477 30.4893L8.01351 29.8502L10.483 33.2762L19.9328 23.5229L20.7101 24.2832L10.3609 34.9653Z" fill="#BB2434"/>
<path d="M112.107 63.9757C112.198 63.9486 112.29 63.9287 112.384 63.9162L116.125 56.2793L114.983 54.5592L117.342 52.4883L120.307 56.1334L114.268 64.9627C114.417 65.2967 114.461 65.6684 114.394 66.0282C114.328 66.388 114.154 66.719 113.895 66.977C113.637 67.2351 113.307 67.408 112.948 67.4727C112.589 67.5375 112.22 67.491 111.888 67.3396C111.557 67.1881 111.279 66.9387 111.092 66.6247C110.904 66.3107 110.817 65.9469 110.841 65.5817C110.864 65.2165 110.998 64.8672 111.225 64.5803C111.451 64.2935 111.759 64.0826 112.107 63.9757Z" fill="#FFB8B8"/>
<path d="M118.493 53.5448C118.442 53.5987 118.384 53.6449 118.32 53.6821L114.492 55.9112C114.316 56.0139 114.106 56.042 113.909 55.9893C113.712 55.9367 113.544 55.8075 113.441 55.6303C113.431 55.6118 113.421 55.5928 113.412 55.5735L111.55 51.6224C111.47 51.4561 111.453 51.2668 111.501 51.0889C111.55 50.9111 111.66 50.7565 111.812 50.6536L114.185 49.0322C114.333 48.9309 114.512 48.8849 114.69 48.9019C114.868 48.919 115.035 48.998 115.162 49.1255L118.478 52.4688C118.619 52.611 118.7 52.8028 118.702 53.0037C118.705 53.2046 118.63 53.3986 118.493 53.5446L118.493 53.5448Z" fill="#CCCCCC"/>
<path d="M123.867 97.3019L121.846 97.8543L118.764 90.286L121.746 89.4707L123.867 97.3019Z" fill="#FFB8B8"/>
<path d="M120.247 97.6678L124.144 96.6025L124.811 99.0671L118.46 100.803C118.283 100.149 118.372 99.4516 118.707 98.8635C119.042 98.2754 119.596 97.845 120.247 97.6671H120.247L120.247 97.6678Z" fill="#2F2E41"/>
<path d="M106.592 98.8512H104.497L103.501 90.7358H106.592V98.8512Z" fill="#FFB8B8"/>
<path d="M103.001 98.2495H107.04V100.805H100.458C100.458 100.469 100.524 100.137 100.652 99.8268C100.779 99.5168 100.967 99.2352 101.203 98.9979C101.439 98.7607 101.719 98.5725 102.028 98.444C102.336 98.3156 102.667 98.2495 103.001 98.2495H103.001Z" fill="#2F2E41"/>
<path d="M108.798 46.3383C111.116 46.3383 112.994 44.4512 112.994 42.1233C112.994 39.7954 111.116 37.9082 108.798 37.9082C106.481 37.9082 104.603 39.7954 104.603 42.1233C104.603 44.4512 106.481 46.3383 108.798 46.3383Z" fill="#FFB8B8"/>
<path d="M106.464 93.0648H103.602C103.406 93.0646 103.217 92.9896 103.075 92.855C102.932 92.7204 102.845 92.5363 102.833 92.34C101.98 78.7205 102.479 68.9507 104.403 61.5946C104.411 61.5624 104.422 61.5307 104.434 61.4998L104.588 61.1149C104.644 60.9713 104.743 60.8481 104.87 60.7615C104.997 60.6749 105.148 60.6289 105.302 60.6294H111.187C111.298 60.6293 111.407 60.6534 111.508 60.6999C111.609 60.7464 111.699 60.8144 111.771 60.899L112.57 61.836C112.586 61.8542 112.6 61.8729 112.614 61.8925C116.219 66.9425 119.449 76.8152 123.191 90.0852C123.246 90.278 123.224 90.4849 123.13 90.6618C123.035 90.8387 122.876 90.9715 122.685 91.032L119.61 92.0208C119.434 92.0767 119.243 92.067 119.073 91.9936C118.903 91.9201 118.765 91.7878 118.684 91.6206L110.702 74.9899C110.646 74.8736 110.555 74.7786 110.441 74.7187C110.327 74.6589 110.197 74.6374 110.07 74.6575C109.943 74.6777 109.826 74.7383 109.736 74.8305C109.646 74.9227 109.589 75.0415 109.571 75.1694L107.225 92.397C107.2 92.5818 107.108 92.751 106.968 92.8737C106.829 92.9963 106.649 93.0642 106.464 93.0648Z" fill="#2F2E41"/>
<path d="M112.246 61.9049H112.222L105.073 61.6776C104.889 61.6725 104.713 61.6011 104.577 61.4766C104.442 61.352 104.355 61.1825 104.333 60.9991C103.428 53.6297 105.913 51.6555 107.023 51.1483C107.116 51.1062 107.196 51.0408 107.257 50.9583C107.317 50.8758 107.355 50.7791 107.367 50.6776L107.463 49.9053C107.479 49.7689 107.532 49.6393 107.615 49.5302C109.356 47.264 111.734 46.5382 112.996 46.3076C113.196 46.2714 113.403 46.3167 113.57 46.4334C113.737 46.5502 113.851 46.7288 113.887 46.9301C113.89 46.9428 113.892 46.9555 113.893 46.9683L114.037 48.0774C114.052 48.1832 114.094 48.2833 114.159 48.3676C117.791 53.1372 113.745 60.1794 112.897 61.5428C112.828 61.6534 112.732 61.7446 112.618 61.8079C112.504 61.8712 112.376 61.9046 112.246 61.9049Z" fill="#CCCCCC"/>
<path d="M109.997 71.1159L104.596 72.1616L104.391 71.0914L108.525 70.2908L103.72 57.5651L104.734 57.1787L109.997 71.1159Z" fill="#BB2434"/>
<path d="M117.264 42.5978C116.328 41.2738 115.205 40.0934 113.932 39.0934C112.873 38.2626 111.694 37.5526 110.394 37.2132C109.094 36.8737 107.658 36.9314 106.471 37.5648C105.285 38.1983 104.058 39.4569 104.051 40.8065C104.048 41.2401 104.158 41.8267 104.583 41.7517L104.706 41.7689L107.782 41.1447L109.093 45.7124C109.185 46.0334 109.308 46.3922 109.611 46.529C109.897 46.6579 110.226 46.5364 110.517 46.4152C110.564 46.3953 110.972 45.4744 110.972 45.4744C110.983 45.4456 111 45.4201 111.024 45.4005C111.047 45.3809 111.075 45.3679 111.105 45.3628C111.135 45.3578 111.166 45.3609 111.194 45.3718C111.223 45.3828 111.248 45.4011 111.267 45.425L111.509 45.7296C111.556 45.7879 111.62 45.8295 111.691 45.8481C111.763 45.8666 111.839 45.8612 111.908 45.8326L116.924 43.7287C117.155 43.6318 117.414 43.5056 117.481 43.2628C117.544 43.0292 117.403 42.7945 117.264 42.5978Z" fill="#2F2E41"/>
<path d="M111.58 72.3794C111.799 72.2247 111.983 72.0234 112.116 71.7898C112.25 71.5562 112.332 71.296 112.354 71.0275C112.377 70.759 112.341 70.4887 112.249 70.2356C112.157 69.9826 112.01 69.7529 111.82 69.5629L113.148 53.4531L109.194 53.9995L109.119 69.6509C108.822 69.993 108.66 70.4327 108.664 70.8867C108.668 71.3407 108.838 71.7773 109.142 72.1138C109.445 72.4503 109.861 72.6633 110.31 72.7123C110.759 72.7613 111.211 72.6429 111.579 72.3796L111.58 72.3794Z" fill="#FFB8B8"/>
<path d="M113.407 55.7726C113.333 55.7726 113.26 55.7619 113.189 55.7408L108.944 54.4866C108.848 54.458 108.757 54.4105 108.679 54.3469C108.6 54.2832 108.535 54.2046 108.486 54.1156C108.438 54.0265 108.408 53.9288 108.397 53.828C108.386 53.7271 108.395 53.6251 108.424 53.5278C108.43 53.5073 108.437 53.4871 108.444 53.4671L110.015 49.3905C110.081 49.2183 110.206 49.0755 110.367 48.9882C110.529 48.9008 110.716 48.8748 110.895 48.9148L113.7 49.5271C113.875 49.5654 114.031 49.6638 114.141 49.8055C114.252 49.9471 114.31 50.1231 114.305 50.303L114.174 55.0211C114.169 55.2219 114.086 55.4127 113.943 55.5529C113.799 55.6932 113.607 55.7719 113.407 55.7724V55.7726Z" fill="#CCCCCC"/>
</g>
<defs>
<clipPath id="clip0_401:3784">
<rect width="131" height="101" fill="white"/>
</clipPath>
</defs>
</svg>
