<?xml version="1.0" encoding="utf-8"?>
<!-- Generator: Adobe Illustrator 24.0.2, SVG Export Plug-In . SVG Version: 6.00 Build 0)  -->
<svg version="1.1" id="Слой_1" xmlns="http://www.w3.org/2000/svg" xmlns:xlink="http://www.w3.org/1999/xlink" x="0px" y="0px"
	 viewBox="0 0 385.4 59.6" style="enable-background:new 0 0 385.4 59.6;" xml:space="preserve">
<style type="text/css">
	.st0{fill:#8b8b8b;stroke:#8b8b8b;stroke-miterlimit:10;}
	.st1{fill:#8b8b8b;stroke:#8b8b8b;stroke-width:5.6693;stroke-miterlimit:10;}
	.st2{fill:#8b8b8b;}
</style>
<g>
	<g>
		<path class="st0" d="M377.1,53.6c-0.6-0.4-1.1-1.1-1.3-1.8L367.3,23l-2.8-9.6c-0.1-0.4-0.3-1.2-0.6-2.3c-0.3,1.1-0.4,1.9-0.6,2.3
			l-2.8,9.5l-8.5,28.8c-0.2,0.7-0.6,1.4-1.2,1.8c-0.6,0.5-1.4,0.7-2.1,0.7c-1,0-1.9-0.4-2.5-1.1c-0.7-0.7-1.1-1.6-1.1-2.5
			c0-0.2,0-0.4,0.1-0.6c0.1-0.2,0.1-0.4,0.1-0.5L358,9.3c0.4-1.3,1.2-2.4,2.3-3.2c2.3-1.6,5.4-1.6,7.7,0c1.1,0.8,1.9,1.9,2.3,3.1
			l12.7,40.3c0.1,0.4,0.2,0.7,0.2,1.1c0,1-0.4,1.9-1.1,2.6c-0.7,0.7-1.7,1.1-2.7,1.1C378.5,54.3,377.7,54.1,377.1,53.6z M331.2,52.4
			l-10.4-20.8l-7.6-0.1V51c0,1.9-1.5,3.4-3.3,3.4c0,0,0,0,0,0c-0.9,0-1.8-0.3-2.4-1c-0.7-0.6-1-1.5-1-2.4V9c0-0.9,0.3-1.8,1-2.4
			c0.6-0.6,1.5-1,2.4-1c1.9,0,3.4,1.5,3.4,3.3c0,0,0,0,0,0v16.6h7.5l10.1-18.3c0.5-1.1,1.6-1.8,2.8-1.7c0.9,0,1.7,0.3,2.3,0.9
			c0.6,0.6,1,1.4,1,2.3c0,0.6-0.1,1.2-0.5,1.7l-10.1,17.6l11.1,21c0.2,0.5,0.4,1.1,0.4,1.7c0,0.9-0.3,1.8-1,2.5
			c-1.4,1.4-3.6,1.4-4.9,0C331.6,53.1,331.4,52.7,331.2,52.4L331.2,52.4z M279.4,53.3c-0.6-0.6-1-1.5-1-2.4V11.9h-11.2
			c-0.8,0-1.5-0.3-2.1-0.8c-0.6-0.5-0.9-1.3-0.9-2c0-0.8,0.3-1.5,0.9-2.1c0.5-0.6,1.3-0.9,2.1-0.9h29.1c0.8,0,1.5,0.3,2.1,0.8
			c0.6,0.5,0.9,1.3,0.9,2c0,0.8-0.3,1.5-0.9,2.1c-0.5,0.6-1.3,0.9-2.1,0.9h-11.1V51c0,0.9-0.3,1.8-1,2.4
			C282.9,54.7,280.7,54.7,279.4,53.3L279.4,53.3z M251.3,53.3c-0.7-0.6-1-1.5-1-2.4V28.3l0.7-14l-17.3,36.8
			c-0.9,1.9-2.8,3.1-4.9,3.1c-1.4,0-2.8-0.6-3.7-1.6c-1-1-1.6-2.4-1.5-3.8V9c0-1.9,1.5-3.4,3.4-3.4c0,0,0,0,0,0c0.9,0,1.8,0.3,2.4,1
			c0.7,0.6,1,1.5,1,2.4v22.6l-0.7,14l17.3-36.8c0.9-1.9,2.8-3.1,4.9-3.1c1.4,0,2.8,0.6,3.7,1.6c1,1,1.6,2.4,1.5,3.8V51
			c0,0.9-0.3,1.8-1,2.4c-0.6,0.6-1.5,1-2.4,1C252.8,54.3,251.9,54,251.3,53.3L251.3,53.3z M162.8,53.3c-0.6-0.6-1-1.5-1-2.4V11.9
			h-21.1V51c0,1.9-1.5,3.4-3.3,3.4c0,0,0,0,0,0c-0.9,0-1.8-0.3-2.4-1c-0.7-0.6-1-1.5-1-2.4V9.5c0-2.3,1.2-3.5,3.6-3.5h27.6
			c2.4,0,3.6,1.2,3.6,3.5V51c0,0.9-0.3,1.8-1,2.4c-0.6,0.6-1.5,1-2.4,1C164.3,54.3,163.4,54,162.8,53.3L162.8,53.3z M116.1,53.3
			c-0.6-0.6-1-1.5-1-2.4V32.3H93.6v18.6c0,1.9-1.5,3.4-3.3,3.4c0,0,0,0,0,0c-0.9,0-1.8-0.3-2.4-1c-0.7-0.6-1-1.5-1-2.4V9
			c0-0.9,0.3-1.8,1-2.4c0.6-0.6,1.5-1,2.4-1c1.9,0,3.4,1.5,3.4,3.3c0,0,0,0,0,0v17.4h21.4V9c0-1.9,1.5-3.4,3.3-3.4c0,0,0,0,0,0
			c0.9,0,1.8,0.3,2.4,1c0.7,0.6,1,1.5,1,2.4v41.8c0,0.9-0.3,1.8-1,2.4c-0.6,0.6-1.5,1-2.4,1C117.6,54.3,116.7,53.9,116.1,53.3
			L116.1,53.3z M51.4,54c-2.4,0-3.6-1.2-3.6-3.5V9.5C47.9,7.2,49,6,51.4,6h23.4c0.8,0,1.5,0.3,2.1,0.8c0.6,0.5,0.9,1.3,0.9,2
			c0,0.8-0.3,1.5-0.9,2.1c-0.5,0.6-1.3,0.9-2.1,0.9H54.6v15.3h16.3c0.8,0,1.5,0.3,2,0.8c1.1,1.1,1.1,2.9,0,4c0,0,0,0,0,0
			c-0.5,0.5-1.3,0.8-2,0.8H54.6v15.3h20.8c0.8,0,1.5,0.3,2.1,0.9c0.6,0.5,0.9,1.3,0.9,2.1c0,0.8-0.3,1.5-0.9,2
			C77,53.7,76.2,54,75.5,54L51.4,54z"/>
		<path class="st1" d="M354.5,38.6h19.8"/>
	</g>
	<g transform="translate(50.494 362.5)">
		<path class="st2" d="M-44.8-307.5c-0.6-0.2-1.2-0.4-1.8-0.7c-0.5-0.3-0.9-0.7-1.3-1.2c-0.2-0.3-0.4-0.7-0.5-1.1
			c0-0.1-0.1-0.3-0.1-0.4c0-0.5,0-1,0.1-1.4c0-0.2,0.1-0.5,0.1-0.6c0.1-0.5,0.2-1.1,0.2-1.7c0-0.3,0.1-0.6,0.1-0.8
			c0.1-0.5,0.2-1.4,0.3-1.8c0-0.2,0.1-0.4,0.1-0.6c0-0.1,0-0.3,0.1-0.6c0-0.3,0.1-0.6,0.1-0.8c0-0.2,0.1-0.5,0.1-0.7
			s0.1-0.6,0.1-0.9s0.1-0.7,0.2-0.9c0-0.3,0.1-0.7,0.2-0.9c0-0.3,0.1-0.7,0.2-1s0.1-0.7,0.2-1s0.1-0.7,0.2-0.9s0.1-0.7,0.2-0.9
			c0.2-1.4,0.4-2.4,0.6-3.1c0-0.1,0.1-0.5,0.1-0.7c0.2-1.2,0.4-2.1,0.4-2.5c0-0.1,0.1-0.4,0.1-0.7c0-0.2,0.1-0.6,0.2-0.9
			c0-0.2,0.1-0.5,0.1-0.7c0.1-0.3,0.2-1.1,0.3-1.5c0-0.2,0.1-0.6,0.2-0.9c0.2-1,0.3-1.6,0.4-1.9c0-0.2,0.1-0.4,0.1-0.5
			c0-0.2,0.1-0.3,0.1-0.5c0-0.2,0.1-0.5,0.2-0.9c0.3-1.3,0.4-1.8,0.6-2.5c0.1-0.4,0.2-0.9,0.3-1.1c0.1-0.2,0.2-0.7,0.3-1
			c0.1-0.3,0.2-0.7,0.2-0.9c0.1-0.3,0.7-2.2,0.9-2.8c0.2-0.7,0.5-1.3,0.9-1.9c0.7-1,1.5-2,2.4-2.8c0.9-0.8,1.9-1.5,2.9-2
			c1.2-0.6,2.5-1,3.8-1.2c1.1-0.2,2.3-0.2,3.4,0c3.4,0.5,6.5,2.4,8.6,5.3c0.9,1.2,1.6,2.7,1.9,4.2c0.2,0.6,0.4,1.2,0.4,1.4
			s0.2,0.6,0.2,0.9s0.2,0.7,0.3,1s0.2,0.7,0.3,1.1c0.2,0.7,0.3,1.2,0.6,2.5c0.1,0.3,0.2,0.7,0.2,0.9c0,0.2,0.1,0.3,0.1,0.5
			c0,0.1,0.1,0.4,0.1,0.5c0.1,0.3,0.2,0.9,0.4,1.9c0.1,0.3,0.1,0.7,0.2,0.9c0.1,0.4,0.2,1.1,0.3,1.5c0,0.1,0.1,0.4,0.1,0.7
			c0,0.2,0.1,0.6,0.2,0.9s0.1,0.6,0.1,0.7c0.1,0.4,0.2,1.3,0.4,2.5c0,0.2,0.1,0.6,0.1,0.7c0.2,0.8,0.3,1.8,0.6,3.2
			c0,0.3,0.1,0.7,0.2,0.9c0,0.3,0.1,0.7,0.2,0.9s0.1,0.7,0.2,1c0,0.3,0.1,0.7,0.2,1s0.1,0.7,0.2,0.9c0,0.3,0.1,0.7,0.2,0.9
			c0,0.3,0.1,0.6,0.1,0.9c0,0.2,0.1,0.5,0.1,0.7s0.1,0.5,0.1,0.8c0,0.3,0.1,0.5,0.1,0.6c0,0.2,0,0.4,0.1,0.6
			c0.1,0.5,0.2,1.3,0.3,1.8c0,0.2,0.1,0.5,0.1,0.8c0.1,0.5,0.2,1.2,0.2,1.7c0,0.2,0.1,0.5,0.1,0.6c0.1,0.5,0.1,0.9,0.1,1.4
			c0,0.1-0.1,0.3-0.1,0.4c-0.2,0.7-0.5,1.3-1.1,1.7c-0.4,0.4-1,0.7-1.6,0.9c-0.8,0.4-1.7,0.5-2.6,0.2c-1-0.3-1.9-0.9-2.5-1.7
			c-0.4-0.4-0.6-1-0.6-1.5c0-0.3-0.1-0.7-0.2-1s-0.1-0.7-0.1-0.9c0-0.2-0.1-0.4-0.1-0.6c0-0.1-0.1-0.2-0.1-0.4c0-0.2,0-0.4-0.1-0.6
			c0-0.2-0.1-0.7-0.2-1c-0.1-0.8-0.2-1.5-0.3-1.8c0-0.1-0.1-0.4-0.1-0.6s-0.1-0.6-0.1-0.8s-0.1-0.7-0.2-1s-0.1-0.7-0.2-1
			s-0.1-0.7-0.2-0.9s-0.1-0.7-0.2-0.9s-0.1-0.6-0.1-0.8c-0.1-0.4-0.2-1.2-0.3-1.7c0-0.2-0.1-0.6-0.2-0.8c-0.1-0.8-0.2-1.4-0.3-1.8
			c0-0.2-0.1-0.7-0.2-1.1s-0.1-0.8-0.2-1c-0.1-0.5-0.2-1.1-0.3-1.8c-0.1-0.3-0.1-0.8-0.2-1s-0.1-0.6-0.2-0.9
			c-0.2-1.1-0.3-1.4-0.4-1.9c-0.1-0.3-0.1-0.6-0.2-0.8s-0.1-0.4-0.1-0.6c-0.1-0.4-0.2-1.1-0.3-1.6c0-0.2-0.1-0.5-0.2-0.8
			c-0.3-1.2-0.6-2.5-0.8-3.5c-0.1-0.2-0.1-0.5-0.2-0.7c-0.1-0.4-0.5-1.9-0.7-2.7c-0.3-1.6-1.4-2.9-2.8-3.6c-0.8-0.4-1.7-0.4-2.5,0
			c-1.4,0.7-2.5,2-2.8,3.6c-0.2,0.8-0.6,2.3-0.7,2.7c0,0.2-0.1,0.5-0.2,0.7c-0.3,1.1-0.6,2.4-0.8,3.5c-0.1,0.3-0.1,0.6-0.2,0.8
			c-0.1,0.5-0.2,1.1-0.3,1.6c0,0.2-0.1,0.5-0.1,0.6c0,0.1-0.1,0.5-0.2,0.8c-0.1,0.5-0.1,0.8-0.4,1.9c-0.1,0.3-0.1,0.7-0.2,0.9
			c0,0.2-0.1,0.7-0.2,1c-0.1,0.7-0.2,1.3-0.3,1.8c0,0.2-0.1,0.7-0.2,1s-0.1,0.8-0.2,1.1c-0.1,0.4-0.2,1-0.3,1.8
			c0,0.2-0.1,0.6-0.2,0.8c-0.1,0.5-0.2,1.3-0.3,1.7c0,0.2-0.1,0.5-0.1,0.8s-0.1,0.7-0.2,0.9c0,0.3-0.1,0.7-0.2,0.9
			c0,0.3-0.1,0.7-0.2,1s-0.1,0.7-0.2,1s-0.1,0.6-0.1,0.8c0,0.2-0.1,0.5-0.1,0.6c-0.1,0.3-0.2,1-0.3,1.8c0,0.3-0.1,0.7-0.2,1
			c0,0.2-0.1,0.4-0.1,0.6c0,0.1,0,0.2-0.1,0.4c0,0.2-0.1,0.4-0.1,0.6c0,0.2-0.1,0.6-0.1,0.9s-0.1,0.7-0.2,1c0,0.6-0.3,1.1-0.6,1.5
			c-0.6,0.8-1.5,1.4-2.5,1.7C-43.7-307.5-44.2-307.4-44.8-307.5z"/>
	</g>
	<g transform="translate(225.3 362.5)">
		<path class="st2" d="M-44.8-307.2c-0.6-0.2-1.2-0.4-1.8-0.7c-0.5-0.3-0.9-0.8-1.3-1.2c-0.2-0.3-0.4-0.7-0.5-1.1
			c0-0.1-0.1-0.3-0.1-0.4c-0.1-0.5,0-1,0.1-1.4c0-0.2,0.1-0.5,0.1-0.6c0.1-0.5,0.2-1.1,0.2-1.7c0-0.3,0.1-0.6,0.1-0.8
			c0.1-0.6,0.2-1.4,0.3-1.8c0-0.2,0.1-0.4,0.1-0.6c0-0.1,0-0.3,0.1-0.6s0.1-0.6,0.1-0.8c0-0.2,0.1-0.5,0.1-0.7
			c0-0.2,0.1-0.6,0.1-0.9c0-0.3,0.1-0.7,0.2-1c0-0.3,0.1-0.7,0.2-1c0-0.3,0.1-0.7,0.2-1c0-0.3,0.1-0.7,0.2-1c0-0.3,0.1-0.7,0.2-1
			c0-0.3,0.1-0.7,0.2-0.9c0.2-1.4,0.4-2.4,0.6-3.2c0-0.1,0.1-0.5,0.1-0.7c0.2-1.2,0.4-2.1,0.4-2.5c0-0.1,0.1-0.4,0.1-0.7
			c0-0.2,0.1-0.7,0.2-0.9s0.1-0.5,0.1-0.7c0.1-0.3,0.2-1.1,0.3-1.5c0-0.2,0.1-0.6,0.2-0.9c0.2-1,0.3-1.6,0.4-1.9
			c0-0.2,0.1-0.4,0.1-0.5c0-0.2,0.1-0.3,0.1-0.5c0-0.2,0.1-0.6,0.2-0.9c0.3-1.3,0.4-1.8,0.6-2.5c0.1-0.4,0.2-0.9,0.3-1.1
			c0.1-0.2,0.2-0.7,0.3-1c0.1-0.3,0.2-0.7,0.2-0.9c0.1-0.3,0.7-2.2,0.9-2.9c0.3-0.7,0.5-1.3,0.9-1.9c0.7-1,1.5-2,2.4-2.9
			c0.9-0.8,1.9-1.5,3-2c1.2-0.6,2.5-1,3.8-1.2c1.1-0.2,2.3-0.2,3.4,0c3.5,0.5,6.6,2.5,8.6,5.3c0.9,1.3,1.6,2.7,2,4.2
			c0.2,0.6,0.4,1.2,0.4,1.4c0,0.2,0.2,0.6,0.2,0.9s0.2,0.7,0.3,1s0.2,0.7,0.3,1.1c0.2,0.7,0.3,1.2,0.6,2.5c0.1,0.3,0.2,0.7,0.2,0.9
			c0,0.2,0.1,0.3,0.1,0.5c0,0.1,0.1,0.4,0.1,0.5c0.1,0.3,0.2,0.9,0.4,1.9c0.1,0.3,0.1,0.7,0.2,0.9c0.1,0.4,0.2,1.1,0.3,1.5
			c0,0.1,0.1,0.4,0.1,0.7c0,0.2,0.1,0.7,0.2,0.9s0.1,0.6,0.1,0.7c0.1,0.4,0.2,1.3,0.4,2.5c0,0.2,0.1,0.6,0.1,0.7
			c0.2,0.8,0.3,1.8,0.6,3.2c0,0.3,0.1,0.7,0.2,0.9s0.1,0.7,0.2,0.9s0.1,0.7,0.2,1s0.1,0.7,0.2,1c0,0.3,0.1,0.7,0.2,1
			c0,0.3,0.1,0.7,0.2,1s0.1,0.6,0.1,0.9s0.1,0.5,0.1,0.7c0,0.2,0.1,0.5,0.1,0.8c0,0.3,0.1,0.5,0.1,0.6c0,0.2,0,0.4,0.1,0.6
			c0.1,0.5,0.2,1.3,0.3,1.8c0,0.2,0.1,0.5,0.1,0.8c0.1,0.6,0.2,1.2,0.2,1.7c0,0.2,0.1,0.5,0.1,0.6c0.1,0.5,0.1,1,0.1,1.4
			c0,0.1-0.1,0.3-0.1,0.4c-0.2,0.7-0.6,1.3-1.1,1.8c-0.4,0.4-1,0.8-1.6,1c-0.8,0.4-1.7,0.5-2.6,0.2c-1-0.3-1.9-0.9-2.5-1.7
			c-0.4-0.4-0.6-1-0.6-1.5c0-0.3-0.1-0.7-0.2-1c0-0.3-0.1-0.7-0.1-0.9c0-0.2-0.1-0.4-0.1-0.6c0-0.1-0.1-0.2-0.1-0.4
			c0-0.2,0-0.4-0.1-0.6c0-0.2-0.1-0.7-0.2-1c-0.1-0.8-0.2-1.5-0.3-1.8c0-0.1-0.1-0.4-0.1-0.6s-0.1-0.6-0.1-0.8c0-0.3-0.1-0.7-0.2-1
			s-0.1-0.7-0.2-1c0-0.3-0.1-0.7-0.2-1c0-0.3-0.1-0.7-0.2-1c0-0.3-0.1-0.6-0.1-0.8c-0.1-0.4-0.2-1.3-0.3-1.7c0-0.2-0.1-0.6-0.2-0.8
			c-0.1-0.8-0.2-1.4-0.3-1.8c0-0.2-0.1-0.7-0.2-1.1c-0.1-0.4-0.1-0.8-0.2-1c-0.1-0.5-0.2-1.1-0.3-1.9c-0.1-0.3-0.1-0.8-0.2-1
			s-0.1-0.6-0.2-0.9c-0.2-1.1-0.3-1.4-0.4-1.9c-0.1-0.3-0.1-0.6-0.2-0.8s-0.1-0.4-0.1-0.6c-0.1-0.5-0.2-1.1-0.3-1.6
			c0-0.2-0.1-0.5-0.2-0.8c-0.3-1.2-0.6-2.5-0.8-3.6c-0.1-0.2-0.1-0.5-0.2-0.7c-0.1-0.4-0.5-1.9-0.7-2.7c-0.4-1.6-1.4-2.9-2.8-3.6
			c-0.8-0.4-1.7-0.4-2.5,0c-1.4,0.7-2.5,2.1-2.8,3.6c-0.2,0.8-0.6,2.3-0.7,2.7c0,0.2-0.1,0.5-0.2,0.7c-0.3,1.1-0.6,2.4-0.8,3.6
			c-0.1,0.3-0.1,0.6-0.2,0.8c-0.1,0.5-0.2,1.1-0.3,1.6c0,0.2-0.1,0.5-0.1,0.6c0,0.1-0.1,0.5-0.2,0.8c-0.1,0.5-0.1,0.8-0.4,1.9
			c-0.1,0.3-0.1,0.7-0.2,0.9c0,0.2-0.1,0.7-0.2,1c-0.1,0.7-0.2,1.3-0.3,1.9c0,0.2-0.1,0.7-0.2,1c-0.1,0.4-0.1,0.8-0.2,1.1
			c-0.1,0.4-0.2,1-0.3,1.8c0,0.2-0.1,0.6-0.2,0.8c-0.1,0.5-0.2,1.3-0.3,1.7c0,0.2-0.1,0.5-0.1,0.8c0,0.3-0.1,0.7-0.2,1
			c0,0.3-0.1,0.7-0.2,1c0,0.3-0.1,0.7-0.2,1c0,0.3-0.1,0.7-0.2,1c0,0.3-0.1,0.6-0.1,0.8c0,0.2-0.1,0.5-0.1,0.6
			c-0.1,0.3-0.2,1-0.3,1.8c0,0.3-0.1,0.7-0.2,1c0,0.2-0.1,0.4-0.1,0.6c0,0.1,0,0.2-0.1,0.4c0,0.2-0.1,0.4-0.1,0.6
			c0,0.2-0.1,0.6-0.1,0.9s-0.1,0.7-0.2,1c0,0.6-0.3,1.1-0.6,1.5c-0.6,0.8-1.5,1.4-2.5,1.7C-43.6-307.1-44.2-307.1-44.8-307.2z"/>
	</g>
</g>
</svg>
