<svg xmlns="http://www.w3.org/2000/svg" viewBox="0 0 351.96 67.11"><defs><style>.cls-1{fill:#8b8b8b;}</style></defs><g id="Слой_2" data-name="Слой 2"><g id="Слой_1-2" data-name="Слой 1"><path class="cls-1" d="M0,8.65H26.87V58.58H18.15V16.46H8.72V58.58H0Z"/><path class="cls-1" d="M39.81,14.84l1-6.3H54.24L63,58.58h-9L52.45,49H42.76l-1.47,9.55h-9ZM44,41.16h7.25L47.64,18.08Z"/><path class="cls-1" d="M68.21,8.65H86.1a8.69,8.69,0,0,1,6.06,2,7,7,0,0,1,2.28,5.47V31.73a7,7,0,0,1-2.28,5.47,8.69,8.69,0,0,1-6.06,2H76.93V58.58H68.21Zm8.72,7.81V31.39h6.35A2.52,2.52,0,0,0,85,30.75a2,2,0,0,0,.71-1.56V18.66A2,2,0,0,0,85,17.1a2.47,2.47,0,0,0-1.73-.64Z"/><path class="cls-1" d="M109.56,8.59v20l8-15.27c.77-1.43,2.54-4.67,2.54-4.67l5.73,0h5.07L119.05,29.3l11.23,29.28h-9.62l-7.38-19.21-3.72,6.54V58.58h-8.72v-50Z"/><path class="cls-1" d="M135.46,8.59h24v7.87H144.18V29.65h11.74v3.24c0,1.39,0,4.65,0,4.65l-5.15,0h-6.6V50.71h15.26v7.87h-24Z"/><path class="cls-1" d="M164.82,8.65h27.32v7.81h-9.3V58.58h-8.72V16.46h-9.3Z"/><path class="cls-1" d="M246.07,8.56h24.3l-9.1,50h-9.11l8.21-42.12h-14.3Z"/><path class="cls-1" d="M298.41,17A8.11,8.11,0,0,1,301,10.64a10,10,0,0,1,7-2.37h5.64a10,10,0,0,1,7,2.37A8.08,8.08,0,0,1,323.29,17V50.16a8,8,0,0,1-2.63,6.3,10,10,0,0,1-7,2.38H308a10,10,0,0,1-7-2.38,8.08,8.08,0,0,1-2.63-6.3Zm11.16,34h2.56a2.48,2.48,0,0,0,1.74-.64,2,2,0,0,0,.7-1.56V18.4a2,2,0,0,0-.7-1.56,2.48,2.48,0,0,0-1.74-.64h-2.56a2.45,2.45,0,0,0-1.73.64,2,2,0,0,0-.71,1.56V48.71a2,2,0,0,0,.71,1.56A2.45,2.45,0,0,0,309.57,50.91Z"/><path class="cls-1" d="M335.73,45.47v3.07a2,2,0,0,0,.74,1.56,2.5,2.5,0,0,0,1.7.64h2.63a2.47,2.47,0,0,0,1.73-.64,2,2,0,0,0,.71-1.56V39.63a2,2,0,0,0-.71-1.56,2.47,2.47,0,0,0-1.73-.64h-5.07V29.62h5.07a2.47,2.47,0,0,0,1.73-.64,2,2,0,0,0,.71-1.56V18.63a2,2,0,0,0-.71-1.56,2.47,2.47,0,0,0-1.73-.64h-2.63a2.5,2.5,0,0,0-1.7.64,2,2,0,0,0-.74,1.56v3.06L327,24.3V16.14a7,7,0,0,1,2.28-5.47,8.71,8.71,0,0,1,6.06-2.05h8.27a8.69,8.69,0,0,1,6.06,2.05A7,7,0,0,1,352,16.14V28.58a3.68,3.68,0,0,1-.48,1.76,5.82,5.82,0,0,1-1.25,1.59,6.22,6.22,0,0,1-1.77,1.13,5,5,0,0,1-2,.44,5,5,0,0,1,2,.43,6.1,6.1,0,0,1,1.77,1.16,6.28,6.28,0,0,1,1.25,1.62,3.71,3.71,0,0,1,.48,1.76V51a7,7,0,0,1-2.28,5.46,8.69,8.69,0,0,1-6.06,2.06h-8.27a8.71,8.71,0,0,1-6.06-2.06A7,7,0,0,1,327,51V42.87Z"/><path class="cls-1" d="M225,13.45l8.64-4.86h8.49V58.7h-8.95V18.3l-3.66,2.11C228,18.09,226.57,15.77,225,13.45Z"/><rect class="cls-1" x="282.58" width="3.83" height="67.11"/></g></g></svg>