<svg id="Слой_1" data-name="Слой 1" xmlns="http://www.w3.org/2000/svg" viewBox="0 0 242 107.17"><defs><style>.cls-1{fill:#8b8b8b;}.cls-2{fill:#8b8b8b;}</style></defs><title>logo_2</title><path class="cls-1" d="M155,35c0,9,4.81,13.61,12.43,13.61S179.76,44,179.76,35V14.21c0-9-4.74-13.62-12.36-13.62S155,5.25,155,14.21V35Zm-28,57.71h0c0,9,4.81,13.61,12.43,13.61s12.36-4.66,12.36-13.61V71.92c0-9-4.74-13.62-12.36-13.62S126.93,63,126.93,71.92V92.71Zm30.26,0h0c0,9,4.81,13.61,12.43,13.61S182,101.66,182,92.71V71.92c0-9-4.74-13.62-12.36-13.62S157.19,63,157.19,71.92V92.71ZM98,105.58h10.21c8.36,0,13.1-4.29,13.1-13V72.06c0-8.73-4.74-13-12.73-13H98v46.54Zm115.35,0h0l-2.74-14c-.52-2.52-1.7-4.89-4.44-5.55,3-1.56,5.11-4.74,5.11-10.43v-5c0-8.73-4.74-11.54-11.62-11.54H188v46.54h7.7V89.45h3.69c1.93,0,2.82,1,3.26,3.18l2.44,13ZM151.57,47.87h0l-2.74-14c-.52-2.52-1.7-4.89-4.44-5.55,3-1.56,5.11-4.74,5.11-10.43v-5c0-8.73-4.74-11.54-11.62-11.54H126.19V47.87h7.69V31.74h3.7c1.93,0,2.82,1,3.26,3.18l2.44,12.95Zm-53.87,0h7.7V32.26h4c6.88,0,11.61-2.81,11.61-11.54V12.87c0-8.73-4.73-11.54-11.61-11.54H97.7V47.87ZM226,85.75h0c3,1.93,5.11,4.15,5.11,8.44,0,3.33-.82,5.69-3.56,5.69s-3.62-2.07-3.62-6.21A15.32,15.32,0,0,1,224.3,90h-7.55a15.66,15.66,0,0,0-.59,4.37c0,7.92,3.63,11.91,11.25,11.91,7,0,11.69-4.66,11.69-12.5s-4.22-11.91-9.55-15.32c-3-1.92-5.1-3.77-5.1-8.06,0-3.33,1.18-5.7,3.47-5.7s3.41,2.07,3.41,6.66a21.85,21.85,0,0,1-.22,3.18h7.54a16.59,16.59,0,0,0,.45-3.7c0-8.95-3.33-12.58-10.95-12.58-7,0-11.69,4.66-11.69,12.51s4.21,11.54,9.54,14.94ZM185.23,47.87h8V29.23H203V21.68h-9.77V8.88H203V1.33H185.23V47.87Zm54.83,0h0V40.32h-9.47v-39h-8V47.87Zm-32.19,0h8V1.33h-8V47.87ZM169.62,65.41h0c2.3,0,4,1.4,4,6V93.23c0,4.58-1.63,6-4,6s-4-1.41-4-6V71.4c0-4.59,1.7-6,4-6Zm-30.26,0h0c2.29,0,4,1.4,4,6V93.23c0,4.58-1.63,6-4,6s-4-1.41-4-6V71.4c0-4.59,1.71-6,4-6Zm28-57.72h0c2.3,0,4,1.41,4,6V35.51c0,4.59-1.63,6-4,6s-4-1.41-4-6V13.69c0-4.59,1.7-6,4-6ZM113.32,91.08h0c0,4.88-.82,7.84-5.26,7.84H106V65.7h2.22c4.29,0,5.11,3,5.11,7.84V91.08ZM113,19.24h0c0,4.88-1.33,6.36-5,6.36H105.4V8H108c3.7,0,5,1.48,5,6.36v4.89ZM136.47,8h0c3.7,0,5,1.48,5,6.36v3.48c0,5.4-1.34,6.88-5.26,6.88h-2.37V8ZM198.26,65.7h0c3.69,0,5,1.48,5,6.36v3.48c0,5.4-1.34,6.88-5.26,6.88h-2.36V65.7Z"/><polygon class="cls-2" points="24.7 25.22 46.77 1.33 1.41 1.33 1.41 105.58 46.77 105.58 24.7 81.69 24.7 25.22 24.7 25.22"/><polygon class="cls-2" points="46.77 1.33 46.77 105.58 68.8 81.69 68.8 25.22 46.77 1.33 46.77 1.33"/></svg>