<svg xmlns="http://www.w3.org/2000/svg" width="149.341" height="29.532" viewBox="0 0 149.341 29.532">
  <g id="slonparket" transform="translate(-52.889 -56.14)">
    <path id="Контур_1" data-name="Контур 1" d="M167.1,73.67a.43.43,0,0,1-.43.42h0a.42.42,0,0,1-.43-.42V58.59a.43.43,0,0,1,.43-.43h0a.43.43,0,0,1,.43.43Z" fill="#e8bc6a"/>
    <path id="Контур_2" data-name="Контур 2" d="M58.48,74.09a5.21,5.21,0,0,1-4.1-1.71,6.79,6.79,0,0,1,0-8.49,5.2,5.2,0,0,1,4.09-1.77,6,6,0,0,1,1.72.25,2.8,2.8,0,0,1,1.45.89,1.08,1.08,0,0,1,.25.67,1.15,1.15,0,0,1-.33.81,1,1,0,0,1-.78.35,2.75,2.75,0,0,1-1-.24,3.59,3.59,0,0,0-1.28-.23,2.43,2.43,0,0,0-2.16,1.12,4.36,4.36,0,0,0-.65,2.45,3.82,3.82,0,0,0,.7,2.38,2.58,2.58,0,0,0,2.19,1A4.23,4.23,0,0,0,60,71.32,3.77,3.77,0,0,1,61,71a1,1,0,0,1,.75.34,1.177,1.177,0,0,1,.05,1.51C61.24,73.69,60.12,74.09,58.48,74.09Z" fill="#e8bc6a"/>
    <path id="Контур_3" data-name="Контур 3" d="M71.32,64.57H68.55c-.39,0-.58.24-.58.71v6.35a2,2,0,0,1-2.29,2.31q-2.07,0-2.07-1.2a1,1,0,0,1,.4-.95,1.69,1.69,0,0,1,.82-.16,1.09,1.09,0,0,0,.69-.17,1.06,1.06,0,0,0,.16-.69v-5.5a3.49,3.49,0,0,1,.6-2.33,3,3,0,0,1,2.27-.66h4.07c.86,0,1.3.61,1.3,1.84v8c0,1.22-.44,1.84-1.3,1.84a1.1,1.1,0,0,1-1.09-.55,2.9,2.9,0,0,1-.21-1.29Z" fill="#e8bc6a"/>
    <path id="Контур_4" data-name="Контур 4" d="M76,68.12A6,6,0,0,1,77.44,64a5.66,5.66,0,0,1,8,0,6.76,6.76,0,0,1,0,8.34,5.17,5.17,0,0,1-4,1.65,5.11,5.11,0,0,1-4-1.67A6,6,0,0,1,76,68.12Zm2.75,0a4,4,0,0,0,.63,2.32,2.33,2.33,0,0,0,2.06,1.08,2.37,2.37,0,0,0,2.08-1.06,4,4,0,0,0,.64-2.34,4.25,4.25,0,0,0-.61-2.38,2.39,2.39,0,0,0-2.11-1.1,2.36,2.36,0,0,0-2.09,1.1,4.33,4.33,0,0,0-.59,2.41Z" fill="#e8bc6a"/>
    <path id="Контур_5" data-name="Контур 5" d="M91.62,69.19v2.9c0,1.23-.44,1.85-1.3,1.85S89,73.32,89,72.1v-8c0-1.23.44-1.84,1.3-1.84s1.3.61,1.3,1.84v2.7h4.77V64.12c0-1.23.43-1.84,1.3-1.84S99,62.89,99,64.12v8c0,1.22-.43,1.84-1.29,1.84s-1.3-.62-1.3-1.85v-2.9Z" fill="#e8bc6a"/>
    <path id="Контур_6" data-name="Контур 6" d="M104.23,64.71V72.1c0,1.22-.44,1.84-1.3,1.84s-1.3-.62-1.3-1.84V64.26a1.6,1.6,0,0,1,1.78-1.84h6.4c1.19,0,1.78.61,1.78,1.84V72.1c0,1.22-.43,1.84-1.29,1.84s-1.3-.62-1.3-1.84V64.71Z" fill="#e8bc6a"/>
    <path id="Контур_7" data-name="Контур 7" d="M118.3,62.26a1.94,1.94,0,0,1,1.92,1.5l2.88,8.18a2.86,2.86,0,0,1,.18.81,1.08,1.08,0,0,1-.37.86,1.32,1.32,0,0,1-.91.33c-.65,0-1.11-.41-1.37-1.23l-.42-1.33h-4l-.47,1.42c-.25.76-.66,1.14-1.25,1.14a1.21,1.21,0,0,1-.89-.34,1.19,1.19,0,0,1-.34-.88,2,2,0,0,1,.13-.75l3-8C116.74,62.82,117.4,62.26,118.3,62.26Zm-.07,2.83-1.3,4h2.58l-1.25-4Z" fill="#e8bc6a"/>
    <path id="Контур_8" data-name="Контур 8" d="M126.19,73.94c-.87,0-1.3-.62-1.3-1.84V64.24a2,2,0,0,1,.39-1.42,1.93,1.93,0,0,1,1.41-.4H129a4.38,4.38,0,0,1,3,1,3.65,3.65,0,0,1,1.17,2.89,3.77,3.77,0,0,1-1.06,2.86,4,4,0,0,1-2.9,1h-1.75V72.1C127.48,73.33,127.05,73.94,126.19,73.94Zm1.29-6.14h1.12c1.19,0,1.78-.5,1.78-1.51s-.59-1.48-1.78-1.48h-1.12Z" fill="#e8bc6a"/>
    <path id="Контур_9" data-name="Контур 9" d="M135.22,72.1v-8c0-1.23.43-1.84,1.3-1.84s1.29.61,1.29,1.84v2.5l3.31-3.4c.59-.61,1.07-.92,1.42-.92a1.26,1.26,0,0,1,.89.36,1.12,1.12,0,0,1,.39.86,1.26,1.26,0,0,1-.37.79s-.23.24-.66.66l-2.61,2.6,3.47,3.92a2.05,2.05,0,0,1,.66,1.27,1.16,1.16,0,0,1-.37.83,1.12,1.12,0,0,1-.84.37,2.07,2.07,0,0,1-1.4-.91l-3.43-4-.46.38V72.1c0,1.23-.43,1.84-1.29,1.84S135.22,73.32,135.22,72.1Z" fill="#e8bc6a"/>
    <path id="Контур_10" data-name="Контур 10" d="M150.52,62.42c1.23,0,1.84.41,1.84,1.22s-.61,1.2-1.84,1.2h-2.13v2h1.83c1.23,0,1.84.4,1.84,1.19s-.61,1.2-1.84,1.2h-1.83v2.16h2.21c1.22,0,1.84.4,1.84,1.2s-.62,1.19-1.84,1.19h-3a2.18,2.18,0,0,1-1.38-.33,1.71,1.71,0,0,1-.39-1.31V64.25a2,2,0,0,1,.39-1.42,1.93,1.93,0,0,1,1.41-.41Z" fill="#e8bc6a"/>
    <path id="Контур_11" data-name="Контур 11" d="M156.89,64.84a11.3,11.3,0,0,1-1.75-.08c-.7-.15-1-.52-1-1.12,0-.81.61-1.22,1.84-1.22h4.52c1.22,0,1.83.41,1.83,1.22a1.077,1.077,0,0,1-1,1.12,11.3,11.3,0,0,1-1.75.08V72.1c0,1.22-.43,1.84-1.29,1.84s-1.31-.62-1.31-1.84Z" fill="#e8bc6a"/>
    <path id="Контур_12" data-name="Контур 12" d="M170.28,72.3l.79,1.48h2.52l.71-1.32-2.05-3.86Z" fill="#e8bc6a"/>
    <path id="Контур_13" data-name="Контур 13" d="M190.1,72.46l.71,1.32h2.52l.79-1.48-1.97-3.7Z" fill="#e8bc6a"/>
    <path id="Контур_14" data-name="Контур 14" d="M199.26,69.67l.55.11V64.26S199.65,57,192.35,57h-.67l-.46-.86h-5.71a10.35,10.35,0,0,0,1.7,6.29S185.5,61.16,184.5,57h-4.72a7.39,7.39,0,0,0-6.6,4.66l-2.31,4.28.27.52,1.58-3v4.22L176,73.79h3l.34-.65L178.68,72l2-3.68h5l1,1.9L185.17,73l.42.8h2.84l3.87-7.29.37.69h3.58v-.66s.95,2.46,1.84,3.14v1.17s0,1.46-1.32,1.46L196,73.79h.4a3.18,3.18,0,0,0,3.43-2.92,6.55,6.55,0,0,0,2.4.24,4.6,4.6,0,0,1-2.97-1.44Zm-3-7.09a.4.4,0,0,1-.4-.39h.79a.4.4,0,0,1-.36.39Z" fill="#e8bc6a"/>
    <path id="Контур_15" data-name="Контур 15" d="M56.17,85.64a.35.35,0,0,1-.36-.28L54.4,80.6l-.6,4.67a.35.35,0,0,1-.38.35.27.27,0,0,1-.22-.09.36.36,0,0,1-.09-.32l.69-5a.53.53,0,0,1,.19-.36.57.57,0,0,1,.4-.15.51.51,0,0,1,.53.4l1.24,4.27h0L57.4,80.1a.51.51,0,0,1,.54-.4.56.56,0,0,1,.39.15.54.54,0,0,1,.2.36l.69,5a.42.42,0,0,1-.08.32.31.31,0,0,1-.24.09.35.35,0,0,1-.38-.35l-.6-4.67-1.41,4.76a.34.34,0,0,1-.34.28Z" fill="#e8bc6a"/>
    <path id="Контур_16" data-name="Контур 16" d="M60.49,85.62a.4.4,0,0,1-.23-.08.22.22,0,0,1-.11-.2.6.6,0,0,1,0-.2l1.89-5a.52.52,0,0,1,1,0l1.89,5a.6.6,0,0,1,0,.2c0,.19-.11.28-.34.28a.34.34,0,0,1-.35-.26l-.42-1.18H61.27l-.43,1.18A.35.35,0,0,1,60.49,85.62Zm2.09-5.11-1.09,3h2.18Z" fill="#e8bc6a"/>
    <path id="Контур_17" data-name="Контур 17" d="M66.92,80.36v4.88a.34.34,0,0,1-.37.38.32.32,0,0,1-.24-.11.38.38,0,0,1-.11-.26V80.13a.57.57,0,0,1,.08-.28.27.27,0,0,1,.23-.12h2c.23,0,.34.11.34.32s-.11.31-.34.31Z" fill="#e8bc6a"/>
    <path id="Контур_18" data-name="Контур 18" d="M69.06,85.62a.43.43,0,0,1-.24-.08.23.23,0,0,1-.1-.2.6.6,0,0,1,0-.2l1.89-5c.1-.29.27-.43.51-.43s.4.14.51.43l1.89,5a.6.6,0,0,1,0,.2c0,.19-.12.28-.35.28a.34.34,0,0,1-.34-.26l-.42-1.18H69.83l-.42,1.18A.35.35,0,0,1,69.06,85.62Zm2.09-5.11-1.09,3h2.18Z" fill="#e8bc6a"/>
    <path id="Контур_19" data-name="Контур 19" d="M76.41,85a1.16,1.16,0,0,0,.79-.28.94.94,0,0,0,.33-.74,1.2,1.2,0,0,0-.37-1,1.37,1.37,0,0,0-.78-.17h-.24a1.07,1.07,0,0,1-.38-.05.25.25,0,0,1-.16-.26.28.28,0,0,1,.28-.3h.63a.92.92,0,0,0,.62-.28.94.94,0,0,0,.27-.64,1,1,0,0,0-.25-.63.93.93,0,0,0-.74-.29,1.79,1.79,0,0,0-.86.21,1.4,1.4,0,0,0-.36.24.34.34,0,0,1-.26.11c-.18,0-.27-.1-.27-.32a.45.45,0,0,1,.15-.32,2.3,2.3,0,0,1,1.6-.55,1.81,1.81,0,0,1,1.21.38,1.41,1.41,0,0,1,.47,1.14,1.22,1.22,0,0,1-.73,1.2,1.36,1.36,0,0,1,.92,1.46,1.68,1.68,0,0,1-.5,1.3,2,2,0,0,1-1.37.46,3.46,3.46,0,0,1-1-.15,1.83,1.83,0,0,1-.85-.5.41.41,0,0,1-.12-.27c0-.21.09-.32.28-.32a.39.39,0,0,1,.26.09,2.25,2.25,0,0,0,.66.41A2,2,0,0,0,76.41,85Z" fill="#e8bc6a"/>
    <path id="Контур_20" data-name="Контур 20" d="M80.4,84.29l3-4.32a.56.56,0,0,1,.45-.29c.22,0,.33.12.33.35v5.22c0,.25-.12.37-.35.37a.32.32,0,0,1-.37-.36V81l-3.1,4.43a.43.43,0,0,1-.39.24c-.2,0-.31-.12-.31-.37V80.07c0-.26.12-.39.37-.39a.33.33,0,0,1,.25.11.45.45,0,0,1,.1.28Z" fill="#e8bc6a"/>
    <path id="Контур_21" data-name="Контур 21" d="M89.47,82.16V80.1c0-.28.13-.42.37-.42a.3.3,0,0,1,.26.13.48.48,0,0,1,.09.29v5.12c0,.27-.12.4-.35.4a.34.34,0,0,1-.27-.12.43.43,0,0,1-.1-.28V82.79h-3v2.43c0,.27-.12.4-.37.4s-.35-.13-.35-.4V80.1a.43.43,0,0,1,.1-.29.28.28,0,0,1,.25-.13c.25,0,.37.14.37.42v2.06Z" fill="#e8bc6a"/>
    <path id="Контур_22" data-name="Контур 22" d="M101.35,82.16V80.1c0-.28.13-.42.37-.42a.3.3,0,0,1,.26.13.48.48,0,0,1,.09.29v5.12c0,.27-.12.4-.35.4a.34.34,0,0,1-.27-.12.43.43,0,0,1-.1-.28V82.79h-3v2.43c0,.27-.12.4-.37.4s-.35-.13-.35-.4V80.1a.43.43,0,0,1,.1-.29.28.28,0,0,1,.25-.13c.25,0,.37.14.37.42v2.06Z" fill="#e8bc6a"/>
    <path id="Контур_23" data-name="Контур 23" d="M103.6,85.62a.4.4,0,0,1-.23-.08.22.22,0,0,1-.11-.2.6.6,0,0,1,0-.2l1.89-5c.11-.29.28-.43.51-.43a.539.539,0,0,1,.51.43l1.89,5a.6.6,0,0,1,0,.2c0,.19-.11.28-.34.28a.35.35,0,0,1-.35-.26L107,84.18h-2.63L104,85.36A.34.34,0,0,1,103.6,85.62Zm2.09-5.11-1.09,3h2.19Z" fill="#e8bc6a"/>
    <path id="Контур_24" data-name="Контур 24" d="M112.85,80.36H110v4.88a.33.33,0,0,1-.37.38.34.34,0,0,1-.24-.11.38.38,0,0,1-.11-.26V80.13a.57.57,0,0,1,.08-.28.27.27,0,0,1,.23-.12h3.64c.2,0,.3.13.3.4v5.12a.35.35,0,0,1-.1.26.33.33,0,0,1-.25.11.36.36,0,0,1-.26-.11.45.45,0,0,1-.1-.27Z" fill="#e8bc6a"/>
    <path id="Контур_25" data-name="Контур 25" d="M117.48,85.62a2.28,2.28,0,0,1-1.88-.91,3.2,3.2,0,0,1-.68-2,3.25,3.25,0,0,1,.66-2.07,2.45,2.45,0,0,1,3.81,0,3.57,3.57,0,0,1,0,4.12A2.32,2.32,0,0,1,117.48,85.62Zm0-.65a1.6,1.6,0,0,0,1.11-.42,2.05,2.05,0,0,0,.59-1,3.75,3.75,0,0,0,.09-.87,2.83,2.83,0,0,0-.4-1.58,1.53,1.53,0,0,0-1.39-.73,1.55,1.55,0,0,0-1.39.73,2.83,2.83,0,0,0-.4,1.58,2.94,2.94,0,0,0,.41,1.59,1.57,1.57,0,0,0,1.38.73Z" fill="#e8bc6a"/>
    <path id="Контур_26" data-name="Контур 26" d="M124.42,80.36h-1.77a.32.32,0,0,0-.36.36V84.4a1.24,1.24,0,0,1-.3.93,1.28,1.28,0,0,1-.93.29c-.29,0-.44-.11-.44-.31s.08-.29.25-.31h.47c.17-.07.26-.26.26-.57v-3.8c0-.6.31-.9,1-.9h2.28c.2,0,.3.13.3.4v5.12a.35.35,0,0,1-.1.26.33.33,0,0,1-.25.11.36.36,0,0,1-.26-.11.39.39,0,0,1-.1-.27Z" fill="#e8bc6a"/>
    <path id="Контур_27" data-name="Контур 27" d="M127.48,82.07h1.09a1.77,1.77,0,0,1,1.28.49,1.65,1.65,0,0,1,.52,1.26,1.61,1.61,0,0,1-.53,1.29,2,2,0,0,1-1.36.46h-1.36c-.23,0-.35-.13-.35-.38V80.1c0-.28.12-.42.37-.42a.28.28,0,0,1,.25.13.48.48,0,0,1,.09.29Zm0,.63v2.24h1a1.24,1.24,0,0,0,.87-.3,1.159,1.159,0,0,0-.01-1.65,1.36,1.36,0,0,0-.89-.29Z" fill="#e8bc6a"/>
    <path id="Контур_28" data-name="Контур 28" d="M135.41,82.16V80.1q0-.42.36-.42a.28.28,0,0,1,.26.13.48.48,0,0,1,.09.29v5.12c0,.27-.11.4-.35.4a.32.32,0,0,1-.26-.12.39.39,0,0,1-.1-.28V82.79h-3v2.43c0,.27-.12.4-.36.4s-.35-.13-.35-.4V80.1a.48.48,0,0,1,.09-.29.29.29,0,0,1,.26-.13q.36,0,.36.42v2.06Z" fill="#e8bc6a"/>
    <path id="Контур_29" data-name="Контур 29" d="M138.44,82.07h.85a2,2,0,0,1,.7.12,1.7,1.7,0,0,1,.8.64,1.74,1.74,0,0,1,.29,1,1.63,1.63,0,0,1-.52,1.29,2,2,0,0,1-1.36.46h-1.12c-.24,0-.36-.13-.36-.38V80.1c0-.28.12-.42.37-.42a.28.28,0,0,1,.25.13.43.43,0,0,1,.1.29Zm0,.63v2.24h.72a1.29,1.29,0,0,0,.88-.3A1.136,1.136,0,0,0,140,83a1.36,1.36,0,0,0-.89-.29Zm3.2,2.53V80.07c0-.26.12-.39.37-.39s.35.13.35.39v5.15c0,.27-.12.4-.35.4a.343.343,0,0,1-.37-.39Z" fill="#e8bc6a"/>
    <path id="Контур_30" data-name="Контур 30" d="M148.18,85.31c0,.21-.1.31-.3.31a.38.38,0,0,1-.33-.18l-1.7-2.39-1.69,2.39a.41.41,0,0,1-.34.18.26.26,0,0,1-.21-.09.29.29,0,0,1-.09-.22.41.41,0,0,1,.08-.24l1.83-2.61-1.55-2.19a.49.49,0,0,1-.09-.28c0-.21.1-.31.3-.31a.42.42,0,0,1,.35.2l1.42,2,1.4-2a.43.43,0,0,1,.35-.19c.2,0,.3.1.3.31a.49.49,0,0,1-.09.28l-1.55,2.21,1.84,2.59A.4.4,0,0,1,148.18,85.31Z" fill="#e8bc6a"/>
    <path id="Контур_31" data-name="Контур 31" d="M158.77,80.36H156v4.88a.35.35,0,0,1-.61.27.38.38,0,0,1-.11-.26V80.13a.57.57,0,0,1,.08-.28.27.27,0,0,1,.23-.12h3.64c.2,0,.3.13.3.4v5.12a.35.35,0,0,1-.1.26.33.33,0,0,1-.25.11.36.36,0,0,1-.26-.11.39.39,0,0,1-.1-.27Z" fill="#e8bc6a"/>
    <path id="Контур_32" data-name="Контур 32" d="M163.4,85.62a2.31,2.31,0,0,1-1.89-.91,3.52,3.52,0,0,1,0-4.12,2.45,2.45,0,0,1,3.81,0,3.57,3.57,0,0,1,0,4.12,2.32,2.32,0,0,1-1.92.91Zm0-.65a1.6,1.6,0,0,0,1.11-.42,2.05,2.05,0,0,0,.59-1,3.751,3.751,0,0,0,.09-.87,2.83,2.83,0,0,0-.4-1.58,1.53,1.53,0,0,0-1.39-.73,1.55,1.55,0,0,0-1.39.73,2.83,2.83,0,0,0-.4,1.58,2.94,2.94,0,0,0,.41,1.59,1.55,1.55,0,0,0,1.38.73Z" fill="#e8bc6a"/>
    <path id="Контур_33" data-name="Контур 33" d="M167.32,85.26V80.07a.4.4,0,0,1,.1-.28.31.31,0,0,1,.25-.11.32.32,0,0,1,.36.37v2.14l2.59-2.36a.45.45,0,0,1,.32-.15.27.27,0,0,1,.22.1.32.32,0,0,1,.08.23.37.37,0,0,1-.15.3l-2.41,2.17L171.35,85a.37.37,0,0,1,.13.29c0,.2-.11.3-.35.3a.55.55,0,0,1-.37-.17L168,82.79v2.47a.32.32,0,0,1-.36.37.29.29,0,0,1-.24-.11.36.36,0,0,1-.08-.26Z" fill="#e8bc6a"/>
    <path id="Контур_34" data-name="Контур 34" d="M176.22,81.55a1.79,1.79,0,0,1-.52,1.3,1.72,1.72,0,0,1-1.28.54h-1.19v1.88a.32.32,0,0,1-.36.35.34.34,0,0,1-.25-.11.42.42,0,0,1-.1-.26V80.11c0-.25.12-.38.35-.38h1.46a1.92,1.92,0,0,1,1.36.5,1.75,1.75,0,0,1,.53,1.32Zm-3-1.19v2.4h1a1.21,1.21,0,0,0,.89-.34,1.19,1.19,0,0,0,.35-.88,1.16,1.16,0,0,0-.34-.86,1.21,1.21,0,0,0-.87-.32Z" fill="#e8bc6a"/>
    <path id="Контур_35" data-name="Контур 35" d="M178.15,82.07H179a2,2,0,0,1,.7.12,1.7,1.7,0,0,1,.8.64,1.75,1.75,0,0,1,.3,1,1.64,1.64,0,0,1-.53,1.29,2,2,0,0,1-1.36.46h-1.12c-.24,0-.35-.13-.35-.38V80.1q0-.42.36-.42a.28.28,0,0,1,.25.13.43.43,0,0,1,.1.29Zm0,.63v2.24h.72a1.29,1.29,0,0,0,.88-.3,1.183,1.183,0,0,0-.01-1.65,1.41,1.41,0,0,0-.9-.29Zm3.2,2.53V80.07c0-.26.13-.39.37-.39s.35.13.35.39v5.15c0,.27-.12.4-.35.4a.343.343,0,0,1-.37-.39Z" fill="#e8bc6a"/>
    <path id="Контур_36" data-name="Контур 36" d="M184.69,80.36h-1.12a.32.32,0,0,1-.23-.09.285.285,0,0,1,0-.45.37.37,0,0,1,.25-.09h2.93c.23,0,.35.11.35.32a.28.28,0,0,1-.32.31H185.4v4.89a.34.34,0,0,1-.1.26.36.36,0,0,1-.26.11.34.34,0,0,1-.25-.11.37.37,0,0,1-.1-.26Z" fill="#e8bc6a"/>
    <path id="Контур_37" data-name="Контур 37" d="M188.75,84.29l3-4.32a.56.56,0,0,1,.45-.29c.22,0,.33.12.33.35v5.22c0,.25-.12.37-.35.37a.32.32,0,0,1-.37-.36V81l-3.1,4.43a.42.42,0,0,1-.38.24c-.21,0-.32-.12-.32-.37V80.07c0-.26.13-.39.37-.39a.33.33,0,0,1,.25.11.4.4,0,0,1,.1.28Z" fill="#e8bc6a"/>
    <path id="Контур_38" data-name="Контур 38" d="M194.87,84.29h0l3-4.32a.56.56,0,0,1,.45-.29c.22,0,.33.12.33.35v5.22c0,.25-.12.37-.35.37a.327.327,0,0,1-.37-.35V81l-3.07,4.41a.47.47,0,0,1-.4.23c-.22,0-.32-.12-.32-.37v-5.2q0-.39.36-.39a.33.33,0,0,1,.26.11.45.45,0,0,1,.1.28Zm.43-5.69a.32.32,0,0,1,.08-.21.29.29,0,0,1,.21-.09.67.67,0,0,1,.38.24.7.7,0,0,0,.43.24.68.68,0,0,0,.43-.24.72.72,0,0,1,.39-.24.25.25,0,0,1,.2.09.29.29,0,0,1,.09.21.72.72,0,0,1-.4.58,1.27,1.27,0,0,1-.71.23,1.24,1.24,0,0,1-.7-.23A.7.7,0,0,1,195.3,78.6Z" fill="#e8bc6a"/>
  </g>
</svg>
