<svg xmlns="http://www.w3.org/2000/svg" width="242.098" height="47.922" viewBox="0 0 242.098 47.922"><g transform="translate(-52.908 -56.089)"><g transform="translate(52.908 56.089)"><path d="M167.625,83.306a.689.689,0,0,1-.692.689h0a.689.689,0,0,1-.691-.689V58.851a.689.689,0,0,1,.691-.691h0a.69.69,0,0,1,.692.691Z" transform="translate(17.53 -54.802)" fill="#010101"/><g transform="translate(0 9.786)"><path d="M61.945,81.532a8.458,8.458,0,0,1-6.656-2.781,9.935,9.935,0,0,1-2.38-6.887,9.968,9.968,0,0,1,2.457-6.883,8.417,8.417,0,0,1,6.629-2.857,9.5,9.5,0,0,1,2.784.4,4.5,4.5,0,0,1,2.354,1.443,1.8,1.8,0,0,1,.405,1.09,1.847,1.847,0,0,1-.533,1.3,1.649,1.649,0,0,1-1.262.571,4.634,4.634,0,0,1-1.647-.381,5.632,5.632,0,0,0-2.074-.379,3.95,3.95,0,0,0-3.494,1.824,6.947,6.947,0,0,0-1.064,3.973A6.171,6.171,0,0,0,58.6,75.813a4.145,4.145,0,0,0,3.543,1.67,6.6,6.6,0,0,0,2.251-.454,6.125,6.125,0,0,1,1.67-.452,1.531,1.531,0,0,1,1.2.563,1.926,1.926,0,0,1,.5,1.281,1.954,1.954,0,0,1-.409,1.164Q65.943,81.533,61.945,81.532Z" transform="translate(-52.908 -62.124)" fill="#010101"/><path d="M76.117,66h-4.5q-.939,0-.937,1.142V77.443q0,3.736-3.72,3.741-3.34,0-3.342-1.949a1.655,1.655,0,0,1,.634-1.54,2.983,2.983,0,0,1,1.341-.251,1.76,1.76,0,0,0,1.112-.277,1.662,1.662,0,0,0,.255-1.112V67.132a5.611,5.611,0,0,1,.984-3.78q.99-1.073,3.673-1.073h6.6q2.1,0,2.1,2.982V78.2q0,2.984-2.1,2.984a1.8,1.8,0,0,1-1.771-.885,4.857,4.857,0,0,1-.331-2.1Z" transform="translate(-46.254 -62.028)" fill="#010101"/><path d="M76.008,71.755a9.711,9.711,0,0,1,2.33-6.744,8.2,8.2,0,0,1,6.5-2.732,8.29,8.29,0,0,1,6.53,2.7A9.775,9.775,0,0,1,93.7,71.755a9.753,9.753,0,0,1-2.328,6.75,8.38,8.38,0,0,1-6.53,2.679,8.257,8.257,0,0,1-6.5-2.7A9.641,9.641,0,0,1,76.008,71.755Zm4.454.05A6.417,6.417,0,0,0,81.5,75.567a3.769,3.769,0,0,0,3.339,1.743,3.859,3.859,0,0,0,3.368-1.717,6.565,6.565,0,0,0,1.036-3.788,6.983,6.983,0,0,0-.986-3.864,3.86,3.86,0,0,0-3.418-1.792,3.794,3.794,0,0,0-3.391,1.792A6.956,6.956,0,0,0,80.462,71.805Z" transform="translate(-38.551 -62.028)" fill="#010101"/><path d="M93.225,73.492v4.7q0,2.987-2.1,2.988t-2.1-2.984V65.261q0-2.982,2.1-2.982t2.1,2.988v4.349h7.744V65.267q0-2.989,2.1-2.988t2.1,2.982V78.2q0,2.984-2.1,2.984t-2.1-2.988v-4.7Z" transform="translate(-30.461 -62.028)" fill="#010101"/><path d="M105.836,66.14V78.113q0,2.984-2.1,2.984t-2.1-2.984V65.4q0-2.984,2.885-2.982H114.9q2.885,0,2.883,2.982V78.113q0,2.984-2.1,2.984t-2.1-2.984V66.14Z" transform="translate(-22.624 -61.94)" fill="#010101"/><path d="M121.457,62.263a3.153,3.153,0,0,1,3.112,2.427l4.659,13.269a4.31,4.31,0,0,1,.3,1.313,1.755,1.755,0,0,1-.606,1.39,2.164,2.164,0,0,1-1.471.532q-1.593,0-2.225-1.99l-.684-2.161h-6.528l-.762,2.314c-.4,1.227-1.078,1.837-2.022,1.837a1.975,1.975,0,0,1-1.443-.545,1.9,1.9,0,0,1-.558-1.429,3.5,3.5,0,0,1,.2-1.213l4.809-13.014Q119.254,62.26,121.457,62.263Zm-.126,4.581-2.1,6.478H123.4l-2.022-6.478Z" transform="translate(-15.417 -62.038)" fill="#010101"/><path d="M126.991,81.1q-2.1,0-2.1-2.984V65.378a3.3,3.3,0,0,1,.632-2.3,3.122,3.122,0,0,1,2.278-.653H131.6a7.05,7.05,0,0,1,4.858,1.592,5.9,5.9,0,0,1,1.9,4.683,6.112,6.112,0,0,1-1.719,4.631,6.541,6.541,0,0,1-4.709,1.646h-2.833v3.147Q129.092,81.1,126.991,81.1Zm2.1-9.945h1.819q2.887,0,2.886-2.457,0-2.406-2.886-2.4h-1.819Z" transform="translate(-8.17 -61.94)" fill="#010101"/><path d="M135.222,78.2V65.261q0-2.982,2.1-2.982t2.1,2.988V69.29l5.366-5.516q1.442-1.5,2.3-1.5a2.062,2.062,0,0,1,1.443.584,1.826,1.826,0,0,1,.632,1.391,2.082,2.082,0,0,1-.606,1.291c-.015.018-.37.376-1.06,1.067l-4.234,4.209,5.628,6.358a3.375,3.375,0,0,1,1.057,2.064A2.039,2.039,0,0,1,148,81.184a3.366,3.366,0,0,1-2.277-1.466l-5.568-6.455-.735.6v4.338q0,2.98-2.1,2.979T135.222,78.2Z" transform="translate(-1.749 -62.028)" fill="#010101"/><path d="M153.446,62.42q2.989,0,2.987,1.973,0,1.948-2.987,1.949H150v3.288h2.964q2.987,0,2.987,1.938T152.966,73.5H150v3.519h3.572q2.984,0,2.987,1.934t-2.987,1.934h-4.91a3.433,3.433,0,0,1-2.226-.543,2.717,2.717,0,0,1-.632-2.111V65.381a3.292,3.292,0,0,1,.632-2.3,3.114,3.114,0,0,1,2.277-.657Z" transform="translate(4.828 -61.94)" fill="#010101"/><path d="M158.623,66.342a17.852,17.852,0,0,1-2.836-.126c-1.13-.237-1.7-.842-1.7-1.823q0-1.975,2.987-1.973h7.316q2.984,0,2.982,1.973c0,.981-.563,1.586-1.694,1.823a17.8,17.8,0,0,1-2.834.126V78.113q0,2.984-2.1,2.984-2.123,0-2.124-2.984Z" transform="translate(9.978 -61.94)" fill="#010101"/></g><g transform="translate(190.325)"><path d="M170.283,74.6l1.281,2.41h4.084l1.142-2.151-3.32-6.25Z" transform="translate(-170.283 -48.311)" fill="#010101"/><path d="M190.1,74.854l1.145,2.151h4.082l1.283-2.41L193.427,68.6Z" transform="translate(-157.964 -48.311)" fill="#010101"/><path d="M216.912,78.116l.9.17V69.345s-.269-11.855-12.1-11.855h-1.093l-.744-1.4-9.257,0a16.792,16.792,0,0,0,2.757,10.2s-2.779-1.988-4.4-8.8h-7.649s-7.118-.258-10.71,7.551l-3.749,6.937.448.838,2.552-4.8v6.843l5.276,9.922h4.863l.55-1.041-1.02-1.928,3.173-5.97h8.148l1.636,3.081L194.062,83.5l.683,1.287h4.6l6.282-11.809.593,1.116h5.8V73.022s1.545,3.982,2.99,5.093v1.9s0,2.359-2.14,2.359l-1.279,2.41h.641a5.168,5.168,0,0,0,5.565-4.725,10.381,10.381,0,0,0,3.892.384A7.392,7.392,0,0,1,216.912,78.116Zm-4.827-11.5a.638.638,0,0,1-.64-.639h1.279A.64.64,0,0,1,212.085,66.613Z" transform="translate(-169.921 -56.089)" fill="#010101"/></g><g transform="translate(0.317 36.012)"><path d="M58.079,89.348a.562.562,0,0,1-.584-.457l-2.286-7.715-.971,7.561a.576.576,0,0,1-.621.571.463.463,0,0,1-.363-.143.631.631,0,0,1-.143-.519l1.116-8.135a.949.949,0,0,1,.958-.829.828.828,0,0,1,.869.649l2.012,6.927h.026L60.1,80.329a.827.827,0,0,1,.868-.647.949.949,0,0,1,.96.829l1.116,8.135a.645.645,0,0,1-.13.519.477.477,0,0,1-.375.143.575.575,0,0,1-.623-.571l-.971-7.561-2.286,7.715A.563.563,0,0,1,58.079,89.348Z" transform="translate(-53.104 -77.438)" fill="#010101"/><path d="M60.707,89.318a.644.644,0,0,1-.384-.125.383.383,0,0,1-.175-.329.911.911,0,0,1,.052-.323l3.061-8.174c.174-.467.449-.7.83-.7s.657.235.83.7l3.061,8.174a.948.948,0,0,1,.052.323c0,.3-.186.454-.561.454a.551.551,0,0,1-.559-.413l-.678-1.921H61.959L61.268,88.9A.552.552,0,0,1,60.707,89.318Zm3.384-8.283-1.761,4.921h3.537Z" transform="translate(-48.726 -77.448)" fill="#010101"/><path d="M67.358,80.753v7.9c0,.412-.2.621-.589.621a.521.521,0,0,1-.4-.182.6.6,0,0,1-.167-.415v-8.3a.819.819,0,0,1,.13-.448.412.412,0,0,1,.365-.2h3.282c.363,0,.543.169.543.509s-.182.512-.546.512Z" transform="translate(-44.962 -77.407)" fill="#010101"/><path d="M69.276,89.318a.64.64,0,0,1-.384-.125.381.381,0,0,1-.177-.329.948.948,0,0,1,.052-.323l3.061-8.174c.173-.467.449-.7.83-.7s.658.235.83.7l3.061,8.174a.91.91,0,0,1,.052.323c0,.3-.186.454-.559.454a.552.552,0,0,1-.561-.413L74.8,86.983H70.528L69.835,88.9A.551.551,0,0,1,69.276,89.318Zm3.382-8.283L70.9,85.956h3.537Z" transform="translate(-43.401 -77.448)" fill="#010101"/><path d="M77.634,88.321a1.915,1.915,0,0,0,1.279-.459,1.516,1.516,0,0,0,.538-1.2,1.939,1.939,0,0,0-.61-1.66,2.206,2.206,0,0,0-1.258-.285h-.391a1.74,1.74,0,0,1-.621-.076.411.411,0,0,1-.261-.425.452.452,0,0,1,.454-.478c.347-.019.689-.036,1.026-.054a1.487,1.487,0,0,0,1.012-.454,1.481,1.481,0,0,0,.026-2.053,1.492,1.492,0,0,0-1.2-.465,2.965,2.965,0,0,0-1.4.331,2.44,2.44,0,0,0-.577.391.6.6,0,0,1-.423.183c-.293,0-.441-.17-.441-.516a.7.7,0,0,1,.246-.519,3.672,3.672,0,0,1,2.594-.9,2.9,2.9,0,0,1,1.959.611,2.264,2.264,0,0,1,.767,1.852,1.993,1.993,0,0,1-1.18,1.947,2.21,2.21,0,0,1,1.49,2.361,2.692,2.692,0,0,1-.822,2.113,3.177,3.177,0,0,1-2.213.741,5.525,5.525,0,0,1-1.622-.245,2.976,2.976,0,0,1-1.388-.8.674.674,0,0,1-.18-.444c0-.344.146-.519.441-.519a.619.619,0,0,1,.426.146,4.118,4.118,0,0,0,1.065.671A3.33,3.33,0,0,0,77.634,88.321Z" transform="translate(-39.841 -77.438)" fill="#010101"/><path d="M80.838,87.152l4.905-7a.9.9,0,0,1,.725-.469q.533,0,.533.571v8.458c0,.4-.19.6-.566.6a.515.515,0,0,1-.59-.574V81.741L80.82,88.923a.72.72,0,0,1-.631.384c-.337,0-.506-.2-.506-.6V80.3q0-.623.59-.623a.516.516,0,0,1,.412.18.668.668,0,0,1,.152.443Z" transform="translate(-36.585 -77.438)" fill="#010101"/><path d="M91.762,83.7V80.357q0-.674.59-.675a.482.482,0,0,1,.415.2.764.764,0,0,1,.149.473v8.3q0,.649-.564.649a.53.53,0,0,1-.43-.188.677.677,0,0,1-.161-.459V84.727H86.95V88.66q0,.647-.59.647-.564,0-.564-.649v-8.3a.773.773,0,0,1,.148-.473.485.485,0,0,1,.417-.2q.591,0,.59.675V83.7Z" transform="translate(-32.786 -77.438)" fill="#010101"/><path d="M103.642,83.7V80.357q0-.674.59-.675a.482.482,0,0,1,.415.2.774.774,0,0,1,.149.473v8.3c0,.433-.19.649-.564.649a.535.535,0,0,1-.431-.188.676.676,0,0,1-.159-.459V84.727H98.83V88.66c0,.431-.2.647-.59.647q-.564,0-.564-.649v-8.3a.782.782,0,0,1,.146-.473.488.488,0,0,1,.418-.2c.392,0,.59.225.59.675V83.7Z" transform="translate(-25.402 -77.438)" fill="#010101"/><path d="M103.818,89.318a.64.64,0,0,1-.384-.125.383.383,0,0,1-.175-.329.91.91,0,0,1,.052-.323l3.061-8.174c.172-.467.449-.7.83-.7s.657.235.83.7l3.061,8.174a.949.949,0,0,1,.052.323c0,.3-.186.454-.561.454a.551.551,0,0,1-.559-.413l-.679-1.921H105.07l-.692,1.921A.55.55,0,0,1,103.818,89.318Zm3.384-8.283-1.761,4.921h3.535Z" transform="translate(-21.932 -77.448)" fill="#010101"/><path d="M115.049,80.753H110.47v7.9c0,.412-.2.621-.59.621a.518.518,0,0,1-.4-.182.592.592,0,0,1-.167-.415v-8.3a.819.819,0,0,1,.13-.448.409.409,0,0,1,.363-.2h5.9c.328,0,.493.214.493.647v8.3a.6.6,0,0,1-.161.422.53.53,0,0,1-.4.175.551.551,0,0,1-.425-.182.628.628,0,0,1-.165-.439Z" transform="translate(-18.168 -77.407)" fill="#010101"/><path d="M119.074,89.307a3.709,3.709,0,0,1-3.061-1.479,5.187,5.187,0,0,1-1.09-3.321,5.268,5.268,0,0,1,1.064-3.347,3.976,3.976,0,0,1,6.188,0,5.28,5.28,0,0,1,1.051,3.347,5.181,5.181,0,0,1-1.077,3.321A3.722,3.722,0,0,1,119.074,89.307Zm0-1.049a2.571,2.571,0,0,0,1.79-.675,3.409,3.409,0,0,0,.96-1.688,5.734,5.734,0,0,0,.156-1.412,4.637,4.637,0,0,0-.649-2.568,2.746,2.746,0,0,0-4.514,0,4.624,4.624,0,0,0-.649,2.568,4.693,4.693,0,0,0,.662,2.568A2.531,2.531,0,0,0,119.074,88.258Z" transform="translate(-14.683 -77.438)" fill="#010101"/><path d="M126.781,80.753h-2.865a.518.518,0,0,0-.585.585v5.97a2.027,2.027,0,0,1-.48,1.5,2.11,2.11,0,0,1-1.518.465c-.477,0-.713-.169-.713-.506a.428.428,0,0,1,.415-.493c.251-.028.5-.05.752-.079q.416-.178.415-.934V81.182q0-1.452,1.557-1.451h3.684c.329,0,.493.214.493.647v8.3a.6.6,0,0,1-.161.422.53.53,0,0,1-.4.175.547.547,0,0,1-.423-.182.622.622,0,0,1-.167-.439Z" transform="translate(-11.143 -77.407)" fill="#010101"/><path d="M127.926,83.548H129.7a2.876,2.876,0,0,1,2.074.806,2.694,2.694,0,0,1,.838,2.035,2.633,2.633,0,0,1-.856,2.089,3.219,3.219,0,0,1-2.205.751h-2.205c-.381,0-.571-.2-.571-.621v-8.25q0-.674.59-.675a.485.485,0,0,1,.417.2.773.773,0,0,1,.148.473Zm0,1.023v3.635h1.568a2.052,2.052,0,0,0,1.419-.485,1.687,1.687,0,0,0,.542-1.333,1.664,1.664,0,0,0-.561-1.339,2.16,2.16,0,0,0-1.451-.478Z" transform="translate(-7.319 -77.438)" fill="#010101"/><path d="M137.7,83.7V80.357q0-.674.59-.675a.485.485,0,0,1,.417.2.773.773,0,0,1,.148.473v8.3q0,.649-.564.649a.53.53,0,0,1-.43-.188.677.677,0,0,1-.161-.459V84.727h-4.813V88.66q0,.647-.59.647-.564,0-.564-.649v-8.3a.773.773,0,0,1,.148-.473.485.485,0,0,1,.417-.2q.591,0,.59.675V83.7Z" transform="translate(-4.236 -77.438)" fill="#010101"/><path d="M138.878,83.548h1.38a3.139,3.139,0,0,1,1.145.206,2.719,2.719,0,0,1,1.3,1.039,2.819,2.819,0,0,1,.473,1.6,2.627,2.627,0,0,1-.856,2.089,3.217,3.217,0,0,1-2.2.751h-1.818c-.379,0-.571-.2-.571-.621v-8.25c0-.449.2-.675.59-.675a.49.49,0,0,1,.418.2.782.782,0,0,1,.146.473Zm0,1.023v3.635h1.177a2.056,2.056,0,0,0,1.42-.485,1.687,1.687,0,0,0,.542-1.333,1.664,1.664,0,0,0-.561-1.339A2.164,2.164,0,0,0,140,84.571Zm5.2,4.115V80.3c0-.415.2-.623.59-.623s.564.208.564.623v8.354c0,.433-.186.649-.564.649S144.079,89.1,144.079,88.686Z" transform="translate(-0.512 -77.438)" fill="#010101"/><path d="M151.073,88.816a.431.431,0,0,1-.482.491.647.647,0,0,1-.546-.284L147.3,85.146l-2.747,3.877a.646.646,0,0,1-.546.284.455.455,0,0,1-.345-.143.486.486,0,0,1-.136-.349.678.678,0,0,1,.117-.392l2.984-4.232-2.517-3.549a.793.793,0,0,1-.156-.469.435.435,0,0,1,.493-.491.67.67,0,0,1,.571.313l2.291,3.251,2.275-3.254a.672.672,0,0,1,.571-.31.435.435,0,0,1,.493.491.793.793,0,0,1-.156.469l-2.517,3.572,2.984,4.209A.678.678,0,0,1,151.073,88.816Z" transform="translate(3.092 -77.438)" fill="#010101"/><path d="M160.968,80.753h-4.579v7.9c0,.412-.2.621-.59.621a.52.52,0,0,1-.4-.182.592.592,0,0,1-.167-.415v-8.3a.819.819,0,0,1,.13-.448.41.41,0,0,1,.363-.2h5.9c.329,0,.493.214.493.647v8.3a.6.6,0,0,1-.161.422.53.53,0,0,1-.4.175.55.55,0,0,1-.423-.182.622.622,0,0,1-.167-.439Z" transform="translate(10.371 -77.407)" fill="#010101"/><path d="M164.992,89.307a3.711,3.711,0,0,1-3.061-1.479,5.186,5.186,0,0,1-1.088-3.321,5.277,5.277,0,0,1,1.062-3.347,3.976,3.976,0,0,1,6.188,0,5.28,5.28,0,0,1,1.051,3.347,5.181,5.181,0,0,1-1.077,3.321A3.722,3.722,0,0,1,164.992,89.307Zm0-1.049a2.571,2.571,0,0,0,1.79-.675,3.4,3.4,0,0,0,.96-1.688,5.734,5.734,0,0,0,.156-1.412,4.624,4.624,0,0,0-.649-2.568,2.744,2.744,0,0,0-4.513,0,4.61,4.61,0,0,0-.65,2.568,4.692,4.692,0,0,0,.662,2.568A2.533,2.533,0,0,0,164.992,88.258Z" transform="translate(13.857 -77.438)" fill="#010101"/><path d="M167.323,88.735V80.308a.656.656,0,0,1,.154-.444.5.5,0,0,1,.409-.182.526.526,0,0,1,.59.6v3.473l4.192-3.838a.786.786,0,0,1,.516-.233.446.446,0,0,1,.358.159.564.564,0,0,1,.135.379.613.613,0,0,1-.243.488l-3.906,3.512,4.334,4.151a.625.625,0,0,1,.208.469c0,.329-.19.495-.572.495a.849.849,0,0,1-.6-.289l-4.423-4.333v4.02a.528.528,0,0,1-.59.6.522.522,0,0,1-.4-.182A.608.608,0,0,1,167.323,88.735Z" transform="translate(17.884 -77.438)" fill="#010101"/><path d="M178.515,82.689a2.938,2.938,0,0,1-.846,2.1,2.757,2.757,0,0,1-2.069.88h-1.925v3.035a.513.513,0,0,1-.59.571.523.523,0,0,1-.4-.182.6.6,0,0,1-.162-.415V80.352c0-.415.19-.621.568-.621h2.359a3.1,3.1,0,0,1,2.21.811A2.827,2.827,0,0,1,178.515,82.689Zm-4.84-1.936v3.893h1.673a1.972,1.972,0,0,0,1.448-.555,1.913,1.913,0,0,0,.561-1.43,1.821,1.821,0,0,0-.542-1.383,1.94,1.94,0,0,0-1.414-.525Z" transform="translate(21.117 -77.407)" fill="#010101"/><path d="M178.587,83.548h1.382a3.124,3.124,0,0,1,1.143.206,2.711,2.711,0,0,1,1.3,1.039,2.82,2.82,0,0,1,.475,1.6,2.628,2.628,0,0,1-.858,2.089,3.22,3.22,0,0,1-2.2.751h-1.816c-.379,0-.569-.2-.569-.621v-8.25q0-.674.589-.675a.479.479,0,0,1,.413.2.764.764,0,0,1,.149.473Zm0,1.023v3.635h1.179a2.052,2.052,0,0,0,1.419-.485,1.9,1.9,0,0,0-.018-2.672,2.177,2.177,0,0,0-1.454-.478Zm5.2,4.115V80.3q0-.623.59-.623c.375,0,.564.208.564.623v8.354c0,.433-.19.649-.564.649C183.987,89.307,183.791,89.1,183.791,88.686Z" transform="translate(24.17 -77.438)" fill="#010101"/><path d="M185.6,80.753H183.78a.554.554,0,0,1-.381-.143.488.488,0,0,1,.006-.738.6.6,0,0,1,.4-.141h4.749c.378,0,.568.169.568.509a.456.456,0,0,1-.521.512h-1.852v7.929a.581.581,0,0,1-.167.426.562.562,0,0,1-.425.169.528.528,0,0,1-.4-.182.6.6,0,0,1-.162-.413Z" transform="translate(27.773 -77.407)" fill="#010101"/><path d="M189.187,87.152l4.905-7a.9.9,0,0,1,.728-.469q.53,0,.53.571v8.458c0,.4-.19.6-.566.6a.514.514,0,0,1-.59-.574V81.741l-5.025,7.182a.718.718,0,0,1-.629.384c-.337,0-.506-.2-.506-.6V80.3c0-.415.2-.623.592-.623a.506.506,0,0,1,.407.18.652.652,0,0,1,.154.443Z" transform="translate(30.756 -77.438)" fill="#010101"/><path d="M195.313,88.012l.007.006,4.881-7.013a.9.9,0,0,1,.728-.464c.357,0,.533.19.533.571v8.458c0,.4-.19.6-.569.6-.4,0-.6-.19-.6-.571V82.644L195.313,89.8a.747.747,0,0,1-.649.363c-.344,0-.519-.2-.519-.6V81.165c0-.415.2-.623.6-.623a.522.522,0,0,1,.417.18.67.67,0,0,1,.156.443Zm.7-9.218a.49.49,0,0,1,.136-.347.425.425,0,0,1,.329-.149,1.083,1.083,0,0,1,.631.389,1.087,1.087,0,0,0,.694.388,1.1,1.1,0,0,0,.7-.388c.269-.261.477-.389.626-.389a.419.419,0,0,1,.328.149.49.49,0,0,1,.136.347,1.165,1.165,0,0,1-.644.942,2.174,2.174,0,0,1-1.143.365,2.147,2.147,0,0,1-1.14-.365A1.163,1.163,0,0,1,196.016,78.794Z" transform="translate(34.555 -78.298)" fill="#010101"/></g></g></g></svg>