<svg width="177px" height="37px" viewBox="0 0 177 37" version="1.1" xmlns="http://www.w3.org/2000/svg" xmlns:xlink="http://www.w3.org/1999/xlink"><title>Parky - It's good to live on wood</title><g id="Symbols" stroke="none" stroke-width="1" fill="none" fill-rule="evenodd"><g id="Header-Copy" transform="translate(-150.000000, -53.000000)" fill="#FFB800"><g id="Parky_logo" transform="translate(150.000000, 53.000000)"><path d="M173.15775,1.16451 L173.15775,2.47131 L174.12255,2.47131 C174.53295,2.47131 174.82005,2.19681 174.82005,1.80531 C174.82005,1.39491 174.52665,1.16451 174.10365,1.16451 L173.15775,1.16451 Z M175.13055,1.81161 C175.13055,2.27781 174.82005,2.63331 174.35925,2.70171 L175.00635,3.75381 L175.00635,3.96441 L174.77595,3.96441 L174.02265,2.73231 L173.15775,2.73231 L173.15775,3.96441 L172.84635,3.96441 L172.84635,0.89631 L174.16035,0.89631 C174.72645,0.89631 175.13055,1.29501 175.13055,1.81161 L175.13055,1.81161 Z M171.65745,2.45871 C171.65745,3.72951 172.56645,4.63761 173.83635,4.63761 C175.10625,4.63761 176.01525,3.72951 176.01525,2.45871 C176.01525,1.22031 175.10625,0.28611 173.83635,0.28611 C172.56645,0.28611 171.65745,1.22031 171.65745,2.45871 L171.65745,2.45871 Z M176.32035,2.45871 C176.32035,3.89691 175.28715,4.92471 173.83635,4.92471 C172.38555,4.92471 171.35235,3.89691 171.35235,2.45871 C171.35235,1.05201 172.38555,-9e-05 173.83635,-9e-05 C175.28715,-9e-05 176.32035,1.02681 176.32035,2.45871 L176.32035,2.45871 Z" id="Fill-10"></path><polygon id="Fill-6" points="151.33851 15.96789 159.95871 0.14769 167.41161 0.14769 167.41161 4.76199 155.90151 23.77629 155.90151 36.29979 146.82591 36.29979 146.82591 23.77629 135.11331 4.76199 135.11331 0.14769 142.36371 0.14769"></polygon><polygon id="Fill-4" points="124.83027 0.1476 132.33447 0.1476 132.33447 4.4568 120.21597 17.235 132.84117 32.0409 132.84117 36.2997 125.03277 36.2997 111.95127 20.2275 111.95127 36.2997 102.87477 36.2997 102.87477 0.1476 111.95127 0.1476 111.95127 14.4459"></polygon><path d="M76.3335,17.84349 L83.4318,17.84349 C87.336,17.84349 90.3276,15.71409 90.3276,12.41829 C90.3276,8.91909 87.336,6.89139 83.4318,6.89139 L76.3335,6.89139 L76.3335,17.84349 Z M91.9503,22.66119 L98.3394,32.64849 L98.3394,36.29979 L90.6318,36.29979 L83.3301,24.08049 L76.3335,24.08049 L76.3335,36.29979 L67.257,36.29979 L67.257,0.14769 L85.0041,0.14769 C93.4713,0.14769 99.3537,5.16699 99.3537,12.41829 C99.3537,17.13339 96.3621,21.08799 91.9503,22.66119 Z" id="Fill-2"></path><path d="M40.77459,0.14724 L30.38049,31.38174 L30.38049,36.30024 L38.34099,36.30024 L40.21659,30.46914 L54.51579,30.46914 L56.39139,36.30024 L64.35189,36.30024 L64.35189,31.38174 L53.95779,0.14724 L40.77459,0.14724 Z M47.36619,7.85484 L52.79139,24.02964 L41.99139,24.02964 L47.36619,7.85484 Z" id="Fill-1"></path><path d="M16.52967,0.1476 L0.00027,0.1476 L0.00027,36.2997 L13.08447,36.2997 L13.08447,26.1081 L0.00027,13.023 L13.08447,13.023 L13.08447,26.1081 L16.42887,26.1081 C25.30197,26.1081 31.43637,20.7846 31.43637,13.1274 C31.43637,5.4711 25.30197,0.1476 16.52967,0.1476" id="Fill-8"></path></g></g></g></svg>