<svg id="elgtkbTyYDN1" xmlns="http://www.w3.org/2000/svg" xmlns:xlink="http://www.w3.org/1999/xlink" viewBox="0 0 945.55 200.21" shape-rendering="geometricPrecision" text-rendering="geometricPrecision">
<g id="elgtkbTyYDN2_ts"><g><g><path d="M24.71,175.61Q3.5,154.51,3.5,113.94v-103.08c-.002659-1.952807.771914-3.826397,2.152758-5.207242s3.254435-2.155417,5.207242-2.152758v0c4.064816,0,7.36,3.295184,7.36,7.36v102.54q0,35.34,17,52.89t49.34,17.54q32,0,49.05-17.54t17-52.89v-102.54c-.000016-1.957202.779527-3.833808,2.16629-5.214941s3.266524-2.153037,5.22371-2.145059v0c1.951993,0,3.824038.775426,5.204306,2.155694s2.155694,3.252313,2.155694,5.204306v103.08q0,40.56-21.35,61.67t-59.73,21.1q-38.37,0-59.57-21.1Z" fill="#343434" stroke="#343434" stroke-width="7" stroke-miterlimit="10"/><path d="M398.5,10.86v177.14c0,1.951993-.775426,3.824038-2.155694,5.204306s-3.252313,2.155694-5.204306,2.155694h-1.29c-2.194064.002167-4.27405-.977297-5.67-2.67L256.38,37.94c-1.157789-1.398589-3.067896-1.921628-4.776688-1.307986s-2.849778,2.232355-2.853312,4.047986v147.32c0,1.951993-.775426,3.824038-2.155694,5.204306s-3.252313,2.155694-5.204306,2.155694v0c-1.957186.007978-3.836947-.763925-5.22371-2.145059s-2.166306-3.257739-2.16629-5.214941v-177.14c-.002655-1.951073.770546-3.823145,2.149226-5.203701s3.249699-2.156301,5.200774-2.156299h1.65c2.198901-.001285,4.282875.981998,5.68,2.68L376.2,160.92c1.153575,1.388756,3.053165,1.906685,4.751991,1.295645s2.833309-2.220276,2.838009-4.025645v-147.33c-.002655-1.951073.770546-3.823145,2.149226-5.203701s3.249699-2.156301,5.200774-2.156299v0c1.952807-.002659,3.826397.771914,5.207242,2.152758s2.155417,3.254435,2.152758,5.207242Z" fill="#343434" stroke="#343434" stroke-width="7" stroke-miterlimit="10"/><path d="M476.26,3.5v0c1.951993,0,3.824038.775426,5.204306,2.155694s2.155694,3.252313,2.155694,5.204306v177.14c-.005509,4.062532-3.297468,7.354491-7.36,7.36v0c-4.062532-.005509-7.354491-3.297468-7.36-7.36v-177.14c0-1.951993.775426-3.824038,2.155694-5.204306s3.252313-2.155694,5.204306-2.155694Z" fill="#343434" stroke="#343434" stroke-width="7" stroke-miterlimit="10"/><path d="M582.31,184.05c-14.564902-8.190037-26.633894-20.179537-34.92-34.69q-12.71-22.05-12.7-49.26t12.7-49.25c8.285473-14.513526,20.3544-26.506418,34.92-34.7Q604.51,3.5,632.07,3.5t49.75,12.5c14.577601,8.114964,26.654412,20.067272,34.92,34.56q12.71,22,12.7,49.52t-12.7,49.53c-8.268444,14.490536-20.344561,26.442157-34.92,34.56q-22.2,12.52-49.75,12.52t-49.76-12.64Zm92.29-11c12.544001-7.114512,22.914743-17.509452,30-30.07q11-19.19,11-42.86t-11-42.86c-7.08809-12.5584-17.458154-22.952661-30-30.07q-19-10.87-42.53-10.88t-42.68,10.86c-12.583913,7.092558-22.989077,17.490806-30.09,30.07q-11,19.18-11,42.86t11,42.86c7.102412,12.570329,17.507877,22.958503,30.09,30.04q19.13,10.89,42.68,10.89t42.53-10.89Z" fill="#343434" stroke="#343434" stroke-width="7" stroke-miterlimit="10"/><path d="M942.05,10.86v177.14c-.005509,4.062532-3.297468,7.354491-7.36,7.36h-1.3c-2.193121-.002046-4.271402-.980707-5.67-2.67l-128-155c-1.123151-1.356888-2.976382-1.864093-4.633968-1.268258s-2.763786,2.166836-2.766032,3.928258v147.65c-.005509,4.062532-3.297468,7.354491-7.36,7.36v0c-4.062532-.005509-7.354491-3.297468-7.36-7.36v-177.14c0-1.951993.775426-3.824038,2.155694-5.204306s3.252313-2.155694,5.204306-2.155694h1.58c2.198901-.001285,4.282875.981998,5.68,2.68l127.73,155c1.123151,1.356888,2.976382,1.864093,4.633968,1.268258s2.763786-2.166836,2.766032-3.928258v-147.66c0-1.951993.775426-3.824038,2.155694-5.204306s3.252313-2.155694,5.204306-2.155694v0c4.057003.011025,7.340015,3.302982,7.34,7.36Z" fill="#343434" stroke="#343434" stroke-width="7" stroke-miterlimit="10"/></g></g></g></svg>
